<svg width="57" height="56" viewBox="0 0 57 56" fill="none" xmlns="http://www.w3.org/2000/svg">
<path fill-rule="evenodd" clip-rule="evenodd" d="M30.9636 27.0177C31.9362 26.6918 31.6347 25.0545 31.632 23.7892C31.6238 20.4602 31.2489 16.3954 33.3598 13.8675C36.5792 10.0118 40.1001 10.7558 45.9439 10.7558V16.9086C43.7406 16.9086 38.8694 16.1972 38.0435 17.9024C37.56 18.8989 37.6279 25.7822 37.9919 26.6918C39.0841 27.6693 44.0476 27.167 45.7673 27.167L44.9876 33.2981C36.2858 33.5995 37.7882 30.7838 37.7882 44.5367C37.7882 46.2989 37.4323 54.4692 38.106 55.3028C38.4701 55.6993 38.2718 55.6477 38.9645 55.7617C39.3585 55.8269 42.3198 55.9165 42.8468 55.5363C43.4608 55.0937 43.4146 54.1271 42.711 53.7687C42.01 53.4103 40.7712 53.6139 39.9507 53.6139L39.9534 35.4785L46.4357 35.4513C47.3539 34.3788 47.6066 29.771 47.9272 27.5553C48.1282 26.1488 48.4162 25.489 47.2643 25.1604L46.7562 24.878L40.0947 24.9133L40.1979 19.0863C42.1269 18.994 46.4194 19.3334 47.8212 18.8093C48.2967 17.6472 48.2912 10.0553 47.8402 8.85509C46.5634 8.3772 41.1733 8.52383 39.3829 8.60529C34.6177 8.82251 30.8061 12.0456 29.7465 16.5204C29.0972 19.2601 29.8253 22.3854 29.377 25.0056C27.8421 25.0056 24.2478 24.7015 23.1149 25.2256C22.6177 25.641 22.8242 25.1088 22.6476 26.0211C22.5878 26.3307 22.6177 27.1018 22.6204 27.4521C22.6286 28.3916 22.6258 29.3311 22.6258 30.2706C22.6258 31.2101 22.6286 32.1496 22.6204 33.089C22.6177 33.3932 22.5932 34.0638 22.6313 34.3326C22.7698 35.2803 22.7101 34.911 23.2099 35.2586C24.0684 35.7582 28.111 35.4785 29.4422 35.4785L29.4667 53.6139C26.2337 53.6139 4.62176 53.9289 3.49158 53.3777C2.66296 52.7314 3.05961 42.6577 3.05961 41.0774C3.05961 35.8288 2.80152 3.66618 3.29326 3.03623C4.47777 2.03972 7.97155 3.41637 7.30322 1.18983C6.89027 -0.189534 3.09221 0.478427 2.33695 1.01334C0.780237 2.11575 0.894342 3.59829 0.897059 5.84655V49.2912C0.897059 51.2598 0.530294 53.3913 1.76643 54.6892C3.15742 56.15 4.66251 55.7753 6.95004 55.7753H25.5491C27.0053 55.7753 30.4257 56.1717 31.3929 55.3436C31.8928 54.3851 31.8765 34.6585 31.3766 33.7299C30.2871 32.8908 26.4837 33.3198 24.9025 33.3198V27.3191H30.2518C31.2272 27.1887 30.7572 27.1751 30.9582 27.0177H30.9636ZM46.0852 53.766C44.7295 54.4665 45.7782 56.2477 47.0279 55.6368C48.2179 55.0557 47.373 53.1007 46.0852 53.766ZM10.1857 0.595184C8.83005 1.29573 9.87872 3.07696 11.1284 2.46602C12.3184 1.88495 11.4735 -0.0700613 10.1857 0.595184ZM53.665 2.84073C54.5126 3.85082 54.097 13.2674 54.097 15.141C54.097 20.3924 54.3578 52.5468 53.8606 53.1822C52.6191 54.2194 50.7309 53.0111 49.9892 54.0701C48.7667 55.816 51.5432 55.8106 52.5919 55.7834C56.2921 55.6775 56.2623 53.2854 56.2595 49.9401C56.2568 45.2671 56.5747 3.79108 56.0096 2.41443C54.9337 -0.213972 51.1493 0.443128 48.2559 0.443128L14.9564 0.45942C13.5355 0.673928 13.1905 2.5692 15.584 2.61807C20.1699 2.71039 52.3501 2.1972 53.6623 2.84073H53.665Z" fill="#1C2C3C"/>
</svg>
