<svg width="36" height="35" viewBox="0 0 36 35" fill="none" xmlns="http://www.w3.org/2000/svg">
<path fill-rule="evenodd" clip-rule="evenodd" d="M19.5641 17.1285C20.1658 16.9268 19.9792 15.9133 19.9775 15.1301C19.9725 13.0696 19.7406 10.5537 21.0464 8.98896C23.038 6.6024 25.2162 7.06291 28.8313 7.06291V10.8713C27.4683 10.8713 24.4548 10.431 23.9439 11.4864C23.6448 12.1032 23.6868 16.3637 23.912 16.9268C24.5876 17.5318 27.6582 17.2209 28.7221 17.2209L28.2397 21.0158C22.8565 21.2024 23.7859 19.4595 23.7859 27.9722C23.7859 29.0629 23.5658 34.1201 23.9826 34.636C24.2078 34.8814 24.0851 34.8495 24.5137 34.9201C24.7574 34.9604 26.5893 35.0159 26.9153 34.7806C27.2952 34.5066 27.2666 33.9083 26.8313 33.6864C26.3977 33.4646 25.6313 33.5906 25.1237 33.5906L25.1254 22.3654L29.1355 22.3486C29.7036 21.6848 29.8599 18.8327 30.0582 17.4612C30.1826 16.5906 30.3607 16.1822 29.6481 15.9789L29.3338 15.8041L25.2128 15.8259L25.2767 12.2192C26.47 12.1621 29.1254 12.3722 29.9927 12.0478C30.2868 11.3285 30.2834 6.62929 30.0044 5.88644C29.2145 5.59064 25.8801 5.68139 24.7725 5.73181C21.8246 5.86627 19.4666 7.86123 18.8111 10.631C18.4095 12.3268 18.8599 14.2612 18.5826 15.8831C17.633 15.8831 15.4095 15.6948 14.7086 16.0192C14.4011 16.2764 14.5288 15.9469 14.4195 16.5116C14.3826 16.7032 14.4011 17.1806 14.4027 17.3974C14.4078 17.9789 14.4061 18.5604 14.4061 19.1419C14.4061 19.7234 14.4078 20.3049 14.4027 20.8864C14.4011 21.0747 14.3859 21.4898 14.4095 21.6562C14.4952 22.2427 14.4582 22.0142 14.7674 22.2293C15.2985 22.5385 17.7994 22.3654 18.6229 22.3654L18.638 33.5906C16.638 33.5906 3.26829 33.7856 2.56913 33.4444C2.05652 33.0444 2.3019 26.8091 2.3019 25.831C2.3019 22.5822 2.14224 2.67467 2.44644 2.28476C3.17921 1.66795 5.34056 2.52005 4.92711 1.1419C4.67165 0.288116 2.32207 0.701562 1.85484 1.03265C0.891816 1.71501 0.962404 2.63265 0.964085 4.02425V30.915C0.964085 32.1335 0.737194 33.4528 1.5019 34.2562C2.3624 35.1604 3.2935 34.9285 4.70862 34.9285H16.2145C17.1153 34.9285 19.2313 35.1738 19.8296 34.6612C20.1389 34.068 20.1288 21.8579 19.8195 21.2831C19.1456 20.7637 16.7927 21.0293 15.8145 21.0293V17.315H19.1238C19.7271 17.2343 19.4364 17.2259 19.5607 17.1285H19.5641ZM28.9187 33.6848C28.0801 34.1184 28.7288 35.2209 29.5019 34.8427C30.238 34.4831 29.7153 33.273 28.9187 33.6848ZM6.7103 0.773831C5.87165 1.20744 6.52039 2.30997 7.2935 1.93181C8.02963 1.57215 7.50694 0.362066 6.7103 0.773831ZM33.6078 2.16375C34.1322 2.78896 33.875 8.61753 33.875 9.77719C33.875 13.0276 34.0364 32.9301 33.7288 33.3234C32.9607 33.9654 31.7927 33.2175 31.3338 33.873C30.5775 34.9537 32.2952 34.9503 32.9439 34.9335C35.233 34.868 35.2145 33.3873 35.2128 31.3167C35.2111 28.4243 35.4078 2.75198 35.0582 1.89988C34.3927 0.27299 32.0515 0.679713 30.2616 0.679713L9.66156 0.689797C8.78257 0.82257 8.56913 1.99568 10.0498 2.02593C12.8868 2.08307 32.7943 1.76543 33.6061 2.16375H33.6078Z" fill="#1C2C3C"/>
</svg>
