<svg width="35" height="35" viewBox="0 0 35 35" fill="none" xmlns="http://www.w3.org/2000/svg">
<path fill-rule="evenodd" clip-rule="evenodd" d="M19.0641 17.0035C19.6658 16.8018 19.4792 15.7883 19.4775 15.0051C19.4725 12.9446 19.2406 10.4287 20.5464 8.86396C22.538 6.4774 24.7162 6.93791 28.3313 6.93791V10.7463C26.9683 10.7463 23.9548 10.306 23.4439 11.3614C23.1448 11.9782 23.1868 16.2387 23.412 16.8018C24.0876 17.4068 27.1582 17.0959 28.2221 17.0959L27.7397 20.8908C22.3565 21.0774 23.2859 19.3345 23.2859 27.8472C23.2859 28.9379 23.0658 33.9951 23.4826 34.511C23.7078 34.7564 23.5851 34.7245 24.0137 34.7951C24.2574 34.8354 26.0893 34.8909 26.4153 34.6556C26.7952 34.3816 26.7666 33.7833 26.3313 33.5614C25.8977 33.3396 25.1313 33.4656 24.6237 33.4656L24.6254 22.2404L28.6355 22.2236C29.2036 21.5598 29.3599 18.7077 29.5582 17.3362C29.6826 16.4656 29.8607 16.0572 29.1481 15.8539L28.8338 15.6791L24.7128 15.7009L24.7767 12.0942C25.97 12.0371 28.6254 12.2472 29.4927 11.9228C29.7868 11.2035 29.7834 6.50429 29.5044 5.76144C28.7145 5.46564 25.3801 5.55639 24.2725 5.60681C21.3246 5.74127 18.9666 7.73623 18.3111 10.506C17.9095 12.2018 18.3599 14.1362 18.0826 15.7581C17.133 15.7581 14.9095 15.5698 14.2086 15.8942C13.9011 16.1514 14.0288 15.8219 13.9195 16.3866C13.8826 16.5782 13.9011 17.0556 13.9027 17.2724C13.9078 17.8539 13.9061 18.4354 13.9061 19.0169C13.9061 19.5984 13.9078 20.1799 13.9027 20.7614C13.9011 20.9497 13.8859 21.3648 13.9095 21.5312C13.9952 22.1177 13.9582 21.8892 14.2674 22.1043C14.7985 22.4135 17.2994 22.2404 18.1229 22.2404L18.138 33.4656C16.138 33.4656 2.76829 33.6606 2.06913 33.3194C1.55652 32.9194 1.8019 26.6841 1.8019 25.706C1.8019 22.4572 1.64224 2.54967 1.94644 2.15976C2.67921 1.54295 4.84056 2.39505 4.42711 1.0169C4.17165 0.163116 1.82207 0.576562 1.35484 0.907654C0.391816 1.59001 0.462404 2.50765 0.464085 3.89925V30.79C0.464085 32.0085 0.237194 33.3278 1.0019 34.1312C1.8624 35.0354 2.7935 34.8035 4.20862 34.8035H15.7145C16.6153 34.8035 18.7313 35.0488 19.3296 34.5362C19.6389 33.943 19.6288 21.7329 19.3195 21.1581C18.6456 20.6387 16.2927 20.9043 15.3145 20.9043V17.19H18.6238C19.2271 17.1093 18.9364 17.1009 19.0607 17.0035H19.0641ZM28.4187 33.5598C27.5801 33.9934 28.2288 35.0959 29.0019 34.7177C29.738 34.3581 29.2153 33.148 28.4187 33.5598ZM6.2103 0.648831C5.37165 1.08244 6.02039 2.18497 6.7935 1.80681C7.52963 1.44715 7.00694 0.237066 6.2103 0.648831ZM33.1078 2.03875C33.6322 2.66396 33.375 8.49253 33.375 9.65219C33.375 12.9026 33.5364 32.8051 33.2288 33.1984C32.4607 33.8404 31.2927 33.0925 30.8338 33.748C30.0775 34.8287 31.7952 34.8253 32.4439 34.8085C34.733 34.743 34.7145 33.2623 34.7128 31.1917C34.7111 28.2993 34.9078 2.62698 34.5582 1.77488C33.8927 0.14799 31.5515 0.554713 29.7616 0.554713L9.16156 0.564797C8.28257 0.69757 8.06913 1.87068 9.5498 1.90093C12.3868 1.95807 32.2943 1.64043 33.1061 2.03875H33.1078Z" fill="#1C2C3C"/>
</svg>
