<svg width="34" height="33" viewBox="0 0 34 33" fill="none" xmlns="http://www.w3.org/2000/svg">
<path fill-rule="evenodd" clip-rule="evenodd" d="M15.0198 1.13525C15.6135 1.74717 16.8153 1.51202 18.3054 1.51202C21.7171 1.51202 25.972 1.09368 28.3755 2.41625C29.7643 3.18017 31.1025 4.60539 31.6715 6.52689C32.1977 8.29898 31.9612 18.3495 31.9612 20.9102C31.9612 23.1864 32.2159 25.6172 31.3155 27.5348C29.0939 32.2638 24.7871 31.6298 20.731 31.6298C17.8312 31.6298 8.54334 31.9858 6.47243 31.2128C1.42508 29.3277 1.84342 24.8455 1.84342 21.1662C1.84342 18.699 1.84342 16.2318 1.84342 13.7647C1.84342 9.48644 1.03532 4.94967 5.26548 2.50979C8.26531 0.779273 10.7805 2.04858 11.1365 1.13525C11.6601 -0.208111 8.21724 0.236211 7.57804 0.338847C6.45684 0.519435 5.49934 0.883208 4.65097 1.38729C3.07115 2.32531 1.79015 3.69725 1.02883 5.80584C0.192148 8.12229 0.566315 18.1001 0.566315 21.2948C0.566315 23.9139 0.346752 26.2668 1.48484 28.4195C4.13779 33.4383 8.62909 32.9082 13.0723 32.9082C15.7097 32.9082 18.347 32.9082 20.9844 32.9082C23.6243 32.9082 26.0109 33.1694 28.3131 32.1937C30.0722 31.4479 31.604 29.9097 32.4017 28.2506C33.4904 25.9874 33.2357 23.7191 33.2357 21.0401C33.2357 18.4028 33.2357 15.7654 33.2357 13.1281C33.2357 10.7181 33.506 7.74683 32.7018 5.62395C31.9275 3.57773 30.649 2.26165 28.99 1.29375C26.454 -0.184726 21.6197 0.23881 18.0482 0.23881C15.8123 0.23881 14.9626 -0.0768933 15.0172 1.13785L15.0198 1.13525ZM12.8112 0.325856C12.0083 0.740297 12.6332 1.79134 13.3685 1.43147C14.0675 1.08978 13.5712 -0.0664997 12.8112 0.325856ZM20.4686 29.1679C19.6657 29.5823 20.2906 30.6333 21.026 30.2735C21.7249 29.9318 21.2286 28.7755 20.4686 29.1679ZM24.5091 7.39345C26.0577 6.69578 26.8112 9.08629 25.4627 9.68911C24.4285 10.1503 23.3021 9.10968 23.7841 8.01056C24.0531 7.39604 24.4428 7.42333 24.5091 7.39345ZM24.4116 6.04749C23.1865 6.3385 22.0887 7.53246 22.4538 9.10708C23.2073 12.3563 28.1871 11.2339 27.4258 7.95859C27.1542 6.78672 25.8771 5.6993 24.4103 6.04749H24.4116ZM16.2021 13.4957C20.3036 12.5162 21.6301 18.6782 17.6987 19.6591C13.6427 20.6712 11.9511 14.5104 16.2021 13.4957ZM16.063 12.2108C10.014 13.5425 12.2395 22.1821 17.8286 20.9349C23.6438 19.637 21.6197 10.987 16.063 12.2108ZM15.937 10.9337C19.3435 10.2802 22.0198 12.7851 22.5421 15.5186C23.2047 18.9783 20.7038 21.691 17.956 22.2146C10.6155 23.6112 8.25752 12.4057 15.9357 10.9337H15.937ZM16.0942 9.60467C12.502 10.0425 9.43978 13.2658 9.93217 17.4089C10.3557 20.9713 13.6362 24.0335 17.7364 23.5424C21.3014 23.1162 24.3623 19.8423 23.8712 15.7381C23.4463 12.1836 20.1724 9.10708 16.0942 9.60467ZM18.7836 29.9773C18.7939 29.3601 18.8602 29.0769 17.6714 29.0756C17.118 29.0756 16.5632 29.0795 16.0085 29.0795C13.6712 29.0795 8.37574 29.3433 6.88947 28.6248C5.62926 28.0168 4.48207 26.6215 4.40022 24.7454C4.26251 21.5741 4.39503 15.4887 4.39503 11.9783C4.39503 9.10838 3.73114 4.07662 9.2449 4.06492L22.1342 4.06622C25.6939 4.06622 29.4122 3.74532 29.4083 9.554V22.3159C29.4083 24.674 29.6318 26.0147 28.2741 27.5595C26.7905 29.2497 25.9473 28.8807 23.4022 29.0769C22.4434 29.151 22.1329 30.3579 23.788 30.3592C24.8651 30.3605 25.82 30.367 26.7983 30.0435C31.2259 28.5793 30.6841 24.1595 30.6841 21.1675C30.6841 16.9867 30.827 12.5512 30.6802 8.40292C30.6088 6.38398 29.611 4.95097 28.5885 4.11819C27.0243 2.84368 25.9343 2.79042 23.5373 2.79172C19.2409 2.79172 14.9444 2.79172 10.648 2.79172C8.50826 2.79172 6.81931 2.83719 5.42399 3.9467C4.40022 4.76129 3.30631 6.0319 3.14261 8.02485C2.9919 9.86061 3.11792 18.2456 3.11792 20.7855C3.11792 22.5862 2.90745 25.2222 3.53107 26.754C5.24729 30.9711 9.31506 30.3566 12.6904 30.3566L17.5415 30.3592C18.2691 30.3631 18.3236 30.4541 18.7836 29.9786V29.9773Z" fill="#1C2C3C"/>
</svg>
