<svg width="34" height="33" viewBox="0 0 34 33" fill="none" xmlns="http://www.w3.org/2000/svg">
<path fill-rule="evenodd" clip-rule="evenodd" d="M15.4524 1.13525C16.0461 1.74717 17.2479 1.51202 18.7381 1.51202C22.1497 1.51202 26.4046 1.09368 28.8081 2.41625C30.1969 3.18017 31.5351 4.60539 32.1041 6.52689C32.6303 8.29898 32.3938 18.3495 32.3938 20.9102C32.3938 23.1864 32.6485 25.6172 31.7482 27.5348C29.5265 32.2638 25.2197 31.6298 21.1637 31.6298C18.2639 31.6298 8.97596 31.9858 6.90505 31.2128C1.8577 29.3277 2.27604 24.8455 2.27604 21.1662C2.27604 18.699 2.27604 16.2318 2.27604 13.7647C2.27604 9.48644 1.46794 4.94967 5.6981 2.50979C8.69793 0.779273 11.2132 2.04858 11.5691 1.13525C12.0927 -0.208111 8.64986 0.236211 8.01066 0.338847C6.88946 0.519435 5.93196 0.883208 5.08358 1.38729C3.50377 2.32531 2.22277 3.69725 1.46144 5.80584C0.624765 8.12229 0.998932 18.1001 0.998932 21.2948C0.998932 23.9139 0.779369 26.2668 1.91746 28.4195C4.5704 33.4383 9.0617 32.9082 13.5049 32.9082C16.1423 32.9082 18.7796 32.9082 21.417 32.9082C24.0569 32.9082 26.4436 33.1694 28.7457 32.1937C30.5048 31.4479 32.0366 29.9097 32.8343 28.2506C33.923 25.9874 33.6684 23.7191 33.6684 21.0401C33.6684 18.4028 33.6684 15.7654 33.6684 13.1281C33.6684 10.7181 33.9386 7.74683 33.1344 5.62395C32.3601 3.57773 31.0817 2.26165 29.4226 1.29375C26.8866 -0.184726 22.0523 0.23881 18.4808 0.23881C16.2449 0.23881 15.3953 -0.0768933 15.4498 1.13785L15.4524 1.13525ZM13.2438 0.325856C12.4409 0.740297 13.0658 1.79134 13.8011 1.43147C14.5001 1.08978 14.0038 -0.0664997 13.2438 0.325856ZM20.9012 29.1679C20.0983 29.5823 20.7232 30.6333 21.4586 30.2735C22.1575 29.9318 21.6612 28.7755 20.9012 29.1679ZM24.9417 7.39345C26.4903 6.69578 27.2439 9.08629 25.8953 9.68911C24.8611 10.1503 23.7348 9.10968 24.2167 8.01056C24.4857 7.39604 24.8754 7.42333 24.9417 7.39345ZM24.8443 6.04749C23.6191 6.3385 22.5213 7.53246 22.8864 9.10708C23.6399 12.3563 28.6197 11.2339 27.8584 7.95859C27.5868 6.78672 26.3097 5.6993 24.843 6.04749H24.8443ZM16.6347 13.4957C20.7362 12.5162 22.0627 18.6782 18.1313 19.6591C14.0753 20.6712 12.3837 14.5104 16.6347 13.4957ZM16.4957 12.2108C10.4466 13.5425 12.6721 22.1821 18.2613 20.9349C24.0764 19.637 22.0523 10.987 16.4957 12.2108ZM16.3696 10.9337C19.7761 10.2802 22.4524 12.7851 22.9747 15.5186C23.6373 18.9783 21.1364 21.691 18.3886 22.2146C11.0482 23.6112 8.69014 12.4057 16.3683 10.9337H16.3696ZM16.5268 9.60467C12.9346 10.0425 9.8724 13.2658 10.3648 17.4089C10.7883 20.9713 14.0688 24.0335 18.169 23.5424C21.734 23.1162 24.7949 19.8423 24.3038 15.7381C23.879 12.1836 20.605 9.10708 16.5268 9.60467ZM19.2162 29.9773C19.2266 29.3601 19.2928 29.0769 18.1041 29.0756C17.5506 29.0756 16.9959 29.0795 16.4411 29.0795C14.1039 29.0795 8.80836 29.3433 7.32209 28.6248C6.06187 28.0168 4.91469 26.6215 4.83284 24.7454C4.69513 21.5741 4.82764 15.4887 4.82764 11.9783C4.82764 9.10838 4.16376 4.07662 9.67752 4.06492L22.5668 4.06622C26.1266 4.06622 29.8448 3.74532 29.8409 9.554V22.3159C29.8409 24.674 30.0644 26.0147 28.7067 27.5595C27.2231 29.2497 26.3799 28.8807 23.8348 29.0769C22.876 29.151 22.5655 30.3579 24.2206 30.3592C25.2977 30.3605 26.2526 30.367 27.2309 30.0435C31.6585 28.5793 31.1167 24.1595 31.1167 21.1675C31.1167 16.9867 31.2597 12.5512 31.1128 8.40292C31.0414 6.38398 30.0436 4.95097 29.0212 4.11819C27.4569 2.84368 26.3669 2.79042 23.9699 2.79172C19.6735 2.79172 15.3771 2.79172 11.0806 2.79172C8.94088 2.79172 7.25193 2.83719 5.8566 3.9467C4.83284 4.76129 3.73892 6.0319 3.57522 8.02485C3.42452 9.86061 3.55054 18.2456 3.55054 20.7855C3.55054 22.5862 3.34007 25.2222 3.96368 26.754C5.67991 30.9711 9.74767 30.3566 13.123 30.3566L17.9741 30.3592C18.7017 30.3631 18.7563 30.4541 19.2162 29.9786V29.9773Z" fill="#1C2C3C"/>
</svg>
