<svg width="57" height="56" viewBox="0 0 57 56" fill="none" xmlns="http://www.w3.org/2000/svg">
<path fill-rule="evenodd" clip-rule="evenodd" d="M25.2539 1.98414C26.2587 3.0209 28.2923 2.62248 30.8141 2.62248C36.5875 2.62248 43.7878 1.9137 47.8551 4.15451C50.2054 5.44881 52.4699 7.86351 53.4329 11.1191C54.3233 14.1215 53.9231 31.1498 53.9231 35.4884C53.9231 39.3449 54.3541 43.4633 52.8305 46.7122C49.0709 54.7245 41.7827 53.6504 34.9188 53.6504C30.0116 53.6504 14.2941 54.2535 10.7896 52.9438C2.2482 49.7499 2.95613 42.1558 2.95613 35.922C2.95613 31.742 2.95613 27.5619 2.95613 23.3819C2.95613 16.1334 1.58863 8.44682 8.74714 4.313C13.8236 1.38102 18.08 3.53157 18.6824 1.98414C19.5685 -0.291885 13.7423 0.460921 12.6606 0.634814C10.7632 0.940779 9.14288 1.55711 7.70722 2.41117C5.03377 4.00043 2.86599 6.32488 1.57764 9.8974C0.161765 13.8221 0.794951 30.7272 0.794951 36.1399C0.794951 40.5775 0.423394 44.5639 2.34933 48.2112C6.83879 56.7144 14.4392 55.8163 21.9583 55.8163C26.4214 55.8163 30.8844 55.8163 35.3475 55.8163C39.815 55.8163 43.8537 56.2588 47.7496 54.6057C50.7264 53.3422 53.3185 50.736 54.6685 47.9251C56.5108 44.0906 56.0799 40.2473 56.0799 35.7085C56.0799 31.2401 56.0799 26.7717 56.0799 22.3033C56.0799 18.2201 56.5372 13.186 55.1763 9.58924C53.866 6.12237 51.7026 3.89257 48.895 2.25269C44.6034 -0.252263 36.4226 0.465323 30.3788 0.465323C26.595 0.465323 25.1572 -0.0695652 25.2495 1.98854L25.2539 1.98414ZM21.5164 0.612802C20.1577 1.31498 21.2152 3.09574 22.4596 2.48601C23.6424 1.9071 22.8025 -0.0519556 21.5164 0.612802ZM34.4747 49.4791C33.116 50.1813 34.1735 51.9621 35.4179 51.3523C36.6007 50.7734 35.7608 48.8144 34.4747 49.4791ZM41.3122 12.5873C43.9329 11.4052 45.2081 15.4554 42.9259 16.4767C41.1759 17.2582 39.2697 15.495 40.0854 13.6328C40.5405 12.5917 41.2001 12.6379 41.3122 12.5873ZM41.1473 10.3068C39.0741 10.7999 37.2163 12.8228 37.8341 15.4906C39.1092 20.9958 47.5363 19.094 46.248 13.5448C45.7885 11.5593 43.6273 9.71691 41.1451 10.3068H41.1473ZM27.2546 22.9262C34.1955 21.2665 36.4402 31.7067 29.7874 33.3686C22.9235 35.0834 20.0609 24.6453 27.2546 22.9262ZM27.0194 20.7492C16.7829 23.0055 20.549 37.6433 30.0072 35.5302C39.848 33.3312 36.4226 18.6757 27.0194 20.7492ZM26.8061 18.5855C32.5707 17.4783 37.0998 21.7222 37.9836 26.3535C39.1049 32.2152 34.8726 36.8113 30.2227 37.6984C17.8008 40.0647 13.8104 21.0794 26.8039 18.5855H26.8061ZM27.0721 16.3337C20.9931 17.0755 15.8111 22.5366 16.6444 29.5562C17.3611 35.5918 22.9125 40.78 29.8511 39.948C35.884 39.226 41.0638 33.679 40.2327 26.7255C39.5138 20.703 33.9734 15.4906 27.0721 16.3337ZM31.6232 50.8505C31.6407 49.8049 31.7529 49.325 29.7412 49.3228C28.8046 49.3228 27.8658 49.3294 26.927 49.3294C22.9718 49.3294 14.0105 49.7763 11.4953 48.559C9.36274 47.5289 7.42141 45.1648 7.2829 41.9863C7.04985 36.6132 7.27411 26.3028 7.27411 20.3552C7.27411 15.4928 6.15064 6.96763 15.4813 6.94781L37.2932 6.95002C43.3173 6.95002 49.6096 6.40632 49.603 16.2478V37.8701C49.603 41.8652 49.9811 44.1368 47.6836 46.7541C45.1729 49.6178 43.746 48.9927 39.439 49.325C37.8165 49.4505 37.291 51.4954 40.092 51.4976C41.9146 51.4998 43.5306 51.5108 45.1861 50.9627C52.6788 48.482 51.762 40.9935 51.762 35.9242C51.762 28.8408 52.0038 21.326 51.7554 14.2976C51.6344 10.8769 49.9459 8.44902 48.2157 7.03806C45.5686 4.8787 43.724 4.78845 39.6677 4.79065C32.397 4.79065 25.1264 4.79065 17.8558 4.79065C14.2347 4.79065 11.3766 4.86769 9.01536 6.74751C7.2829 8.12765 5.43171 10.2804 5.15469 13.657C4.89966 16.7673 5.11292 30.9738 5.11292 35.2771C5.11292 38.3279 4.75675 42.7941 5.81206 45.3893C8.71636 52.5344 15.6001 51.4932 21.3119 51.4932L29.5213 51.4976C30.7525 51.5042 30.8449 51.6583 31.6232 50.8527V50.8505Z" fill="#1C2C3C"/>
</svg>
