<svg width="38" height="37" viewBox="0 0 38 37" fill="none" xmlns="http://www.w3.org/2000/svg">
<path fill-rule="evenodd" clip-rule="evenodd" d="M19.7394 14.8591C19.8102 15.3877 19.6686 16.2918 19.8992 16.7154C20.6082 18.0168 21.4141 15.7747 23.3891 14.9413C25.3858 14.0988 27.8208 14.463 29.3288 16.0179C31.354 18.107 31.0892 19.4758 31.0892 22.2487C31.0892 24.8778 31.0892 27.5058 31.0892 30.1737L27.2546 30.1828C27.2546 27.4898 27.2488 24.7968 27.2557 22.1049C27.2614 19.7669 26.3538 17.6275 23.6722 17.6298C20.9438 17.6321 20.0442 19.7132 20.0511 22.1049C20.0591 24.7808 20.0522 27.4578 20.0522 30.1737L16.2164 30.1828L16.2701 14.8466L19.7383 14.8591H19.7394ZM7.01058 0.1485C6.16123 0.589157 6.8245 1.78213 7.66586 1.37458C8.44101 0.998991 7.9193 -0.322981 7.01058 0.1485ZM30.8026 35.4056C29.9533 35.8463 30.6166 37.0393 31.4579 36.6317C32.2319 36.2573 31.7125 34.933 30.8026 35.4056ZM7.41243 9.34979C6.89186 6.20582 11.5599 5.52886 12.0256 8.52669C12.5165 11.6832 7.89076 12.2335 7.41243 9.34979ZM8.69901 5.32565C3.75817 6.83142 6.10415 13.923 10.8121 12.5337C15.4733 11.1581 13.4378 3.88153 8.69901 5.32565ZM7.83824 14.8523L11.6306 14.8477L11.6329 30.1874L7.79829 30.1337L7.83824 14.8512V14.8523ZM6.70007 31.4808C7.42613 31.7548 12.303 31.7594 12.8807 31.3712C13.3031 30.9283 13.0542 17.7657 13.0679 15.3694C13.0725 14.5623 13.3225 13.5611 12.3259 13.4253C11.6831 13.3374 10.3441 13.4162 9.62713 13.4162C5.82332 13.4162 6.36672 11.98 6.36672 20.9598C6.36672 22.775 6.36672 24.5913 6.36672 26.4064C6.36672 27.5115 6.0231 30.7525 6.70007 31.482V31.4808ZM2.53894 35.0712C2.07773 34.3017 2.31747 13.6627 2.31747 9.92401C2.31747 8.54154 1.99896 2.38603 2.60972 1.61774C3.48647 1.25128 4.8541 1.85291 5.13037 0.95561C5.48427 -0.192838 3.66456 -0.0124657 3.05266 0.0537471C0.521735 0.328872 0.888188 2.25475 0.885905 4.19318L0.883622 29.4157C0.883622 36.9753 0.205512 36.7276 6.32905 36.7253L28.371 36.6911C29.2798 36.4331 29.2695 35.2709 27.7021 35.2698C24.9748 35.2675 3.3255 35.5426 2.53666 35.0723L2.53894 35.0712ZM35.9216 1.68852C36.3828 2.4591 36.1419 23.0969 36.1419 26.8357C36.1419 28.2193 36.4604 34.3713 35.8485 35.1408C34.9706 35.5084 33.603 34.9056 33.3267 35.8029C32.9728 36.9525 34.8176 36.7676 35.4284 36.7173C37.9068 36.5107 37.5712 34.417 37.5723 32.5665L37.5735 7.344C37.5735 -0.219095 38.2504 0.0320567 32.128 0.0343399C31.015 0.0343399 10.7071 -0.0752536 10.1317 0.0971278C9.11113 0.401935 9.27323 1.49102 10.7573 1.49216C13.4846 1.49444 35.1304 1.21589 35.9193 1.68852H35.9216ZM21.324 14.4619C20.8251 13.5954 21.9062 13.4116 18.801 13.415C17.9551 13.4162 15.7952 13.2678 15.1331 13.5509C14.4755 14.2541 14.7883 20.953 14.7883 22.3926C14.7883 23.7705 14.5931 30.6452 14.9698 31.3872C15.6365 31.7742 20.6812 31.7708 21.3137 31.3541C21.6721 30.6121 21.4883 25.4635 21.4883 24.2556C21.4883 22.4211 20.9141 19.0477 23.6734 19.0682C26.3904 19.0888 25.8241 22.4462 25.8241 24.2556C25.8241 25.4977 25.6118 30.6098 26.0056 31.3872C26.7705 31.8313 29.5241 31.6053 30.5526 31.6178C33.079 31.6475 32.5219 31.1931 32.5253 28.8414C32.5287 25.9578 32.7297 22.2065 32.4956 19.4244C32.2936 17.0168 30.8175 14.89 28.6701 13.8089C25.9771 12.4515 23.7601 13.0098 21.3251 14.4619H21.324Z" fill="#1C2C3C"/>
</svg>
