<svg width="38" height="37" viewBox="0 0 38 37" fill="none" xmlns="http://www.w3.org/2000/svg">
<path fill-rule="evenodd" clip-rule="evenodd" d="M19.3068 14.8591C19.3776 15.3877 19.236 16.2918 19.4666 16.7154C20.1756 18.0168 20.9815 15.7747 22.9565 14.9413C24.9531 14.0988 27.3882 14.463 28.8962 16.0179C30.9214 18.107 30.6566 19.4758 30.6566 22.2487C30.6566 24.8778 30.6566 27.5058 30.6566 30.1737L26.8219 30.1828C26.8219 27.4898 26.8162 24.7968 26.8231 22.1049C26.8288 19.7669 25.9212 17.6275 23.2396 17.6298C20.5112 17.6321 19.6116 19.7132 19.6185 22.1049C19.6264 24.7808 19.6196 27.4578 19.6196 30.1737L15.7838 30.1828L15.8375 14.8466L19.3057 14.8591H19.3068ZM6.57797 0.1485C5.72862 0.589157 6.39189 1.78213 7.23324 1.37458C8.00839 0.998991 7.48668 -0.322981 6.57797 0.1485ZM30.37 35.4056C29.5207 35.8463 30.184 37.0393 31.0253 36.6317C31.7993 36.2573 31.2799 34.933 30.37 35.4056ZM6.97981 9.34979C6.45924 6.20582 11.1272 5.52886 11.593 8.52669C12.0839 11.6832 7.45814 12.2335 6.97981 9.34979ZM8.26639 5.32565C3.32555 6.83142 5.67154 13.923 10.3795 12.5337C15.0406 11.1581 13.0052 3.88153 8.26639 5.32565ZM7.40563 14.8523L11.198 14.8477L11.2003 30.1874L7.36567 30.1337L7.40563 14.8512V14.8523ZM6.26745 31.4808C6.99351 31.7548 11.8704 31.7594 12.4481 31.3712C12.8705 30.9283 12.6216 17.7657 12.6353 15.3694C12.6399 14.5623 12.8899 13.5611 11.8933 13.4253C11.2505 13.3374 9.91144 13.4162 9.19451 13.4162C5.3907 13.4162 5.9341 11.98 5.9341 20.9598C5.9341 22.775 5.9341 24.5913 5.9341 26.4064C5.9341 27.5115 5.59048 30.7525 6.26745 31.482V31.4808ZM2.10632 35.0712C1.64512 34.3017 1.88485 13.6627 1.88485 9.92401C1.88485 8.54154 1.56635 2.38603 2.1771 1.61774C3.05385 1.25128 4.42149 1.85291 4.69775 0.95561C5.05165 -0.192838 3.23194 -0.0124657 2.62004 0.0537471C0.0891179 0.328872 0.455571 2.25475 0.453288 4.19318L0.451005 29.4157C0.451005 36.9753 -0.227105 36.7276 5.89643 36.7253L27.9384 36.6911C28.8471 36.4331 28.8369 35.2709 27.2694 35.2698C24.5422 35.2675 2.89288 35.5426 2.10404 35.0723L2.10632 35.0712ZM35.489 1.68852C35.9502 2.4591 35.7093 23.0969 35.7093 26.8357C35.7093 28.2193 36.0278 34.3713 35.4159 35.1408C34.538 35.5084 33.1704 34.9056 32.8941 35.8029C32.5402 36.9525 34.385 36.7676 34.9958 36.7173C37.4742 36.5107 37.1386 34.417 37.1397 32.5665L37.1409 7.344C37.1409 -0.219095 37.8178 0.0320567 31.6954 0.0343399C30.5824 0.0343399 10.2745 -0.0752536 9.6991 0.0971278C8.67851 0.401935 8.84062 1.49102 10.3247 1.49216C13.052 1.49444 34.6978 1.21589 35.4867 1.68852H35.489ZM20.8913 14.4619C20.3925 13.5954 21.4735 13.4116 18.3684 13.415C17.5225 13.4162 15.3626 13.2678 14.7004 13.5509C14.0429 14.2541 14.3557 20.953 14.3557 22.3926C14.3557 23.7705 14.1605 30.6452 14.5372 31.3872C15.2039 31.7742 20.2486 31.7708 20.8811 31.3541C21.2395 30.6121 21.0557 25.4635 21.0557 24.2556C21.0557 22.4211 20.4815 19.0477 23.2407 19.0682C25.9578 19.0888 25.3915 22.4462 25.3915 24.2556C25.3915 25.4977 25.1792 30.6098 25.573 31.3872C26.3379 31.8313 29.0914 31.6053 30.12 31.6178C32.6464 31.6475 32.0893 31.1931 32.0927 28.8414C32.0961 25.9578 32.2971 22.2065 32.063 19.4244C31.861 17.0168 30.3849 14.89 28.2375 13.8089C25.5445 12.4515 23.3275 13.0098 20.8925 14.4619H20.8913Z" fill="#1C2C3C"/>
</svg>
