<svg width="57" height="56" viewBox="0 0 57 56" fill="none" xmlns="http://www.w3.org/2000/svg">
<path fill-rule="evenodd" clip-rule="evenodd" d="M29.2719 22.8048C29.3788 23.6028 29.165 24.9679 29.5134 25.6074C30.5845 27.5723 31.8022 24.1871 34.786 22.9289C37.8027 21.6569 41.4816 22.2067 43.7601 24.5543C46.8198 27.7085 46.4197 29.7751 46.4197 33.9618C46.4197 37.9312 46.4197 41.899 46.4197 45.9271L40.6262 45.9409C40.6262 41.8749 40.6175 37.8089 40.6279 33.7446C40.6365 30.2146 39.2653 26.9846 35.2138 26.988C31.0916 26.9915 29.7324 30.1336 29.7428 33.7446C29.7548 37.7847 29.7445 41.8266 29.7445 45.9271L23.9492 45.9409L24.0303 22.7858L29.2702 22.8048H29.2719ZM10.0406 0.594326C8.75735 1.25964 9.75945 3.06082 11.0306 2.44549C12.2017 1.87842 11.4135 -0.117527 10.0406 0.594326ZM45.9868 53.8264C44.7035 54.4917 45.7056 56.2929 46.9768 55.6776C48.1462 55.1122 47.3614 53.1128 45.9868 53.8264ZM10.6477 14.4867C9.86121 9.73982 16.9138 8.71772 17.6176 13.2439C18.3592 18.0097 11.3704 18.8405 10.6477 14.4867ZM12.5915 8.41091C5.12669 10.6844 8.67111 21.3914 15.7841 19.2938C22.8264 17.2169 19.7511 6.23054 12.5915 8.41091ZM11.2911 22.7945L17.0208 22.7876L17.0242 45.9478L11.2307 45.8668L11.2911 22.7927V22.7945ZM9.57145 47.9006C10.6684 48.3143 18.0367 48.3212 18.9094 47.7352C19.5476 47.0664 19.1716 27.1931 19.1923 23.5753C19.1992 22.3567 19.5769 20.8451 18.0712 20.6399C17.1001 20.5072 15.077 20.6262 13.9938 20.6262C8.24682 20.6262 9.06781 18.4579 9.06781 32.0158C9.06781 34.7563 9.06781 37.4986 9.06781 40.2392C9.06781 41.9076 8.54865 46.801 9.57145 47.9023V47.9006ZM3.28462 53.3214C2.5878 52.1597 2.95001 20.9985 2.95001 15.3536C2.95001 13.2663 2.4688 3.97261 3.39155 2.81262C4.71619 2.25934 6.78248 3.16768 7.19987 1.81292C7.73456 0.0789653 4.98525 0.351296 4.06077 0.451266C0.236927 0.866657 0.790582 3.77439 0.787132 6.70109L0.783683 44.7826C0.783683 56.1964 -0.240838 55.8223 9.01089 55.8189L42.313 55.7672C43.6859 55.3777 43.6704 53.623 41.3023 53.6213C37.1818 53.6178 4.47299 54.0332 3.28117 53.3231L3.28462 53.3214ZM53.7207 2.91948C54.4175 4.08292 54.0536 35.2424 54.0536 40.8872C54.0536 42.9763 54.5348 52.2648 53.6103 53.4265C52.284 53.9815 50.2177 53.0715 49.8003 54.4262C49.2656 56.1619 52.0528 55.8827 52.9756 55.8068C56.7201 55.4949 56.213 52.3338 56.2147 49.5398L56.2165 11.4583C56.2165 0.0393218 57.2393 0.418517 47.9893 0.421964C46.3076 0.421964 15.6254 0.256498 14.7561 0.516763C13.2142 0.976968 13.4591 2.6213 15.7013 2.62302C19.8218 2.62647 52.5254 2.2059 53.7173 2.91948H53.7207ZM31.6659 22.205C30.9122 20.8968 32.5455 20.6193 27.8541 20.6244C26.5761 20.6262 23.3128 20.4021 22.3124 20.8295C21.3189 21.8913 21.7915 32.0055 21.7915 34.1789C21.7915 36.2593 21.4966 46.6389 22.0658 47.7593C23.073 48.3436 30.6949 48.3384 31.6504 47.7093C32.192 46.589 31.9143 38.8155 31.9143 36.9919C31.9143 34.222 31.0467 29.1287 35.2155 29.1598C39.3205 29.1908 38.465 34.2599 38.465 36.9919C38.465 38.8672 38.1442 46.5855 38.7392 47.7593C39.8948 48.4298 44.055 48.0885 45.609 48.1075C49.426 48.1523 48.5843 47.4663 48.5895 43.9156C48.5946 39.5618 48.8982 33.898 48.5446 29.6975C48.2393 26.0624 46.0092 22.8513 42.7649 21.2191C38.6961 19.1697 35.3466 20.0126 31.6676 22.205H31.6659Z" fill="#1C2C3C"/>
</svg>
