<svg width="105" height="23" viewBox="0 0 105 23" fill="none" xmlns="http://www.w3.org/2000/svg">
<g clip-path="url(#clip0_492_161)">
<path d="M85.8439 8.26488C85.6724 8.30387 85.4936 8.3183 85.3184 8.3183H85.1643C84.793 8.3183 84.6563 8.23657 84.6563 7.81349V7.67139H85.29C85.4825 7.67139 85.5809 7.60729 85.5809 7.44704V7.27289H84.6563C84.6563 7.12011 84.6668 6.88187 84.6915 6.70398H85.5146C85.7355 6.70398 85.837 6.61851 85.837 6.4481V6.28464H84.5832C84.387 6.28464 84.2539 6.35943 84.2155 6.6511C84.1877 6.84661 84.1698 7.10622 84.1698 7.33753V7.78945C84.1698 8.41178 84.478 8.73924 85.0628 8.73924H85.3184C85.7387 8.73924 85.837 8.6324 85.8402 8.43689L85.8439 8.26648V8.26488ZM82.1948 8.87599C82.1002 8.10783 81.7394 7.05868 81.5227 6.66338C81.4564 6.54586 81.3265 6.43956 81.134 6.43956H80.9378C80.5702 6.85569 80.1221 8.28892 80.1221 8.64148C80.1221 8.79052 80.1852 8.87599 80.3424 8.87599H80.5281C80.5633 8.66979 80.6054 8.45986 80.6543 8.25366H81.6105C81.6352 8.35676 81.6563 8.48122 81.6773 8.64148C81.6947 8.75847 81.7998 8.87599 81.9997 8.87599H82.1959H82.1948ZM81.5016 7.86584H80.759C80.8395 7.5277 80.9899 7.14041 81.1303 6.88774C81.2565 7.11531 81.4212 7.52449 81.5016 7.86584ZM82.9406 8.87599V6.69917C82.9406 6.54266 82.8076 6.43956 82.685 6.43956H82.4678V8.55227C82.4678 8.76541 82.6182 8.87599 82.7587 8.87599H82.9406ZM88.2638 8.59554C88.1133 8.47855 87.9066 8.28251 87.7173 8.00152L87.3986 7.52877C87.8151 7.04853 88.0781 6.70024 88.0781 6.52556C88.0781 6.38347 88.015 6.27984 87.8646 6.27984H87.6826C87.63 6.49351 87.5322 6.66766 87.133 7.13721L86.8421 6.69597C86.597 6.32631 86.464 6.28357 86.3551 6.28357H86.0258C86.0679 6.44704 86.1973 6.6714 86.4529 7.03411L86.7364 7.43635L86.5087 7.68528C86.2673 7.94864 86.1621 8.13347 86.1095 8.26488C86.0711 8.35729 86.0569 8.43208 86.0569 8.53144C86.0569 8.6308 86.1305 8.72001 86.2531 8.72001H86.4876C86.5507 8.4855 86.6628 8.23283 86.9989 7.82738L87.3002 8.27556C87.5385 8.63133 87.6994 8.74885 87.9198 8.74885C88.1123 8.74885 88.1896 8.68475 88.2627 8.59607L88.2638 8.59554ZM90.2355 7.02342C90.2355 6.53625 89.9026 6.26595 89.4371 6.26595H89.1673C88.9959 6.26595 88.6772 6.33005 88.5441 6.37973V8.37172C88.5441 8.63133 88.7013 8.72001 88.8349 8.72001H89.0243V7.77396C89.1226 7.82738 89.2589 7.85569 89.4272 7.85569C89.8858 7.85569 90.2361 7.53892 90.2361 7.02342H90.2355ZM89.7417 7.06616C89.7417 7.30067 89.6086 7.4433 89.3635 7.4433C89.241 7.4433 89.1079 7.42567 89.0238 7.40056V6.71039C89.08 6.69971 89.1637 6.67834 89.2231 6.67834H89.3772C89.6291 6.67834 89.7411 6.78892 89.7411 7.06616H89.7417ZM92.1721 8.26488C92.0006 8.30387 91.8218 8.3183 91.6467 8.3183H91.4926C91.1212 8.3183 90.985 8.23657 90.985 7.81349V7.67139H91.6188C91.8113 7.67139 91.9096 7.60729 91.9096 7.44704V7.27289H90.985C90.985 7.12011 90.9955 6.88187 91.0203 6.70398H91.8428C92.0637 6.70398 92.1652 6.61851 92.1652 6.4481V6.28464H90.9114C90.7152 6.28464 90.5821 6.35943 90.5437 6.6511C90.5159 6.84661 90.498 7.10622 90.498 7.33753V7.78945C90.498 8.41178 90.8062 8.73924 91.3911 8.73924H91.6467C92.0669 8.73924 92.1647 8.6324 92.1684 8.43689L92.1721 8.26648V8.26488ZM94.2906 8.65964C94.2627 8.61691 94.2028 8.5496 94.1439 8.40697L93.9514 7.95184C93.8919 7.80975 93.7831 7.66338 93.6537 7.6105C93.934 7.56776 94.1475 7.29372 94.1475 6.96306C94.1475 6.55387 93.8357 6.26221 93.3597 6.26221H93.0935C92.9147 6.26221 92.5786 6.31189 92.4771 6.35142V8.39308C92.4771 8.5886 92.5892 8.72054 92.8027 8.72054H92.9568V7.74244C93.0057 7.74244 93.0899 7.75687 93.1951 7.77449C93.3213 7.79586 93.4228 7.81349 93.5311 8.08058L93.71 8.52182C93.7731 8.67834 93.9061 8.7387 94.0602 8.7387C94.1933 8.7387 94.2354 8.72108 94.2911 8.66018L94.2906 8.65964ZM93.3029 6.68208C93.5127 6.68208 93.66 6.74618 93.66 7.04159C93.66 7.25847 93.4954 7.37225 93.2992 7.37225C93.1698 7.37225 93.0609 7.37225 92.9563 7.35088V6.70719C93.0089 6.69276 93.1246 6.68208 93.1698 6.68208H93.3029ZM96.2797 6.43689V6.28411H94.6688C94.4726 6.28411 94.3779 6.43368 94.3779 6.55067V6.71093H95.068V8.39308C95.068 8.60996 95.1905 8.72054 95.3588 8.72054H95.5513V6.71093H95.9926C96.1498 6.71093 96.2797 6.55441 96.2797 6.43689Z" fill="#EBECEC"/>
<path d="M76.9729 9.49303L76.9666 16.4118H76.9671V16.4188C76.9671 17.6741 77.2853 18.665 77.9317 19.3371C78.5781 20.0091 79.5632 20.3723 80.897 20.3739V20.3728H80.9038C81.6417 20.3728 82.1971 20.2131 82.5664 19.9273C82.934 19.6426 83.1202 19.2243 83.1207 18.7083L83.1212 18.0053C82.9287 18.0945 82.7057 18.1634 82.4549 18.2137C82.1035 18.2836 81.6949 18.3168 81.2347 18.3168C80.6214 18.3168 80.1333 18.1549 79.7915 17.7836C79.4575 17.4204 79.2792 16.8664 79.2797 16.078L79.2839 11.4594H81.6928C82.1456 11.4594 82.4833 11.329 82.7163 11.1394C82.9955 10.9129 83.1275 10.6031 83.1281 10.3376L83.1291 9.40383H79.286L79.2881 6.70137H78.861C78.6927 6.70137 78.5076 6.76707 78.3246 6.87605C78.1116 7.00318 77.9038 7.18694 77.7255 7.39848C77.442 7.73556 77.2522 8.00105 77.1365 8.305C77.0202 8.61002 76.9724 8.96846 76.9724 9.49357L76.9729 9.49303ZM76.5469 16.4118L76.5532 9.49303C76.5537 8.91237 76.6095 8.50799 76.7457 8.15062C76.8824 7.79165 77.0939 7.49303 77.4073 7.12071C77.6146 6.87551 77.8591 6.6597 78.1137 6.50799C78.3603 6.36109 78.6175 6.27295 78.8626 6.27295H79.7099L79.7078 8.97541H83.5509L83.5499 10.3376C83.5494 10.719 83.3663 11.1586 82.9803 11.4722C82.6773 11.7179 82.2513 11.8873 81.6949 11.8873H79.7057L79.702 16.0774C79.7015 16.75 79.8409 17.2083 80.1018 17.492C80.3558 17.7676 80.7408 17.8878 81.2368 17.8878C81.6717 17.8878 82.0536 17.8568 82.3765 17.7927C82.6805 17.7324 82.9303 17.6431 83.1207 17.524L83.1728 17.4914H83.5441L83.543 18.7072C83.5425 19.3616 83.3006 19.8969 82.8235 20.266C82.3807 20.6084 81.7396 20.8002 80.9059 20.8002H80.8991V20.7997C79.4449 20.7981 78.3593 20.3894 77.6324 19.6341C76.9056 18.8787 76.5474 17.7868 76.5474 16.4182V16.4113H76.5479L76.5469 16.4118ZM93.0306 16.6207L93.0333 14.0326H93.0322V14.0235C93.0322 12.156 92.5073 10.9482 91.69 10.2115C90.8721 9.47434 89.7524 9.19603 88.5695 9.19496V9.19603H88.5622C87.3094 9.19603 86.4079 9.47861 85.7957 9.89688C85.0567 10.4022 84.7417 11.1057 84.7412 11.7372L84.7406 12.2142C85.0257 11.9567 85.4433 11.6848 86.0055 11.4775C86.5683 11.2703 87.2789 11.1266 88.1488 11.1266C89.0182 11.1266 89.6561 11.2596 90.0885 11.6127C90.5319 11.9743 90.7412 12.5438 90.7407 13.407L90.7401 13.7671H89.5646C87.7033 13.7671 86.4126 14.0881 85.5706 14.6271C84.6444 15.2201 84.2646 16.0871 84.2636 17.0806H84.2641V17.0838C84.2641 18.0481 84.6859 18.8809 85.4144 19.4733C86.1575 20.0774 87.2194 20.4353 88.4828 20.4369V20.4364H89.0439C90.2231 20.4364 91.2224 20.0449 91.924 19.3707C92.6214 18.7008 93.0291 17.7484 93.0301 16.6218L93.0306 16.6207ZM93.453 14.0326L93.4509 16.6207C93.4498 17.8707 92.9938 18.9311 92.2133 19.6805C91.4339 20.4284 90.3346 20.8632 89.045 20.8632H88.4838V20.8627C87.1216 20.8616 85.9687 20.4679 85.1535 19.8055C84.3236 19.1309 83.8434 18.1821 83.8434 17.0833V17.0801H83.8439C83.8449 15.9412 84.282 14.9466 85.347 14.2649C86.2543 13.6843 87.6202 13.3381 89.5652 13.3381H90.3209C90.312 12.6538 90.1521 12.2104 89.8255 11.9444C89.4779 11.6608 88.9235 11.5539 88.1493 11.5539C87.3309 11.5539 86.6693 11.6869 86.1491 11.8782C85.4543 12.1341 85.0162 12.4904 84.7974 12.7676L84.7343 12.8477H84.3209L84.322 11.7361C84.3225 10.977 84.6933 10.1357 85.5627 9.54165C86.2391 9.07904 87.2194 8.76707 88.5627 8.76707H88.5701V8.76761C89.8481 8.76868 91.0652 9.07637 91.9693 9.89154C92.8734 10.7072 93.4551 12.0192 93.4551 14.0229V14.032H93.4545L93.453 14.0326ZM90.758 16.6421C90.7575 17.2762 90.5923 17.7601 90.2568 18.0919C89.9228 18.422 89.4321 18.5887 88.7794 18.5887H88.7752V18.5881C88.1246 18.5876 87.6055 18.4428 87.2452 18.1773C86.8639 17.8958 86.6593 17.4882 86.6593 16.9781H86.6588V16.9765H86.6593C86.6598 16.4391 86.8371 16.0224 87.3257 15.7377C87.7701 15.4786 88.477 15.3429 89.5631 15.3429H90.7596L90.7585 16.6426L90.758 16.6421ZM89.9638 17.7858C90.2142 17.5379 90.3378 17.156 90.3383 16.6421L90.3388 15.7708H89.5625C88.5522 15.7708 87.9126 15.8862 87.5345 16.1068C87.2005 16.3018 87.079 16.5951 87.079 16.9765H87.0795V16.9781H87.079C87.079 17.3429 87.2231 17.633 87.4919 17.8312C87.7817 18.0449 88.2166 18.1613 88.7747 18.1618V18.1608H88.7789C89.318 18.1608 89.7114 18.0352 89.9633 17.7863L89.9638 17.7858ZM104.569 19.3969C104.134 19.282 103.783 19.1004 103.408 18.7543C103.002 18.3787 102.572 17.8093 101.968 16.9086L100.664 14.9759L100.773 14.8509C101.112 14.4637 101.422 14.1036 101.69 13.7783C101.971 13.4396 102.226 13.1186 102.45 12.8184L102.451 12.8168C102.871 12.2617 103.181 11.7756 103.39 11.3664C103.602 10.9503 103.704 10.625 103.704 10.4006H103.704V10.399C103.704 10.1341 103.637 9.88566 103.49 9.70885C103.346 9.53577 103.117 9.42466 102.787 9.42412V9.42519H101.913C101.82 9.9284 101.688 10.3408 101.39 10.8515C101.065 11.4054 100.544 12.0673 99.6508 13.0887L99.474 13.2906L98.1923 11.4423C97.589 10.5732 97.1262 10.0555 96.7517 9.75746C96.4067 9.48288 96.1464 9.40436 95.9207 9.40436H94.5133C94.6495 10.1341 95.2733 11.0534 96.3015 12.5694L96.4193 12.743L97.6858 14.5961L96.6649 15.7024C95.9865 16.4423 95.4605 17.0833 95.106 17.7003C94.7615 18.2997 94.5806 18.876 94.5801 19.5021H94.5811V19.5032C94.5811 19.7206 94.6769 19.914 94.8341 20.0539C94.9998 20.2008 95.2333 20.2906 95.4984 20.2911V20.29H96.574C96.6213 20.0064 96.6797 19.7398 96.7612 19.4754C96.8611 19.1528 96.9958 18.836 97.1893 18.4978C97.3471 18.2206 97.5417 17.9215 97.7863 17.5881C98.0282 17.258 98.3201 16.8931 98.6741 16.4818L98.8555 16.2708L100.218 18.3622C100.687 19.0833 101.113 19.6036 101.559 19.9396C101.988 20.2628 102.441 20.4161 102.98 20.4161C103.513 20.4161 103.909 20.2938 104.173 20.0892C104.4 19.914 104.532 19.6741 104.569 19.3979V19.3969ZM103.691 18.438C104.052 18.7713 104.388 18.9247 104.833 19.0213L105 19.0571V19.2302C105 19.7104 104.81 20.1325 104.429 20.4273C104.093 20.6869 103.61 20.8429 102.98 20.8429C102.347 20.8429 101.815 20.6624 101.309 20.281C100.819 19.9124 100.363 19.3579 99.8674 18.5967L98.8098 16.9738C98.5442 17.2906 98.3175 17.5774 98.1239 17.8413C97.8904 18.1602 97.7042 18.446 97.5533 18.711C97.3766 19.0197 97.2535 19.3082 97.163 19.6015C97.0715 19.8963 97.0115 20.1998 96.9616 20.5352L96.9342 20.7174H95.4984V20.7169C95.1276 20.7163 94.7968 20.5871 94.5575 20.3744C94.3097 20.1544 94.1593 19.8477 94.1593 19.5026V19.5016H94.1598C94.1604 18.7922 94.3608 18.1469 94.7421 17.484C95.1134 16.8381 95.6572 16.1741 96.3573 15.4113L97.1467 14.5555L96.0733 12.985L95.9554 12.8114C94.7752 11.0721 94.1083 10.0892 94.0668 9.2003L94.0562 8.97594H95.9207C96.2295 8.97594 96.5755 9.07476 97.0105 9.42092C97.4165 9.7441 97.9083 10.2911 98.5368 11.196L99.5124 12.6031C100.282 11.7147 100.742 11.1234 101.029 10.6335C101.328 10.1228 101.441 9.71472 101.529 9.17573L101.559 8.99677H102.786V8.99731C103.256 8.99784 103.591 9.16825 103.81 9.43267C104.027 9.69282 104.125 10.039 104.125 10.399V10.4006H104.124C104.124 10.6928 104.007 11.0849 103.763 11.5625C103.544 11.9925 103.22 12.501 102.783 13.078C102.555 13.3825 102.296 13.7083 102.011 14.0529C101.749 14.3702 101.477 14.6891 101.197 15.0101L102.315 16.6677C102.901 17.5406 103.312 18.0887 103.691 18.438Z" fill="#EBECEC"/>
<path fill-rule="evenodd" clip-rule="evenodd" d="M60.6891 14.6219L60.4945 14.5124L60.2972 14.6219H60.2967L60.1005 14.7309L60.0947 15.2117L60.0353 15.2752C59.7155 15.616 59.4825 15.9958 59.3258 16.4061C59.1601 16.8415 59.0802 17.3126 59.0744 17.8078C59.067 18.4408 59.2038 19.0295 59.4652 19.5562C59.7339 20.0979 60.1342 20.5754 60.6454 20.9713C61.1477 21.3602 61.7573 21.6689 62.4541 21.8789C63.1321 22.0835 63.8942 22.194 64.721 22.194H65.4237C65.6162 22.194 65.8039 22.1866 65.9864 22.1721C66.1737 22.1577 66.3556 22.1358 66.5313 22.107L66.6118 22.0936L67.0436 22.3367L67.438 22.1176L67.4433 21.678L67.2497 21.569H67.2487L67.0541 21.4595L66.8569 21.569H66.8558L66.6596 21.678L66.6565 21.9376L66.4635 21.9675C66.2925 21.9942 66.1211 22.014 65.9507 22.0268C65.7766 22.0396 65.6014 22.0466 65.4247 22.0466H64.722C63.921 22.0466 63.1805 21.9403 62.5194 21.7437C61.8325 21.5396 61.2324 21.2378 60.7401 20.8564C60.2494 20.4766 59.8644 20.0172 59.6056 19.4964C59.3516 18.9852 59.2185 18.4168 59.2259 17.8083C59.2311 17.3463 59.3058 16.9034 59.4599 16.4894C59.6072 16.0941 59.827 15.7271 60.1284 15.397L60.2531 15.2608L60.4829 15.3901L60.8779 15.1705L60.8831 14.7309L60.6896 14.6219H60.6885H60.6891ZM30.0636 7.60642L29.8664 7.47875L29.6754 7.60642H29.6749L29.4845 7.73356L29.4966 8.24691L29.8911 8.50279L30.0736 8.38046L30.1972 8.56849C30.5185 9.05728 30.7778 9.60963 30.9593 10.2202C31.1307 10.7987 31.2323 11.428 31.248 12.1021C31.257 12.4814 31.2307 12.827 31.1676 13.1422C31.1034 13.4638 31.0003 13.7528 30.8583 14.0113L30.7463 14.2143L30.5338 14.0765L30.3423 14.2047H30.3418L30.1514 14.3318L30.1635 14.8452L30.558 15.1011L30.9404 14.8452L30.9261 14.2325L30.9651 14.1657C31.0476 14.0247 31.1181 13.873 31.1776 13.7106C31.2375 13.5471 31.2848 13.3741 31.3201 13.1914L31.5231 12.1422L31.2612 10.8083C31.176 10.374 31.0534 9.96379 30.8988 9.57918C30.7384 9.18067 30.5443 8.81155 30.3229 8.47341L30.2777 8.40503L30.2619 7.73249L30.0657 7.60535H30.0646L30.0636 7.60642ZM19.4037 13.271L19.2364 14.5653L19.319 15.6775C19.3532 16.1401 19.4194 16.5824 19.5136 17.0033C19.6109 17.4376 19.7392 17.8516 19.8944 18.2426L19.9801 18.4595L19.8271 18.5583L19.8092 19.0712L20.1884 19.327L20.5855 19.0712L20.6034 18.5578L20.4145 18.4307H20.414L20.2236 18.3025L20.1132 18.3735L20.0164 18.1241C19.8113 17.5968 19.6561 17.0274 19.5588 16.4184C19.4657 15.8345 19.4268 15.2191 19.4494 14.5754C19.4941 13.3062 19.6992 12.1508 20.0401 11.1283C20.3945 10.0642 20.8963 9.14542 21.5169 8.39275C21.7257 8.13954 21.9487 7.90503 22.1838 7.69029C22.4195 7.47501 22.6682 7.27896 22.928 7.10375L23.0443 7.02522L23.323 7.21326H23.3241L23.5134 7.34093L23.9105 7.08505L23.9284 6.5717L23.7396 6.44456H23.7385L23.5492 6.31689L23.3504 6.44456H23.3499L23.1521 6.5717L23.1453 6.76775L23.0269 6.84253C22.7292 7.03003 22.4431 7.24531 22.1712 7.48569C21.9019 7.72448 21.6474 7.9889 21.4091 8.2779C20.8874 8.90984 20.4487 9.65503 20.1084 10.5017C19.7745 11.3318 19.5346 12.2587 19.4042 13.271H19.4037ZM75.5455 13.561L75.3588 13.4179L75.6965 4.91358C75.7117 4.53003 75.6802 4.17159 75.5971 3.85428C75.5192 3.55514 75.3951 3.28965 75.2215 3.06956C75.0585 2.86283 74.8523 2.6983 74.5999 2.58612C74.3558 2.47768 74.0676 2.41892 73.7326 2.41892H72.879L72.7443 5.80407L72.4367 6.02629L72.4182 6.49424L72.7228 6.72768L73.0457 6.49424L73.0641 6.02629L72.8632 5.87245L72.9942 2.57597H73.7258C74.0345 2.57597 74.3011 2.62832 74.5294 2.72448C74.7771 2.82918 74.9775 2.98569 75.1332 3.18334C75.2968 3.39061 75.4135 3.64595 75.4856 3.93601C75.5597 4.23249 75.5876 4.56262 75.5739 4.91304L75.24 13.3281L75.079 13.444H75.0785L74.9176 13.5599L74.8991 14.0279L75.2037 14.2613L75.5271 14.0279L75.5455 13.5599V13.561ZM32.5334 12.0097C32.5371 8.12565 29.4561 5.71646 26.1358 5.71646C21.57 5.71646 18.306 9.11924 18.3013 14.5391C18.2965 19.5076 22.1775 22.6994 26.15 22.6994C30.5375 22.6994 31.9323 21.1038 31.9344 19.0258L31.9354 17.7608H31.7871C31.5026 18.0295 31.1839 18.2549 30.842 18.443C30.8215 18.8286 30.7521 19.193 30.6243 19.5274C30.4565 19.9659 30.1872 20.3591 29.7938 20.6892H29.7927C29.514 20.9227 29.1726 21.1235 28.7603 21.2848C28.3401 21.4494 27.8472 21.5728 27.2729 21.6486L27.0725 21.6753L27.0778 21.8906L26.6954 22.1454L26.3015 21.8906L26.2899 21.3789L26.4803 21.2523H26.4814L26.6723 21.1246L26.8695 21.2523H26.8706L27.2271 21.4825L27.2997 21.4729C27.8378 21.3992 28.3006 21.2827 28.6961 21.1294C29.0985 20.9734 29.4314 20.7779 29.7028 20.5503C30.0741 20.2389 30.3292 19.8628 30.4886 19.4387C30.5964 19.1524 30.6595 18.8468 30.6853 18.5263C29.5255 19.1139 28.1286 19.2966 26.8958 19.2966C24.5538 19.2966 22.7171 18.0017 22.4221 15.9542H22.5762C22.4726 15.6849 22.3963 15.396 22.3495 15.0899L22.3348 14.9916H24.8567L24.852 14.7891L25.0424 14.662H25.0429L25.2338 14.5343L25.431 14.662H25.4321L25.6283 14.7891L25.6404 15.3009L25.258 15.5557L24.8641 15.3009L24.8609 15.1636H22.501L22.5867 15.4884C22.6293 15.6497 22.6809 15.8051 22.7419 15.9542H25.0313C30.3082 15.9542 32.5329 14.9905 32.5356 12.0097H32.5334ZM28.7987 11.5279C28.7982 12.1395 28.552 12.5445 27.7484 12.7891V12.795L27.366 13.0509L27.1672 12.9221C26.4719 13.0413 25.5036 13.0936 24.1719 13.0936H22.3932L22.4231 12.5519C22.4379 12.248 22.4857 11.952 22.5636 11.6679L22.46 11.6005L22.4479 11.0872L22.6382 10.9601H22.6388L22.9107 10.7784L22.9391 10.7255C23.1963 10.2432 23.5492 9.84253 23.9763 9.56849C24.2587 9.38687 24.5748 9.26027 24.9188 9.20097L24.9209 9.20044C25.1902 9.12779 25.4763 9.08933 25.7766 9.08933C27.6142 9.08933 28.7997 9.90236 28.7982 11.5284L28.7987 11.5279ZM47.148 15.0509L47.1538 8.9686C47.1553 7.0717 46.1781 6.07811 43.8655 6.07811H43.1539L43.1455 15.2015C43.1439 16.8206 42.7479 17.8842 42.0936 18.4884C42.1704 18.4627 42.2456 18.4333 42.3193 18.4002C42.6385 18.2555 42.9167 18.037 43.1434 17.7394L43.1918 17.6759V17.6721C43.3906 17.3922 43.5489 17.0466 43.6594 16.6305C43.7703 16.2111 43.8335 15.7207 43.8408 15.1545L43.9176 9.08399L43.5984 8.90503L43.6041 8.42907L43.8177 8.31102H43.8187L44.0328 8.19243L44.2442 8.31102H44.2453L44.4557 8.42907L44.4499 8.90503L44.0833 9.10749L44.0065 15.154C43.9991 15.7523 43.9302 16.2693 43.8077 16.7111C43.6893 17.139 43.5216 17.4942 43.3133 17.7827L43.276 17.8313C43.0319 18.1518 42.7379 18.3853 42.405 18.5396C42.2093 18.6305 41.9989 18.6946 41.7759 18.7336C41.3683 18.9937 40.8871 19.1155 40.3559 19.1155C38.5477 19.1155 37.1255 17.9109 37.1281 14.9301L37.1339 8.96807C37.1345 8.23196 36.983 7.63153 36.6642 7.17266C36.6132 7.1561 36.5617 7.14061 36.508 7.12565C36.1267 7.02202 35.6765 6.96913 35.1532 6.96913H34.5289L34.4237 15.2629C34.4111 16.256 34.5615 17.147 34.8466 17.9301C35.1485 18.7576 35.6008 19.4627 36.1709 20.0364C36.7026 20.5712 37.338 20.9937 38.0501 21.2971C38.767 21.6027 39.5612 21.7875 40.4048 21.8452L40.6699 21.8634L40.673 21.6235L40.886 21.5055H40.8871L41.1012 21.3869L41.3126 21.5055H41.3136L41.524 21.6235L41.5182 22.0995L41.0901 22.3361L40.5137 22.0124L40.4558 22.0092C39.5738 21.9558 38.7449 21.7672 37.9975 21.4504C37.2612 21.1385 36.6032 20.7015 36.0526 20.147C35.4703 19.5616 35.0075 18.8447 34.6983 18.0049C34.4021 17.202 34.2465 16.2854 34.2591 15.2624L34.3127 11.0172L34.3659 6.80888H35.1553C35.6649 6.80888 36.1094 6.85802 36.4917 6.95471C35.9626 6.37405 35.0959 6.07597 33.8462 6.07597H33.1052L33.0967 15.3201C33.092 20.0477 36.203 22.6972 40.146 22.6972C44.8007 22.6972 47.1448 20.1075 47.1496 15.0493L47.148 15.0509ZM57.7374 10.022L57.7385 8.57651C57.7395 7.342 56.8812 5.92693 54.4208 5.92693C50.2111 5.92693 48.5181 9.02843 48.5155 12.2806L48.5086 19.748C48.5076 20.9985 49.1261 21.818 50.1711 22.1582L50.1669 21.8639L50.3621 21.74H50.3626L50.5588 21.615L50.7586 21.74H50.7597L50.9585 21.8644L50.9637 22.1999L51.1494 22.2416C51.2709 22.2688 51.3971 22.2891 51.527 22.303C51.6638 22.3174 51.7984 22.3238 51.931 22.3238H52.5085L52.5169 13.0033C52.519 10.5343 53.4983 9.54072 55.2771 9.54072C56.1359 9.54072 56.7508 9.70578 57.2736 9.89916L57.2646 9.2779C57.2599 8.9467 57.191 8.60001 57.0437 8.27362C56.9117 7.98196 56.7176 7.70952 56.451 7.48356C56.2075 7.27736 55.9035 7.10749 55.53 6.99317C55.1966 6.89114 54.8084 6.83345 54.3598 6.83345C53.1475 6.83345 52.1761 7.1561 51.4197 7.69937C50.5677 8.31155 49.9939 9.1999 49.6583 10.2218L49.5931 10.4205L49.7882 10.5423L49.7956 11.0434L49.4033 11.2929L49.0035 11.0434L48.9962 10.5423L49.1913 10.4179H49.1918L49.4774 10.2362L49.5053 10.1508C49.8445 9.09841 50.4283 8.18388 51.2967 7.55834C52.0735 6.99798 53.0833 6.66518 54.3572 6.66518C54.8368 6.66518 55.2492 6.72875 55.6021 6.84093C55.9802 6.96112 56.2921 7.13794 56.5441 7.35161C56.8328 7.59627 57.0416 7.8874 57.182 8.19563C57.3403 8.54339 57.4135 8.91732 57.4192 9.27736L57.4292 9.95738C57.4834 9.97875 57.5371 10.0001 57.5896 10.0215H57.738L57.7374 10.022ZM71.1917 17.0979L71.1949 13.3644C71.2002 7.76401 67.9998 6.07757 64.4422 6.07757C60.2325 6.07757 58.6294 8.24584 58.6279 10.0525L58.6268 11.3473H58.7751C58.9676 11.1038 59.2659 10.8217 59.6787 10.5525C59.7208 10.1652 59.8328 9.77095 60.0253 9.39382C60.2509 8.95097 60.586 8.5327 61.0457 8.17854L61.1035 8.1358C61.5285 7.8201 62.0576 7.55674 62.7024 7.37672C63.2957 7.21112 63.9857 7.11657 64.7815 7.11657C65.4052 7.11657 66.0164 7.178 66.5965 7.31689C67.1304 7.44456 67.6368 7.63687 68.1013 7.9061L68.2133 7.97127L68.4521 7.81903L68.6504 7.94296H68.6514L68.8481 8.06582L68.8555 8.56155L68.4673 8.80888L68.0718 8.56155L68.065 8.10215L67.9414 8.03217C67.488 7.77416 66.9994 7.59039 66.4882 7.46967C65.9401 7.34039 65.3663 7.2827 64.7836 7.2827C64.0136 7.2827 63.3451 7.37245 62.7702 7.5295C62.1323 7.70364 61.6095 7.96166 61.1908 8.27309L61.0036 8.41198L61.0078 8.41892C60.6386 8.73035 60.3624 9.08612 60.1689 9.45952C60.0016 9.78217 59.897 10.1171 59.8465 10.4483C60.7133 9.92907 62.0239 9.48142 63.8463 9.48142C66.2184 9.48142 67.2845 10.1737 67.2824 12.4622V12.6732H65.8891C60.019 12.6732 57.942 14.8714 57.9389 17.7619C57.9362 20.7426 60.5434 22.9109 64.3381 22.9109H65.1386C68.6961 22.9109 71.1886 20.5322 71.1917 17.0995V17.0979ZM67.3081 17.1283C67.3066 18.7843 66.4756 19.6273 64.7562 19.6273C63.0069 19.6273 61.9997 18.8746 62.0008 17.6096C62.0018 16.2848 62.8623 15.5621 65.8865 15.5621H67.3097L67.3087 16.7565H67.7894L67.8125 18.3548C67.8251 19.1951 67.6295 19.8174 67.2492 20.2261C66.8579 20.6465 66.2594 20.8554 65.4799 20.8554C65.2285 20.8554 64.9934 20.8372 64.7752 20.8009C64.5564 20.7645 64.3555 20.7111 64.1735 20.6411L64.072 20.6021L63.7811 20.787L63.3767 20.5343L63.3688 20.0268L63.5665 19.9008H63.5671L63.7659 19.7747L63.9684 19.9008H63.9694L64.1708 20.0268L64.1777 20.4707L64.3455 20.5252C64.5064 20.5776 64.6842 20.6171 64.8783 20.6444C65.0692 20.6711 65.269 20.6844 65.4773 20.6844C65.8439 20.6844 66.1637 20.6374 66.4366 20.5445C66.7222 20.4472 66.9568 20.2987 67.1398 20.1011C67.3229 19.9034 67.4564 19.6545 67.5422 19.3538C67.6242 19.0664 67.6621 18.733 67.6563 18.3538L67.6353 16.9253H67.3076V17.1267L67.3081 17.1283ZM75.9784 3.66892C75.98 2.13313 75.1211 0.958984 73.1351 0.958984H72.0085L71.9933 17.7309C71.9912 20.1914 72.9889 21.8051 74.875 22.4595C74.1802 22.0413 73.6437 21.4328 73.2829 20.6427L73.164 20.3826L72.9963 20.4894L72.5692 20.2223L72.5613 19.6871L72.7696 19.5546H72.7706L72.98 19.4211L73.1935 19.5546H73.1945L73.407 19.6871L73.4149 20.2229L73.3087 20.2902L73.4076 20.5129C73.7699 21.3313 74.3211 21.9467 75.0485 22.358C75.2836 22.491 75.5366 22.6021 75.8069 22.6919C76.1961 22.7565 76.6132 22.7891 77.0582 22.7891C78.4667 22.7891 79.3371 22.3399 79.6237 21.2539C77.1123 20.9366 75.8906 19.2704 75.8932 16.6257C75.8969 12.3057 75.9747 7.98249 75.9789 3.66892H75.9784Z" fill="#EBECEC"/>
<path fill-rule="evenodd" clip-rule="evenodd" d="M11.442 19.9291C11.2948 19.7523 11.1443 19.5584 10.9908 19.3463C10.469 18.6267 9.9094 17.6967 9.30246 16.4959L5.76493 9.48784H5.7644C5.51194 8.97395 5.28631 8.53859 5.08487 8.17748C4.93077 7.9013 4.62204 7.40771 4.45636 7.13742L4.61888 7.41359C4.89553 7.88848 5.24213 8.50761 5.6287 9.28966L9.48391 16.8783C10.277 18.4366 11.0007 19.5365 11.6645 20.3356L11.6608 20.3468C11.7939 20.4996 11.9238 20.6417 12.0521 20.7763C12.273 21.0129 12.4871 21.2175 12.6948 21.3965H12.6964C15.6617 23.982 17.1812 21.3682 17.1733 16.5215C16.9597 17.1577 16.732 17.6796 16.4885 18.069L16.4917 18.8003C16.5506 19.5674 16.4107 20.2389 16.1188 20.7453C15.8894 21.1433 15.5665 21.4392 15.1715 21.6006C14.7781 21.7613 14.3158 21.7875 13.8062 21.6465C13.0861 21.4472 12.2704 20.9115 11.4231 19.9467L11.442 19.9302V19.9291ZM15.648 21.7122C15.5365 21.7854 15.4171 21.8484 15.2909 21.8997C15.0321 22.0055 14.7618 22.0557 14.4904 22.0605C14.8928 22.1358 15.2925 22.0573 15.648 21.7122ZM15.9883 19.0418C15.729 19.186 15.4345 19.2405 15.1079 19.1492C14.4736 18.9713 13.9545 18.2859 13.6131 17.7517L13.6068 17.7421L13.601 17.732C13.2886 17.1566 12.9894 16.5738 12.7017 15.9852L12.698 15.9766C12.262 15.0146 11.8701 14.0263 11.4057 13.0787L7.76669 5.65504C7.53527 5.18282 7.27808 4.72289 6.98881 4.28485C6.72057 3.99372 6.4292 3.72502 6.11258 3.48945C5.63133 3.13207 5.10591 2.86338 4.53578 2.68549C3.92095 2.49318 3.28139 2.41412 2.63921 2.41412H2.61291V2.47556L1.80032 2.94083L0.988784 2.47449L0.991414 1.70739C0.74001 2.00173 0.599056 2.41199 0.506489 2.86124C0.360801 3.56904 0.334503 4.35483 0.328718 5.12513C0.639554 4.66626 1.01561 4.24799 1.44636 4.03859C2.21267 3.66626 2.86169 4.06423 3.3098 4.72128C3.59907 5.14543 3.87572 5.57865 4.13817 6.02043V5.91252L4.70882 6.69564L4.72249 6.7106L4.77456 6.77096L4.81138 6.81583L4.81401 6.81957L4.85346 6.86979L4.86345 6.88261L4.86503 6.88474L4.88028 6.90504L4.92025 6.96006L4.96443 7.02417L4.99441 7.07011L5.04911 7.15718L5.06226 7.17855L5.06331 7.18068L5.10118 7.24532L5.15535 7.34041C5.26212 7.51081 5.36415 7.68336 5.46303 7.85857C5.58242 8.07064 5.69708 8.28592 5.80963 8.50173C5.93849 8.74906 6.06472 8.99799 6.18779 9.24853L9.73268 16.2704C10.2087 17.2133 10.7372 18.162 11.3531 19.0188C11.4646 19.1737 11.5793 19.326 11.6987 19.4745L11.8081 19.599C12.3608 20.2288 13.1219 20.9157 13.9429 21.1433C14.2842 21.2378 14.6498 21.2523 14.9827 21.1166C15.2841 20.9932 15.5155 20.764 15.6785 20.4814C15.9473 20.0151 15.9909 19.5381 15.9904 19.0413L15.9883 19.0418ZM2.11326 1.24105L2.13325 1.2528H2.1343L2.61502 1.52898V1.57598H2.63921C3.36975 1.57598 4.09662 1.66733 4.79508 1.88742C4.83978 1.9013 4.88501 1.91626 4.92919 1.93122C4.8524 1.87246 4.77299 1.8169 4.69146 1.76562C3.92358 1.28165 2.99791 1.20205 2.11326 1.24051V1.24105ZM16.296 18.3436C15.6233 19.1956 14.8318 19.0637 13.8798 17.5754C13.5742 17.0119 13.2755 16.4318 12.9873 15.8409C12.5723 14.9253 12.1179 13.8062 11.6908 12.9339L8.05175 5.51028C7.79561 4.98784 7.52422 4.51295 7.23916 4.08239C6.94305 3.75814 6.63116 3.47289 6.30034 3.22769C5.79385 2.85109 5.24003 2.56637 4.62888 2.37513C4.02193 2.18549 3.36186 2.08987 2.63869 2.08987H2.29471L2.29419 2.28539L1.7998 2.56851L1.30698 2.28539L1.30909 1.71701L1.55523 1.57598H1.55628L1.80348 1.43442L2.04962 1.57598H2.05067L2.29577 1.71701L2.29524 1.89917H2.63921C3.39079 1.89917 4.07505 1.99906 4.70093 2.19618C5.32418 2.39276 5.8922 2.68603 6.41552 3.07492C6.46654 3.11284 6.51756 3.15237 6.56805 3.1919C5.39886 1.83613 4.72039 0.766155 1.9518 0.924809C-0.182504 1.04714 0.0468094 3.97769 0 6.3575C1.04085 4.18282 2.16375 3.60964 3.0463 4.90504C3.42708 5.46434 3.78157 6.03111 4.10713 6.60643L4.11239 6.60964L4.12344 6.61658L4.12922 6.62032L4.13448 6.62406L4.14027 6.62727L4.14553 6.63101L4.15079 6.63474L4.15605 6.63848L4.16131 6.64169H4.16183L4.16762 6.64543L4.17235 6.64863L4.17288 6.64917L4.17814 6.65291L4.18392 6.65665L4.18603 6.65825L4.18918 6.66039L4.19444 6.66412L4.1997 6.66786L4.20023 6.6684L4.20601 6.67214L4.21127 6.67588L4.2139 6.67748L4.21706 6.67962L4.22232 6.68389L4.22758 6.68763L4.23336 6.6919L4.23862 6.69618L4.24178 6.69831L4.24441 6.70045L4.24967 6.70472L4.25493 6.709H4.25545L4.26071 6.71274L4.26597 6.71701L4.27123 6.72128L4.27649 6.72609L4.28175 6.73036L4.2828 6.7309L4.28753 6.73464L4.29279 6.73945L4.29648 6.74265L4.29805 6.74425L4.30331 6.74906L4.30857 6.75387L4.30962 6.75494L4.31383 6.75868L4.32488 6.76829L4.33014 6.7731L4.3354 6.77791L4.34066 6.78271L4.34591 6.78752L4.36748 6.80782L4.37274 6.81316L4.38326 6.82331L4.38852 6.82865L4.39378 6.834L4.39904 6.83934L4.40955 6.85002L4.41481 6.85536L4.43638 6.87727L4.44164 6.88261L4.4469 6.88848L4.45216 6.89436V6.89276L4.45794 6.90024L4.45847 6.90077L4.46373 6.90665L4.46951 6.91306L4.47162 6.91519L4.4753 6.91947L4.48108 6.92588L4.48477 6.93068L4.48687 6.93282L4.49265 6.93977L4.49791 6.94618L4.49844 6.94671L4.50423 6.95365L4.51001 6.9606L4.51106 6.9622L4.5158 6.96754L4.52158 6.97449L4.52474 6.97823L4.52789 6.98143L4.53368 6.98838L4.53841 6.99372L4.53946 6.99532L4.54525 7.00227L4.55103 7.00921L4.55156 7.00974L4.55682 7.01615L4.56261 7.02363L4.56471 7.0263L4.56839 7.03111L4.57418 7.03859L4.57786 7.0434L4.57996 7.04607L4.58575 7.05355L4.59101 7.06049L4.59153 7.06103L4.59732 7.06851L4.6031 7.07598L4.60416 7.07759L4.61467 7.09148L4.6173 7.09521L4.62046 7.09895L4.63782 7.12246L4.6436 7.13047L4.64413 7.13101L4.64939 7.13848L4.65517 7.1465L4.65728 7.14917L4.66674 7.16252L4.6699 7.16733L4.672 7.17054L4.67779 7.17855L4.68305 7.18603L4.68357 7.18656L4.68936 7.19511L4.69515 7.20365L4.6962 7.20526L4.70619 7.22021L4.70882 7.22395L4.71198 7.22876L4.71776 7.23731L4.72197 7.24372L4.72355 7.24586L4.72933 7.2544L4.73512 7.26295V7.26348L4.74038 7.27203L4.74616 7.28058L4.74774 7.28325L4.75142 7.28912L4.75668 7.29821L4.75984 7.30355L4.76773 7.31637L4.77246 7.32438L4.77299 7.32545L4.77824 7.33453L4.7835 7.34361L4.78456 7.34521L4.78929 7.35269L4.79455 7.36177L4.79665 7.36551L4.79981 7.37086L4.80507 7.37994L4.80875 7.38688L4.81033 7.38955L4.81559 7.39917L4.82085 7.40878L4.81611 7.41145C4.834 7.43977 4.85293 7.46861 4.87134 7.49853C4.97285 7.65932 5.07593 7.83346 5.18165 8.01989C5.28 8.19457 5.39361 8.40504 5.52299 8.65344C5.65553 8.90771 5.78333 9.16039 5.90693 9.41145L6.01738 9.63688L6.02001 9.63528L9.44446 16.4184C10.0393 17.5957 10.5847 18.5065 11.0912 19.2101C11.2516 19.4328 11.4078 19.6353 11.5609 19.819L11.5656 19.8148C12.3861 20.7496 13.1687 21.2662 13.8545 21.4558C14.3211 21.5851 14.7418 21.5621 15.0968 21.4168C15.4508 21.272 15.7411 21.0049 15.9489 20.6449C16.3849 19.889 16.2971 19.1652 16.2934 18.3431L16.296 18.3436Z" fill="#EBECEC"/>
<path fill-rule="evenodd" clip-rule="evenodd" d="M17.1654 16.5428L17.1611 3.53475C17.1606 2.16082 15.9183 1.06787 14.8422 1.06787H12.9667L12.9951 12.6678C12.9515 13.0476 12.8158 13.2896 12.6685 13.3772L13.0104 14.2201C13.1261 14.4851 13.4774 15.3382 13.5589 15.5289L14.107 16.8109L14.1306 9.87343L13.7241 9.63999L13.7262 9.07161L13.9723 8.93058H13.9734L14.2206 8.78902L14.4667 8.93058H14.4678L14.7129 9.07161L14.7108 9.64052L14.3221 9.86328L14.2953 17.7661L14.1127 17.3462C14.0759 17.2618 14.0181 17.124 13.9476 16.9557C13.8503 16.7239 13.8103 16.6272 13.7704 16.531C13.5279 15.9466 13.2849 15.359 13.0198 14.7848L12.4492 13.4274C12.1694 13.4039 11.8086 13.0834 11.4073 12.359L11.6897 12.9349C12.051 13.6715 12.679 15.1779 13.054 15.9797L13.0677 16.0075L13.0814 16.0348L13.095 16.0625L13.1087 16.0898L13.1224 16.1176L13.1361 16.1448L13.1497 16.172L13.1634 16.1993L13.1771 16.2265L13.1908 16.2538L13.2044 16.281L13.2181 16.3083L13.2318 16.3355L13.2455 16.3627L13.2591 16.39L13.2728 16.4172L13.2865 16.4445L13.3002 16.4717L13.3144 16.499L13.328 16.5262L13.3422 16.5534L13.3559 16.5807L13.3701 16.6079L13.3838 16.6352L13.398 16.6624L13.4122 16.6897L13.4259 16.7169L13.4401 16.7442L13.4411 16.7463L13.4537 16.7714L13.4679 16.7986L13.4821 16.8259L13.4958 16.8526L13.51 16.8798L13.5242 16.9071L13.5384 16.9338L13.5526 16.9605L13.5668 16.9872L13.581 17.0139L13.5952 17.0406L13.6236 17.094L13.6378 17.1208L13.652 17.1475L13.6662 17.1742L13.6804 17.2009L13.6946 17.2276L13.7088 17.2543L13.723 17.281L13.7372 17.3077L13.7514 17.3344L13.7656 17.3611L13.7798 17.3878L13.794 17.4146L13.8082 17.4413L13.8224 17.468L13.8366 17.4947L13.8508 17.5209L13.865 17.5476L13.8792 17.5737C14.8312 19.062 15.6227 19.1945 16.2954 18.3424L16.2597 4.13518C16.2586 3.85366 16.1997 3.58497 16.0977 3.33817C15.9893 3.07482 15.8321 2.83603 15.6443 2.63411C15.5528 2.53529 15.4529 2.44447 15.3471 2.36328C15.2388 2.27994 15.1278 2.20836 15.0163 2.15014L14.898 2.0887L14.5966 2.26766H14.5956L14.3852 2.39319L13.9618 2.14266L13.9597 1.63999L14.169 1.51552H14.1701L14.3805 1.39052L14.5919 1.51552H14.5929L14.8038 1.63999L14.8049 1.87129L14.9553 1.93753C15.1015 2.00217 15.2446 2.08443 15.3813 2.18272C15.5176 2.28048 15.6459 2.39373 15.7621 2.51873C15.9651 2.73774 16.1355 2.99682 16.2528 3.28422C16.3601 3.54704 16.4222 3.8339 16.4232 4.13625C16.4422 8.77727 16.4658 13.437 16.4874 18.0684L16.499 18.0502L16.51 18.0321L16.5105 18.0315L16.5216 18.0134L16.5221 18.0128L16.5326 17.9947L16.5332 17.9942L16.5437 17.9765L16.5442 17.9755L16.5553 17.9562L16.5663 17.937L16.5773 17.9172L16.5884 17.8975L16.5984 17.8798L16.5994 17.8777L16.6094 17.8601L16.611 17.8574L16.6205 17.8398L16.622 17.8371L16.6315 17.8195L16.6331 17.8163L16.6426 17.7986L16.6441 17.7954L16.6552 17.7746L16.6662 17.7532L16.6773 17.7319L16.6883 17.7105L16.6994 17.6886L16.7078 17.6715L16.7104 17.6667L16.7157 17.656L16.7188 17.6496L16.7215 17.6443L16.7299 17.6277L16.7325 17.6218L16.7404 17.6053L16.7435 17.5994L16.7514 17.5828L16.7546 17.5764L16.7656 17.5534L16.773 17.5374L16.7762 17.5305L16.7835 17.5145L16.7867 17.5075L16.794 17.4915L16.7977 17.484L16.7993 17.4808L16.8088 17.4605L16.8156 17.445L16.8193 17.437L16.8261 17.4215L16.8298 17.413L16.8366 17.3975L16.8403 17.3884L16.8508 17.3638L16.8577 17.3483L16.8619 17.3392L16.8682 17.3243L17.1643 16.5433L17.1654 16.5428ZM16.895 17.2639L16.9008 17.2495L16.9055 17.2388L16.9113 17.2249L16.9161 17.2137L16.9218 17.1998L16.9266 17.1881L16.9318 17.1742L16.9366 17.1619L16.9466 17.1368L16.9471 17.1357L16.9576 17.1095L16.9629 17.0962L16.9681 17.0828L16.9734 17.07L16.9786 17.0561L16.9834 17.0433L16.9886 17.0294L16.9934 17.0171L16.9992 17.0027L17.0097 16.9755L17.0202 16.9482L17.0307 16.921L17.0349 16.9092L17.0407 16.8932L17.0449 16.882L17.0512 16.8654L17.0612 16.8376L17.0649 16.827L17.0712 16.8099L17.0817 16.7815L17.0854 16.7714L17.0917 16.7532L17.0954 16.7431L17.1022 16.7244L17.1054 16.7148L17.1122 16.6955L17.1222 16.6667L17.1322 16.6378L17.1354 16.6288L17.1422 16.6085L17.1454 16.5999L17.1522 16.5791L17.1554 16.5705L17.1627 16.5492L17.1654 16.5412L16.895 17.2623V17.2639ZM-3.62713e-05 6.35793L0.0210017 19.6485C0.0241574 21.5225 1.34744 22.4589 2.57764 22.4589H4.23806L4.23701 21.6875H3.08676C2.45983 21.6875 1.80607 21.4268 1.3364 20.9055C1.14127 20.6891 0.994007 20.4498 0.887765 20.1939C0.77416 19.9188 0.707365 19.6218 0.67949 19.3109L0.667919 19.1806L0.526438 19.0967V19.0962L0.314481 18.9712L0.312377 18.4685L0.521705 18.3435H0.522757L0.733662 18.2185L0.945094 18.3435H0.946146L1.15705 18.4685L1.15915 18.9717L0.830437 19.1672L0.846215 19.328C0.875143 19.625 0.943516 19.8921 1.04134 20.1288C1.14811 20.3868 1.29012 20.6074 1.45632 20.7917C1.66933 21.0278 1.92283 21.2062 2.19475 21.3275C2.48139 21.4552 2.78749 21.5193 3.08623 21.5193H4.23701L4.2165 11.625C4.27382 10.7896 4.28171 8.65815 5.534 9.09832C5.4551 8.94127 5.37937 8.79116 5.30521 8.648C5.03277 8.13358 4.74981 7.63091 4.45685 7.13732C4.45685 7.14266 4.38375 7.03315 4.26856 6.92257L4.2612 6.91563L4.2591 6.91349L4.25331 6.90815L4.24647 6.90174L4.24595 6.9012L4.23858 6.89426L4.23438 6.89052L4.2307 6.88732L4.22281 6.88037L4.22175 6.8793L4.21544 6.87396L4.20913 6.86862L4.20755 6.86755L4.19966 6.86114L4.19651 6.85847L4.19178 6.85473L4.18389 6.84832L4.18336 6.84779L4.176 6.84191L4.17074 6.83764L4.16863 6.83603L4.16074 6.83016L4.15811 6.82802L4.15286 6.82428L4.14549 6.81841H4.14497L4.13708 6.81253L4.13234 6.80879L4.12919 6.80665L4.1213 6.80078L4.11972 6.79971L4.11394 6.79544L4.1071 6.79063L4.10605 6.79009L4.09816 6.78475L4.09447 6.78208L4.09079 6.77941L4.0829 6.77407L4.08185 6.77353L4.07502 6.76926L4.06923 6.76552L4.06765 6.76445L4.05976 6.75964L4.05661 6.75751L4.05187 6.7543L4.04398 6.7495H4.04346L4.03609 6.74469L4.03084 6.74148L4.02821 6.73988L4.02032 6.73507L4.01821 6.73347L4.01769 6.73293L4.00559 6.72599H4.00506L3.99717 6.72172L3.99244 6.71958L3.98929 6.71744L3.9814 6.71317L3.97982 6.71264L3.97351 6.70943L3.9672 6.70623L3.96614 6.70569L3.95457 6.69982L3.95037 6.69768L3.94248 6.69394L3.94195 6.69341L3.93985 6.69234L3.92933 6.68753L3.92722 6.68646L3.91933 6.68272L3.91618 6.68112L3.90356 6.67578C3.69107 6.58443 3.47701 6.5839 3.27452 6.66456C3.0673 6.74682 2.87059 6.91456 2.69756 7.15761C2.34149 7.65922 2.09219 8.47546 2.06326 9.52888L2.0296 13.4578L2.21263 13.4557L2.36253 13.7132L2.51242 13.9706L2.36778 14.2313L2.22315 14.492L1.92862 14.4952L1.63409 14.4984L1.48419 14.2409L1.3343 13.9835L1.47893 13.7228L1.62357 13.4621L1.87918 13.4594L1.91284 9.5246C1.94229 8.4386 2.20316 7.59244 2.57553 7.06787C2.7654 6.80024 2.98525 6.61488 3.2193 6.5214C3.4586 6.42631 3.71106 6.42738 3.96194 6.53475L3.96404 6.53582L3.96614 6.53689L3.97088 6.53902L3.97298 6.54009L3.97508 6.54116H3.97561L3.97719 6.5417L3.97929 6.54276L3.9814 6.54383L3.9835 6.5449L3.9856 6.54597L3.98771 6.54704L3.98876 6.54757L3.99034 6.54811L3.99244 6.54917L3.99454 6.55024L3.99665 6.55131L3.99875 6.55238L4.00086 6.55345L4.00191 6.55398L4.00296 6.55452L4.00506 6.55558L4.00717 6.55665L4.00927 6.55772L4.01137 6.55879L4.01348 6.55986L4.01506 6.56039H4.01558L4.01769 6.56146L4.01979 6.56253L4.02663 6.56573L4.02873 6.5668L4.03347 6.56894L4.03557 6.57001L4.03767 6.57108L4.03978 6.57214L4.04188 6.57321H4.04241L4.04451 6.57428L4.04924 6.57642L4.05135 6.57749L4.05345 6.57855L4.05555 6.57962L4.05608 6.58016L4.05766 6.58069L4.05976 6.58176L4.06187 6.58336L4.06397 6.58443L4.06607 6.58603L4.06818 6.5871L4.06923 6.58764L4.07028 6.58817L4.07239 6.58924L4.07449 6.59084L4.07659 6.59191L4.0787 6.59351L4.0808 6.59458L4.08238 6.59565L4.0829 6.59618L4.08501 6.59779L4.08974 6.60046L4.09185 6.60206L4.09395 6.60366L4.09605 6.60473L4.09816 6.6058L4.10026 6.6074C3.84938 6.16402 3.58167 5.72599 3.29766 5.29223C3.18669 5.1245 3.0978 4.99148 3.03942 4.90548C3.02575 4.88518 3.01155 4.86541 2.99787 4.84618C2.9842 4.82695 2.97 4.80826 2.9558 4.78956C2.9416 4.7714 2.92739 4.75323 2.91372 4.73561C2.89952 4.71798 2.88532 4.70088 2.87112 4.68432C2.85692 4.66776 2.84272 4.65174 2.82799 4.63571C2.81379 4.62022 2.79906 4.60473 2.78486 4.59031C2.77066 4.57535 2.75594 4.56146 2.74121 4.54757C2.72648 4.53368 2.71176 4.52033 2.69756 4.50697C2.68283 4.49415 2.6681 4.48133 2.65338 4.46905C2.63865 4.45676 2.62392 4.44554 2.6092 4.43379C2.59447 4.42257 2.57974 4.41189 2.56449 4.40174C2.54976 4.39159 2.53451 4.38144 2.51978 4.37182C2.50506 4.36221 2.48981 4.35366 2.47455 4.34458C2.4593 4.33603 2.44457 4.32802 2.42932 4.32001C2.41407 4.31253 2.39882 4.30505 2.38356 4.29864C2.36831 4.2917 2.35306 4.28529 2.33728 4.27941C2.32203 4.27353 2.30678 4.26819 2.291 4.26338C2.27574 4.25858 2.25997 4.25377 2.24471 4.2495C2.22893 4.24522 2.21368 4.24202 2.19843 4.23828C2.18265 4.23507 2.1674 4.2324 2.15162 4.22973C2.13584 4.22759 2.12006 4.22546 2.10481 4.22385C2.08903 4.22225 2.07325 4.22118 2.05748 4.22065C2.0417 4.22011 2.02592 4.22011 2.01014 4.22011C1.99436 4.22011 1.97858 4.22065 1.96228 4.22172C1.9465 4.22279 1.93072 4.22439 1.91442 4.22652C1.89864 4.22866 1.88233 4.2308 1.86656 4.23347C1.85078 4.23614 1.83447 4.23935 1.81869 4.24308C1.80239 4.24682 1.78661 4.25056 1.77031 4.25537C1.754 4.25964 1.73822 4.26445 1.72192 4.26979C1.70614 4.27514 1.68984 4.28101 1.67353 4.28689C1.65723 4.2933 1.64092 4.29971 1.62462 4.30665C1.60832 4.3136 1.59201 4.32108 1.57571 4.32909C1.5594 4.3371 1.5431 4.34511 1.52679 4.3542C1.51049 4.36274 1.49418 4.37236 1.47788 4.38197C1.46158 4.39159 1.44527 4.40174 1.42897 4.41189C1.41266 4.42204 1.39583 4.43326 1.37953 4.44447C1.36322 4.45569 1.34639 4.46744 1.33009 4.47973C1.31378 4.49202 1.29695 4.5043 1.28065 4.51712C1.26434 4.52994 1.24751 4.5433 1.23121 4.55719C1.21491 4.57108 1.19808 4.58496 1.18177 4.59992C1.16547 4.61435 1.14864 4.62984 1.13233 4.64479C1.11603 4.66029 1.0992 4.67631 1.08289 4.69234C1.06659 4.70836 1.04976 4.72546 1.03345 4.74255C1.01662 4.75964 1.00032 4.77727 0.983488 4.7949C0.967184 4.81306 0.950353 4.83123 0.934049 4.84992C0.917744 4.86862 0.900914 4.88785 0.884084 4.90761C0.867779 4.92738 0.850949 4.94714 0.834118 4.96744C0.817814 4.98774 0.800984 5.00858 0.784153 5.02994C0.767323 5.05131 0.751019 5.07268 0.734188 5.09458C0.717884 5.11648 0.701053 5.13892 0.684223 5.16189C0.667919 5.18486 0.651088 5.20783 0.634784 5.23133C0.618479 5.25484 0.601649 5.27888 0.584819 5.30345C0.568514 5.32802 0.551684 5.35259 0.53538 5.37823C0.519075 5.40334 0.502245 5.42898 0.48594 5.45516C0.469636 5.48133 0.452806 5.50751 0.436501 5.53422C0.420197 5.56093 0.403366 5.58817 0.387062 5.61595C0.370758 5.64373 0.353927 5.6715 0.337623 5.69982C0.321318 5.72813 0.304488 5.75697 0.288184 5.78635C0.271879 5.81573 0.255049 5.84511 0.238744 5.87556C0.22244 5.90548 0.20561 5.93593 0.189305 5.96691C0.173001 5.99789 0.156696 6.02888 0.140392 6.06039C0.124088 6.09191 0.107783 6.12396 0.0914788 6.15655C0.0751744 6.18913 0.05887 6.22172 0.0425656 6.25484C0.0262612 6.28796 0.00995676 6.32161 -0.00634766 6.3558L-3.62713e-05 6.35793Z" fill="#EBECEC"/>
</g>
<defs>
<clipPath id="clip0_492_161">
<rect width="105" height="22" fill="white" transform="translate(0 0.90918)"/>
</clipPath>
</defs>
</svg>
