<svg width="105" height="22" viewBox="0 0 105 22" fill="none" xmlns="http://www.w3.org/2000/svg">
<g clip-path="url(#clip0_435_273)">
<path d="M85.8439 7.3557C85.6724 7.39469 85.4936 7.40912 85.3184 7.40912H85.1643C84.793 7.40912 84.6563 7.32739 84.6563 6.90431V6.76222H85.29C85.4825 6.76222 85.5809 6.69811 85.5809 6.53786V6.36371H84.6563C84.6563 6.21093 84.6668 5.97269 84.6915 5.7948H85.5146C85.7355 5.7948 85.837 5.70933 85.837 5.53892V5.37546H84.5832C84.387 5.37546 84.2539 5.45025 84.2155 5.74192C84.1877 5.93743 84.1698 6.19704 84.1698 6.42835V6.88027C84.1698 7.5026 84.478 7.83006 85.0628 7.83006H85.3184C85.7387 7.83006 85.837 7.72322 85.8402 7.52771L85.8439 7.3573V7.3557ZM82.1948 7.96681C82.1002 7.19865 81.7394 6.1495 81.5227 5.7542C81.4564 5.63668 81.3265 5.53038 81.134 5.53038H80.9378C80.5702 5.94651 80.1221 7.37974 80.1221 7.7323C80.1221 7.88134 80.1852 7.96681 80.3424 7.96681H80.5281C80.5633 7.76061 80.6054 7.55068 80.6543 7.34448H81.6105C81.6352 7.44758 81.6563 7.57204 81.6773 7.7323C81.6947 7.84929 81.7998 7.96681 81.9997 7.96681H82.1959H82.1948ZM81.5016 6.95666H80.759C80.8395 6.61852 80.9899 6.23123 81.1303 5.97856C81.2565 6.20613 81.4212 6.61531 81.5016 6.95666ZM82.9406 7.96681V5.78999C82.9406 5.63348 82.8076 5.53038 82.685 5.53038H82.4678V7.64309C82.4678 7.85623 82.6182 7.96681 82.7587 7.96681H82.9406ZM88.2638 7.68636C88.1133 7.56937 87.9066 7.37333 87.7173 7.09234L87.3986 6.61959C87.8151 6.13935 88.0781 5.79106 88.0781 5.61638C88.0781 5.47429 88.015 5.37066 87.8646 5.37066H87.6826C87.63 5.58433 87.5322 5.75848 87.133 6.22803L86.8421 5.78679C86.597 5.41713 86.464 5.37439 86.3551 5.37439H86.0258C86.0679 5.53786 86.1973 5.76222 86.4529 6.12493L86.7364 6.52717L86.5087 6.7761C86.2673 7.03946 86.1621 7.22429 86.1095 7.3557C86.0711 7.44811 86.0569 7.5229 86.0569 7.62226C86.0569 7.72162 86.1305 7.81083 86.2531 7.81083H86.4876C86.5507 7.57632 86.6628 7.32365 86.9989 6.9182L87.3002 7.36638C87.5385 7.72215 87.6994 7.83967 87.9198 7.83967C88.1123 7.83967 88.1896 7.77557 88.2627 7.68689L88.2638 7.68636ZM90.2355 6.11425C90.2355 5.62707 89.9026 5.35677 89.4371 5.35677H89.1673C88.9959 5.35677 88.6772 5.42087 88.5441 5.47055V7.46254C88.5441 7.72215 88.7013 7.81083 88.8349 7.81083H89.0243V6.86478C89.1226 6.9182 89.2589 6.94651 89.4272 6.94651C89.8858 6.94651 90.2361 6.62974 90.2361 6.11425H90.2355ZM89.7417 6.15698C89.7417 6.39149 89.6086 6.53412 89.3635 6.53412C89.241 6.53412 89.1079 6.51649 89.0238 6.49138V5.80121C89.08 5.79053 89.1637 5.76916 89.2231 5.76916H89.3772C89.6291 5.76916 89.7411 5.87974 89.7411 6.15698H89.7417ZM92.1721 7.3557C92.0006 7.39469 91.8218 7.40912 91.6467 7.40912H91.4926C91.1212 7.40912 90.985 7.32739 90.985 6.90431V6.76222H91.6188C91.8113 6.76222 91.9096 6.69811 91.9096 6.53786V6.36371H90.985C90.985 6.21093 90.9955 5.97269 91.0203 5.7948H91.8428C92.0637 5.7948 92.1652 5.70933 92.1652 5.53892V5.37546H90.9114C90.7152 5.37546 90.5821 5.45025 90.5437 5.74192C90.5159 5.93743 90.498 6.19704 90.498 6.42835V6.88027C90.498 7.5026 90.8062 7.83006 91.3911 7.83006H91.6467C92.0669 7.83006 92.1647 7.72322 92.1684 7.52771L92.1721 7.3573V7.3557ZM94.2906 7.75046C94.2627 7.70773 94.2028 7.64042 94.1439 7.49779L93.9514 7.04266C93.8919 6.90057 93.7831 6.7542 93.6537 6.70132C93.934 6.65858 94.1475 6.38454 94.1475 6.05388C94.1475 5.64469 93.8357 5.35303 93.3597 5.35303H93.0935C92.9147 5.35303 92.5786 5.40271 92.4771 5.44224V7.4839C92.4771 7.67942 92.5892 7.81136 92.8027 7.81136H92.9568V6.83326C93.0057 6.83326 93.0899 6.84769 93.1951 6.86531C93.3213 6.88668 93.4228 6.90431 93.5311 7.1714L93.71 7.61264C93.7731 7.76916 93.9061 7.82952 94.0602 7.82952C94.1933 7.82952 94.2354 7.8119 94.2911 7.751L94.2906 7.75046ZM93.3029 5.7729C93.5127 5.7729 93.66 5.837 93.66 6.13241C93.66 6.34929 93.4954 6.46307 93.2992 6.46307C93.1698 6.46307 93.0609 6.46307 92.9563 6.4417V5.79801C93.0089 5.78358 93.1246 5.7729 93.1698 5.7729H93.3029ZM96.2797 5.52771V5.37493H94.6688C94.4726 5.37493 94.3779 5.5245 94.3779 5.64149V5.80175H95.068V7.4839C95.068 7.70078 95.1905 7.81136 95.3588 7.81136H95.5513V5.80175H95.9926C96.1498 5.80175 96.2797 5.64523 96.2797 5.52771Z" fill="#EBECEC"/>
<path d="M76.9729 8.58385L76.9666 15.5027H76.9671V15.5096C76.9671 16.7649 77.2853 17.7559 77.9317 18.4279C78.5781 19.0999 79.5632 19.4631 80.897 19.4647V19.4637H80.9038C81.6417 19.4637 82.1971 19.3039 82.5664 19.0181C82.934 18.7334 83.1202 18.3152 83.1207 17.7991L83.1212 17.0961C82.9287 17.1854 82.7057 17.2543 82.4549 17.3045C82.1035 17.3745 81.6949 17.4076 81.2347 17.4076C80.6214 17.4076 80.1333 17.2457 79.7915 16.8745C79.4575 16.5112 79.2792 15.9573 79.2797 15.1688L79.2839 10.5502H81.6928C82.1456 10.5502 82.4833 10.4199 82.7163 10.2302C82.9955 10.0037 83.1275 9.6939 83.1281 9.42841L83.1291 8.49465H79.286L79.2881 5.79219H78.861C78.6927 5.79219 78.5076 5.85789 78.3246 5.96687C78.1116 6.094 77.9038 6.27777 77.7255 6.4893C77.442 6.82638 77.2522 7.09187 77.1365 7.39582C77.0202 7.70084 76.9724 8.05928 76.9724 8.58439L76.9729 8.58385ZM76.5469 15.5027L76.5532 8.58385C76.5537 8.00319 76.6095 7.59881 76.7457 7.24144C76.8824 6.88247 77.0939 6.58385 77.4073 6.21153C77.6146 5.96633 77.8591 5.75052 78.1137 5.59881C78.3603 5.45191 78.6175 5.36377 78.8626 5.36377H79.7099L79.7078 8.06623H83.5509L83.5499 9.42841C83.5494 9.80982 83.3663 10.2495 82.9803 10.563C82.6773 10.8087 82.2513 10.9781 81.6949 10.9781H79.7057L79.702 15.1683C79.7015 15.8408 79.8409 16.2991 80.1018 16.5828C80.3558 16.8584 80.7408 16.9786 81.2368 16.9786C81.6717 16.9786 82.0536 16.9476 82.3765 16.8835C82.6805 16.8232 82.9303 16.734 83.1207 16.6148L83.1728 16.5823H83.5441L83.543 17.7981C83.5425 18.4524 83.3006 18.9877 82.8235 19.3568C82.3807 19.6992 81.7396 19.891 80.9059 19.891H80.8991V19.8905C79.4449 19.8889 78.3593 19.4802 77.6324 18.7249C76.9056 17.9695 76.5474 16.8777 76.5474 15.5091V15.5021H76.5479L76.5469 15.5027ZM93.0306 15.7115L93.0333 13.1234H93.0322V13.1143C93.0322 11.2468 92.5073 10.039 91.69 9.30234C90.8721 8.56516 89.7524 8.28685 88.5695 8.28578V8.28685H88.5622C87.3094 8.28685 86.4079 8.56943 85.7957 8.9877C85.0567 9.49304 84.7417 10.1966 84.7412 10.828L84.7406 11.305C85.0257 11.0475 85.4433 10.7756 86.0055 10.5684C86.5683 10.3611 87.2789 10.2174 88.1488 10.2174C89.0182 10.2174 89.6561 10.3504 90.0885 10.7035C90.5319 11.0652 90.7412 11.6346 90.7407 12.4979L90.7401 12.8579H89.5646C87.7033 12.8579 86.4126 13.1789 85.5706 13.7179C84.6444 14.3109 84.2646 15.1779 84.2636 16.1715H84.2641V16.1747C84.2641 17.1389 84.6859 17.9717 85.4144 18.5641C86.1575 19.1683 87.2194 19.5262 88.4828 19.5278V19.5272H89.0439C90.2231 19.5272 91.2224 19.1357 91.924 18.4615C92.6214 17.7917 93.0291 16.8392 93.0301 15.7126L93.0306 15.7115ZM93.453 13.1234L93.4509 15.7115C93.4498 16.9615 92.9938 18.0219 92.2133 18.7714C91.4339 19.5192 90.3346 19.954 89.045 19.954H88.4838V19.9535C87.1216 19.9524 85.9687 19.5587 85.1535 18.8964C84.3236 18.2217 83.8434 17.273 83.8434 16.1741V16.1709H83.8439C83.8449 15.032 84.282 14.0374 85.347 13.3558C86.2543 12.7751 87.6202 12.4289 89.5652 12.4289H90.3209C90.312 11.7446 90.1521 11.3013 89.8255 11.0352C89.4779 10.7516 88.9235 10.6448 88.1493 10.6448C87.3309 10.6448 86.6693 10.7778 86.1491 10.969C85.4543 11.2249 85.0162 11.5812 84.7974 11.8584L84.7343 11.9386H84.3209L84.322 10.8269C84.3225 10.0678 84.6933 9.22648 85.5627 8.63247C86.2391 8.16986 87.2194 7.85789 88.5627 7.85789H88.5701V7.85843C89.8481 7.8595 91.0652 8.16719 91.9693 8.98236C92.8734 9.79806 93.4551 11.11 93.4551 13.1138V13.1229H93.4545L93.453 13.1234ZM90.758 15.7329C90.7575 16.367 90.5923 16.8509 90.2568 17.1827C89.9228 17.5128 89.4321 17.6795 88.7794 17.6795H88.7752V17.6789C88.1246 17.6784 87.6055 17.5336 87.2452 17.2681C86.8639 16.9866 86.6593 16.579 86.6593 16.0689H86.6588V16.0673H86.6593C86.6598 15.5299 86.8371 15.1132 87.3257 14.8285C87.7701 14.5694 88.477 14.4337 89.5631 14.4337H90.7596L90.7585 15.7334L90.758 15.7329ZM89.9638 16.8766C90.2142 16.6287 90.3378 16.2468 90.3383 15.7329L90.3388 14.8616H89.5625C88.5522 14.8616 87.9126 14.977 87.5345 15.1976C87.2005 15.3926 87.079 15.6859 87.079 16.0673H87.0795V16.0689H87.079C87.079 16.4337 87.2231 16.7238 87.4919 16.922C87.7817 17.1357 88.2166 17.2521 88.7747 17.2527V17.2516H88.7789C89.318 17.2516 89.7114 17.1261 89.9633 16.8771L89.9638 16.8766ZM104.569 18.4877C104.134 18.3728 103.783 18.1912 103.408 17.8451C103.002 17.4695 102.572 16.9001 101.968 15.9995L100.664 14.0668L100.773 13.9418C101.112 13.5545 101.422 13.1944 101.69 12.8691C101.971 12.5304 102.226 12.2094 102.45 11.9092L102.451 11.9076C102.871 11.3526 103.181 10.8664 103.39 10.4573C103.602 10.0411 103.704 9.7158 103.704 9.49144H103.704V9.48984C103.704 9.22488 103.637 8.97648 103.49 8.79967C103.346 8.62659 103.117 8.51548 102.787 8.51494V8.51601H101.913C101.82 9.01922 101.688 9.43161 101.39 9.94229C101.065 10.4962 100.544 11.1581 99.6508 12.1795L99.474 12.3814L98.1923 10.5331C97.589 9.66398 97.1262 9.14635 96.7517 8.84828C96.4067 8.5737 96.1464 8.49518 95.9207 8.49518H94.5133C94.6495 9.22488 95.2733 10.1442 96.3015 11.6602L96.4193 11.8339L97.6858 13.687L96.6649 14.7933C95.9865 15.5331 95.4605 16.1741 95.106 16.7911C94.7615 17.3905 94.5806 17.9669 94.5801 18.5929H94.5811V18.594C94.5811 18.8114 94.6769 19.0048 94.8341 19.1448C94.9998 19.2917 95.2333 19.3814 95.4984 19.3819V19.3809H96.574C96.6213 19.0972 96.6797 18.8306 96.7612 18.5662C96.8611 18.2436 96.9958 17.9268 97.1893 17.5887C97.3471 17.3114 97.5417 17.0123 97.7863 16.6789C98.0282 16.3488 98.3201 15.984 98.6741 15.5726L98.8555 15.3616L100.218 17.453C100.687 18.1741 101.113 18.6944 101.559 19.0304C101.988 19.3536 102.441 19.5069 102.98 19.5069C103.513 19.5069 103.909 19.3846 104.173 19.18C104.4 19.0048 104.532 18.7649 104.569 18.4888V18.4877ZM103.691 17.5288C104.052 17.8622 104.388 18.0155 104.833 18.1122L105 18.148V18.321C105 18.8013 104.81 19.2233 104.429 19.5181C104.093 19.7778 103.61 19.9337 102.98 19.9337C102.347 19.9337 101.815 19.7532 101.309 19.3718C100.819 19.0032 100.363 18.4487 99.8674 17.6875L98.8098 16.0646C98.5442 16.3814 98.3175 16.6683 98.1239 16.9321C97.8904 17.2511 97.7042 17.5368 97.5533 17.8018C97.3766 18.1106 97.2535 18.399 97.163 18.6923C97.0715 18.9872 97.0115 19.2906 96.9616 19.6261L96.9342 19.8082H95.4984V19.8077C95.1276 19.8071 94.7968 19.6779 94.5575 19.4653C94.3097 19.2452 94.1593 18.9386 94.1593 18.5935V18.5924H94.1598C94.1604 17.883 94.3608 17.2377 94.7421 16.5748C95.1134 15.9289 95.6572 15.2649 96.3573 14.5021L97.1467 13.6464L96.0733 12.0758L95.9554 11.9022C94.7752 10.1629 94.1083 9.18001 94.0668 8.29112L94.0562 8.06676H95.9207C96.2295 8.06676 96.5755 8.16559 97.0105 8.51174C97.4165 8.83492 97.9083 9.38193 98.5368 10.2868L99.5124 11.6939C100.282 10.8055 100.742 10.2142 101.029 9.72435C101.328 9.21366 101.441 8.80554 101.529 8.26655L101.559 8.08759H102.786V8.08813C103.256 8.08866 103.591 8.25907 103.81 8.52349C104.027 8.78364 104.125 9.12979 104.125 9.48984V9.49144H104.124C104.124 9.78364 104.007 10.1757 103.763 10.6533C103.544 11.0833 103.22 11.5919 102.783 12.1688C102.555 12.4733 102.296 12.7991 102.011 13.1437C101.749 13.461 101.477 13.7799 101.197 14.1009L102.315 15.7585C102.901 16.6314 103.312 17.1795 103.691 17.5288Z" fill="#EBECEC"/>
<path fill-rule="evenodd" clip-rule="evenodd" d="M60.6891 13.7127L60.4945 13.6032L60.2972 13.7127H60.2967L60.1005 13.8217L60.0947 14.3025L60.0353 14.366C59.7155 14.7069 59.4825 15.0867 59.3258 15.4969C59.1601 15.9323 59.0802 16.4034 59.0744 16.8986C59.067 17.5316 59.2038 18.1203 59.4652 18.647C59.7339 19.1887 60.1342 19.6663 60.6454 20.0621C61.1477 20.451 61.7573 20.7597 62.4541 20.9697C63.1321 21.1743 63.8942 21.2849 64.721 21.2849H65.4237C65.6162 21.2849 65.8039 21.2774 65.9864 21.2629C66.1737 21.2485 66.3556 21.2266 66.5313 21.1978L66.6118 21.1844L67.0436 21.4275L67.438 21.2085L67.4433 20.7688L67.2497 20.6598H67.2487L67.0541 20.5503L66.8569 20.6598H66.8558L66.6596 20.7688L66.6565 21.0284L66.4635 21.0584C66.2925 21.0851 66.1211 21.1048 65.9507 21.1176C65.7766 21.1305 65.6014 21.1374 65.4247 21.1374H64.722C63.921 21.1374 63.1805 21.0311 62.5194 20.8345C61.8325 20.6305 61.2324 20.3287 60.7401 19.9472C60.2494 19.5674 59.8644 19.108 59.6056 18.5872C59.3516 18.076 59.2185 17.5076 59.2259 16.8992C59.2311 16.4371 59.3058 15.9943 59.4599 15.5803C59.6072 15.185 59.827 14.818 60.1284 14.4878L60.2531 14.3516L60.4829 14.4809L60.8779 14.2613L60.8831 13.8217L60.6896 13.7127H60.6885H60.6891ZM30.0636 6.69724L29.8664 6.56957L29.6754 6.69724H29.6749L29.4845 6.82438L29.4966 7.33773L29.8911 7.59361L30.0736 7.47128L30.1972 7.65931C30.5185 8.1481 30.7778 8.70045 30.9593 9.31102C31.1307 9.88955 31.2323 10.5188 31.248 11.193C31.257 11.5722 31.2307 11.9179 31.1676 12.233C31.1034 12.5546 31.0003 12.8436 30.8583 13.1022L30.7463 13.3051L30.5338 13.1673L30.3423 13.2955H30.3418L30.1514 13.4227L30.1635 13.936L30.558 14.1919L30.9404 13.936L30.9261 13.3233L30.9651 13.2565C31.0476 13.1155 31.1181 12.9638 31.1776 12.8014C31.2375 12.6379 31.2848 12.4649 31.3201 12.2822L31.5231 11.233L31.2612 9.89917C31.176 9.46487 31.0534 9.05461 30.8988 8.67C30.7384 8.27149 30.5443 7.90237 30.3229 7.56423L30.2777 7.49585L30.2619 6.82331L30.0657 6.69617H30.0646L30.0636 6.69724ZM19.4037 12.3618L19.2364 13.6561L19.319 14.7683C19.3532 15.2309 19.4194 15.6732 19.5136 16.0941C19.6109 16.5284 19.7392 16.9424 19.8944 17.3335L19.9801 17.5503L19.8271 17.6492L19.8092 18.162L20.1884 18.4179L20.5855 18.162L20.6034 17.6486L20.4145 17.5215H20.414L20.2236 17.3933L20.1132 17.4643L20.0164 17.2149C19.8113 16.6876 19.6561 16.1182 19.5588 15.5092C19.4657 14.9253 19.4268 14.31 19.4494 13.6663C19.4941 12.397 19.6992 11.2416 20.0401 10.2191C20.3945 9.15504 20.8963 8.23624 21.5169 7.48357C21.7257 7.23036 21.9487 6.99585 22.1838 6.78111C22.4195 6.56583 22.6682 6.36978 22.928 6.19457L23.0443 6.11604L23.323 6.30408H23.3241L23.5134 6.43175L23.9105 6.17587L23.9284 5.66252L23.7396 5.53538H23.7385L23.5492 5.40771L23.3504 5.53538H23.3499L23.1521 5.66252L23.1453 5.85857L23.0269 5.93335C22.7292 6.12085 22.4431 6.33613 22.1712 6.57651C21.9019 6.8153 21.6474 7.07972 21.4091 7.36872C20.8874 8.00066 20.4487 8.74585 20.1084 9.59254C19.7745 10.4227 19.5346 11.3495 19.4042 12.3618H19.4037ZM75.5455 12.6518L75.3588 12.5087L75.6965 4.0044C75.7117 3.62085 75.6802 3.26241 75.5971 2.9451C75.5192 2.64596 75.3951 2.38047 75.2215 2.16038C75.0585 1.95365 74.8523 1.78912 74.5999 1.67694C74.3558 1.5685 74.0676 1.50974 73.7326 1.50974H72.879L72.7443 4.89489L72.4367 5.11711L72.4182 5.58506L72.7228 5.8185L73.0457 5.58506L73.0641 5.11711L72.8632 4.96327L72.9942 1.66679H73.7258C74.0345 1.66679 74.3011 1.71914 74.5294 1.8153C74.7771 1.92 74.9775 2.07651 75.1332 2.27416C75.2968 2.48143 75.4135 2.73677 75.4856 3.02683C75.5597 3.32331 75.5876 3.65344 75.5739 4.00386L75.24 12.4189L75.079 12.5348H75.0785L74.9176 12.6508L74.8991 13.1187L75.2037 13.3522L75.5271 13.1187L75.5455 12.6508V12.6518ZM32.5334 11.1006C32.5371 7.21647 29.4561 4.80728 26.1358 4.80728C21.57 4.80728 18.306 8.21006 18.3013 13.6299C18.2965 18.5984 22.1775 21.7902 26.15 21.7902C30.5375 21.7902 31.9323 20.1946 31.9344 18.1166L31.9354 16.8516H31.7871C31.5026 17.1203 31.1839 17.3457 30.842 17.5338C30.8215 17.9195 30.7521 18.2838 30.6243 18.6182C30.4565 19.0568 30.1872 19.4499 29.7938 19.78H29.7927C29.514 20.0135 29.1726 20.2143 28.7603 20.3757C28.3401 20.5402 27.8472 20.6636 27.2729 20.7394L27.0725 20.7662L27.0778 20.9814L26.6954 21.2362L26.3015 20.9814L26.2899 20.4697L26.4803 20.3431H26.4814L26.6723 20.2154L26.8695 20.3431H26.8706L27.2271 20.5733L27.2997 20.5637C27.8378 20.49 28.3006 20.3735 28.6961 20.2202C29.0985 20.0642 29.4314 19.8687 29.7028 19.6412C30.0741 19.3297 30.3292 18.9537 30.4886 18.5295C30.5964 18.2432 30.6595 17.9376 30.6853 17.6171C29.5255 18.2047 28.1286 18.3874 26.8958 18.3874C24.5538 18.3874 22.7171 17.0925 22.4221 15.045H22.5762C22.4726 14.7758 22.3963 14.4868 22.3495 14.1807L22.3348 14.0824H24.8567L24.852 13.8799L25.0424 13.7528H25.0429L25.2338 13.6251L25.431 13.7528H25.4321L25.6283 13.8799L25.6404 14.3917L25.258 14.6465L24.8641 14.3917L24.8609 14.2544H22.501L22.5867 14.5792C22.6293 14.7405 22.6809 14.896 22.7419 15.045H25.0313C30.3082 15.045 32.5329 14.0813 32.5356 11.1006H32.5334ZM28.7987 10.6187C28.7982 11.2304 28.552 11.6353 27.7484 11.8799V11.8858L27.366 12.1417L27.1672 12.0129C26.4719 12.1321 25.5036 12.1844 24.1719 12.1844H22.3932L22.4231 11.6428C22.4379 11.3388 22.4857 11.0429 22.5636 10.7587L22.46 10.6914L22.4479 10.178L22.6382 10.0509H22.6388L22.9107 9.86925L22.9391 9.81637C23.1963 9.33399 23.5492 8.93335 23.9763 8.65932C24.2587 8.47769 24.5748 8.35109 24.9188 8.29179L24.9209 8.29126C25.1902 8.21861 25.4763 8.18015 25.7766 8.18015C27.6142 8.18015 28.7997 8.99318 28.7982 10.6193L28.7987 10.6187ZM47.148 14.1417L47.1538 8.05942C47.1553 6.16252 46.1781 5.16893 43.8655 5.16893H43.1539L43.1455 14.2923C43.1439 15.9115 42.7479 16.975 42.0936 17.5792C42.1704 17.5535 42.2456 17.5242 42.3193 17.491C42.6385 17.3463 42.9167 17.1278 43.1434 16.8303L43.1918 16.7667V16.7629C43.3906 16.483 43.5489 16.1374 43.6594 15.7213C43.7703 15.3019 43.8335 14.8116 43.8408 14.2453L43.9176 8.17481L43.5984 7.99585L43.6041 7.51989L43.8177 7.40184H43.8187L44.0328 7.28325L44.2442 7.40184H44.2453L44.4557 7.51989L44.4499 7.99585L44.0833 8.19831L44.0065 14.2448C43.9991 14.8431 43.9302 15.3602 43.8077 15.8019C43.6893 16.2298 43.5216 16.5851 43.3133 16.8735L43.276 16.9221C43.0319 17.2426 42.7379 17.4761 42.405 17.6305C42.2093 17.7213 41.9989 17.7854 41.7759 17.8244C41.3683 18.0845 40.8871 18.2063 40.3559 18.2063C38.5477 18.2063 37.1255 17.0017 37.1281 14.021L37.1339 8.05889C37.1345 7.32278 36.983 6.72235 36.6642 6.26348C36.6132 6.24692 36.5617 6.23143 36.508 6.21647C36.1267 6.11284 35.6765 6.05995 35.1532 6.05995H34.5289L34.4237 14.3538C34.4111 15.3468 34.5615 16.2378 34.8466 17.021C35.1485 17.8484 35.6008 18.5535 36.1709 19.1273C36.7026 19.662 37.338 20.0845 38.0501 20.3879C38.767 20.6935 39.5612 20.8783 40.4048 20.936L40.6699 20.9542L40.673 20.7143L40.886 20.5963H40.8871L41.1012 20.4777L41.3126 20.5963H41.3136L41.524 20.7143L41.5182 21.1903L41.0901 21.4269L40.5137 21.1032L40.4558 21.1C39.5738 21.0466 38.7449 20.858 37.9975 20.5413C37.2612 20.2293 36.6032 19.7923 36.0526 19.2378C35.4703 18.6524 35.0075 17.9355 34.6983 17.0957C34.4021 16.2929 34.2465 15.3762 34.2591 14.3532L34.3127 10.108L34.3659 5.8997H35.1553C35.6649 5.8997 36.1094 5.94884 36.4917 6.04553C35.9626 5.46487 35.0959 5.16679 33.8462 5.16679H33.1052L33.0967 14.4109C33.092 19.1385 36.203 21.7881 40.146 21.7881C44.8007 21.7881 47.1448 19.1983 47.1496 14.1401L47.148 14.1417ZM57.7374 9.11284L57.7385 7.66733C57.7395 6.43282 56.8812 5.01775 54.4208 5.01775C50.2111 5.01775 48.5181 8.11925 48.5155 11.3714L48.5086 18.8388C48.5076 20.0893 49.1261 20.9088 50.1711 21.2491L50.1669 20.9547L50.3621 20.8308H50.3626L50.5588 20.7058L50.7586 20.8308H50.7597L50.9585 20.9553L50.9637 21.2907L51.1494 21.3324C51.2709 21.3596 51.3971 21.3799 51.527 21.3938C51.6638 21.4082 51.7984 21.4147 51.931 21.4147H52.5085L52.5169 12.0941C52.519 9.62513 53.4983 8.63154 55.2771 8.63154C56.1359 8.63154 56.7508 8.7966 57.2736 8.98998L57.2646 8.36872C57.2599 8.03752 57.191 7.69083 57.0437 7.36444C56.9117 7.07278 56.7176 6.80034 56.451 6.57438C56.2075 6.36818 55.9035 6.19831 55.53 6.08399C55.1966 5.98196 54.8084 5.92427 54.3598 5.92427C53.1475 5.92427 52.1761 6.24692 51.4197 6.79019C50.5677 7.40237 49.9939 8.29072 49.6583 9.31263L49.5931 9.51134L49.7882 9.63314L49.7956 10.1342L49.4033 10.3837L49.0035 10.1342L48.9962 9.63314L49.1913 9.50867H49.1918L49.4774 9.32705L49.5053 9.24158C49.8445 8.18923 50.4283 7.2747 51.2967 6.64916C52.0735 6.0888 53.0833 5.756 54.3572 5.756C54.8368 5.756 55.2492 5.81957 55.6021 5.93175C55.9802 6.05194 56.2921 6.22876 56.5441 6.44243C56.8328 6.68709 57.0416 6.97822 57.182 7.28645C57.3403 7.63421 57.4135 8.00814 57.4192 8.36818L57.4292 9.0482C57.4834 9.06957 57.5371 9.09094 57.5896 9.11231H57.738L57.7374 9.11284ZM71.1917 16.1887L71.1949 12.4553C71.2002 6.85483 67.9998 5.1684 64.4422 5.1684C60.2325 5.1684 58.6294 7.33666 58.6279 9.14329L58.6268 10.4382H58.7751C58.9676 10.1946 59.2659 9.91252 59.6787 9.64329C59.7208 9.256 59.8328 8.86177 60.0253 8.48464C60.2509 8.04179 60.586 7.62352 61.0457 7.26936L61.1035 7.22662C61.5285 6.91092 62.0576 6.64756 62.7024 6.46754C63.2957 6.30194 63.9857 6.20739 64.7815 6.20739C65.4052 6.20739 66.0164 6.26882 66.5965 6.40771C67.1304 6.53538 67.6368 6.72769 68.1013 6.99692L68.2133 7.06209L68.4521 6.90985L68.6504 7.03378H68.6514L68.8481 7.15664L68.8555 7.65237L68.4673 7.8997L68.0718 7.65237L68.065 7.19297L67.9414 7.12299C67.488 6.86498 66.9994 6.68122 66.4882 6.56049C65.9401 6.43122 65.3663 6.37352 64.7836 6.37352C64.0136 6.37352 63.3451 6.46327 62.7702 6.62032C62.1323 6.79446 61.6095 7.05248 61.1908 7.36391L61.0036 7.5028L61.0078 7.50974C60.6386 7.82117 60.3624 8.17694 60.1689 8.55034C60.0016 8.87299 59.897 9.20793 59.8465 9.53912C60.7133 9.01989 62.0239 8.57224 63.8463 8.57224C66.2184 8.57224 67.2845 9.26455 67.2824 11.553V11.764H65.8891C60.019 11.764 57.942 13.9622 57.9389 16.8527C57.9362 19.8335 60.5434 22.0017 64.3381 22.0017H65.1386C68.6961 22.0017 71.1886 19.623 71.1917 16.1903V16.1887ZM67.3081 16.2191C67.3066 17.8751 66.4756 18.7181 64.7562 18.7181C63.0069 18.7181 61.9997 17.9654 62.0008 16.7004C62.0018 15.3757 62.8623 14.6529 65.8865 14.6529H67.3097L67.3087 15.8473H67.7894L67.8125 17.4456C67.8251 18.2859 67.6295 18.9082 67.2492 19.3169C66.8579 19.7373 66.2594 19.9462 65.4799 19.9462C65.2285 19.9462 64.9934 19.928 64.7752 19.8917C64.5564 19.8554 64.3555 19.8019 64.1735 19.732L64.072 19.693L63.7811 19.8778L63.3767 19.6251L63.3688 19.1176L63.5665 18.9916H63.5671L63.7659 18.8655L63.9684 18.9916H63.9694L64.1708 19.1176L64.1777 19.5616L64.3455 19.616C64.5064 19.6684 64.6842 19.7079 64.8783 19.7352C65.0692 19.7619 65.269 19.7752 65.4773 19.7752C65.8439 19.7752 66.1637 19.7282 66.4366 19.6353C66.7222 19.5381 66.9568 19.3895 67.1398 19.1919C67.3229 18.9943 67.4564 18.7453 67.5422 18.4446C67.6242 18.1572 67.6621 17.8238 67.6563 17.4446L67.6353 16.0162H67.3076V16.2175L67.3081 16.2191ZM75.9784 2.75974C75.98 1.22395 75.1211 0.0498047 73.1351 0.0498047H72.0085L71.9933 16.8217C71.9912 19.2822 72.9889 20.896 74.875 21.5503C74.1802 21.1321 73.6437 20.5236 73.2829 19.7336L73.164 19.4734L72.9963 19.5803L72.5692 19.3132L72.5613 18.7779L72.7696 18.6454H72.7706L72.98 18.5119L73.1935 18.6454H73.1945L73.407 18.7779L73.4149 19.3137L73.3087 19.381L73.4076 19.6038C73.7699 20.4221 74.3211 21.0375 75.0485 21.4488C75.2836 21.5819 75.5366 21.693 75.8069 21.7827C76.1961 21.8473 76.6132 21.8799 77.0582 21.8799C78.4667 21.8799 79.3371 21.4307 79.6237 20.3447C77.1123 20.0274 75.8906 18.3612 75.8932 15.7165C75.8969 11.3965 75.9747 7.07331 75.9789 2.75974H75.9784Z" fill="#EBECEC"/>
<path fill-rule="evenodd" clip-rule="evenodd" d="M11.442 19.0199C11.2948 18.8431 11.1443 18.6492 10.9908 18.4371C10.469 17.7176 9.9094 16.7875 9.30246 15.5867L5.76493 8.57866H5.7644C5.51194 8.06477 5.28631 7.62941 5.08487 7.2683C4.93077 6.99213 4.62204 6.49853 4.45636 6.22824L4.61888 6.50441C4.89553 6.9793 5.24213 7.59843 5.6287 8.38048L9.48391 15.9692C10.277 17.5274 11.0007 18.6273 11.6645 19.4264L11.6608 19.4376C11.7939 19.5904 11.9238 19.7325 12.0521 19.8671C12.273 20.1038 12.4871 20.3084 12.6948 20.4873H12.6964C15.6617 23.0728 17.1812 20.459 17.1733 15.6123C16.9597 16.2485 16.732 16.7704 16.4885 17.1599L16.4917 17.8912C16.5506 18.6583 16.4107 19.3297 16.1188 19.8361C15.8894 20.2341 15.5665 20.5301 15.1715 20.6914C14.7781 20.8522 14.3158 20.8783 13.8062 20.7373C13.0861 20.5381 12.2704 20.0023 11.4231 19.0375L11.442 19.021V19.0199ZM15.648 20.803C15.5365 20.8762 15.4171 20.9392 15.2909 20.9905C15.0321 21.0963 14.7618 21.1465 14.4904 21.1513C14.8928 21.2266 15.2925 21.1481 15.648 20.803ZM15.9883 18.1326C15.729 18.2768 15.4345 18.3313 15.1079 18.24C14.4736 18.0621 13.9545 17.3767 13.6131 16.8426L13.6068 16.8329L13.601 16.8228C13.2886 16.2475 12.9894 15.6647 12.7017 15.076L12.698 15.0674C12.262 14.1054 11.8701 13.1171 11.4057 12.1695L7.76669 4.74586C7.53527 4.27364 7.27808 3.81371 6.98881 3.37567C6.72057 3.08454 6.4292 2.81584 6.11258 2.58027C5.63133 2.22289 5.10591 1.9542 4.53578 1.77631C3.92095 1.58401 3.28139 1.50495 2.63921 1.50495H2.61291V1.56638L1.80032 2.03165L0.988784 1.56531L0.991414 0.798214C0.74001 1.09255 0.599056 1.50281 0.506489 1.95206C0.360801 2.65986 0.334503 3.44565 0.328718 4.21595C0.639554 3.75708 1.01561 3.33881 1.44636 3.12941C2.21267 2.75708 2.86169 3.15505 3.3098 3.8121C3.59907 4.23625 3.87572 4.66948 4.13817 5.11125V5.00334L4.70882 5.78646L4.72249 5.80142L4.77456 5.86178L4.81138 5.90665L4.81401 5.91039L4.85346 5.96061L4.86345 5.97343L4.86503 5.97556L4.88028 5.99586L4.92025 6.05089L4.96443 6.11499L4.99441 6.16093L5.04911 6.248L5.06226 6.26937L5.06331 6.2715L5.10118 6.33614L5.15535 6.43123C5.26212 6.60163 5.36415 6.77418 5.46303 6.94939C5.58242 7.16146 5.69708 7.37674 5.80963 7.59255C5.93849 7.83988 6.06472 8.08881 6.18779 8.33935L9.73268 15.3612C10.2087 16.3041 10.7372 17.2528 11.3531 18.1096C11.4646 18.2646 11.5793 18.4168 11.6987 18.5653L11.8081 18.6898C12.3608 19.3196 13.1219 20.0065 13.9429 20.2341C14.2842 20.3287 14.6498 20.3431 14.9827 20.2074C15.2841 20.084 15.5155 19.8548 15.6785 19.5723C15.9473 19.1059 15.9909 18.6289 15.9904 18.1321L15.9883 18.1326ZM2.11326 0.331868L2.13325 0.34362H2.1343L2.61502 0.619796V0.666804H2.63921C3.36975 0.666804 4.09662 0.75815 4.79508 0.978236C4.83978 0.992125 4.88501 1.00708 4.92919 1.02204C4.8524 0.963279 4.77299 0.907723 4.69146 0.856441C3.92358 0.372467 2.99791 0.292873 2.11326 0.331334V0.331868ZM16.296 17.4344C15.6233 18.2865 14.8318 18.1545 13.8798 16.6663C13.5742 16.1027 13.2755 15.5226 12.9873 14.9318C12.5723 14.0162 12.1179 12.897 11.6908 12.0247L8.05175 4.6011C7.79561 4.07866 7.52422 3.60377 7.23916 3.17321C6.94305 2.84896 6.63116 2.56371 6.30034 2.31851C5.79385 1.94191 5.24003 1.65719 4.62888 1.46595C4.02193 1.27631 3.36186 1.18069 2.63869 1.18069H2.29471L2.29419 1.37621L1.7998 1.65933L1.30698 1.37621L1.30909 0.80783L1.55523 0.666804H1.55628L1.80348 0.525244L2.04962 0.666804H2.05067L2.29577 0.80783L2.29524 0.989988H2.63921C3.39079 0.989988 4.07505 1.08988 4.70093 1.287C5.32418 1.48358 5.8922 1.77685 6.41552 2.16574C6.46654 2.20366 6.51756 2.24319 6.56805 2.28272C5.39886 0.926954 4.72039 -0.143025 1.9518 0.015629C-0.182504 0.137958 0.0468094 3.06851 0 5.44832C1.04085 3.27364 2.16375 2.70046 3.0463 3.99586C3.42708 4.55516 3.78157 5.12193 4.10713 5.69725L4.11239 5.70046L4.12344 5.7074L4.12922 5.71114L4.13448 5.71488L4.14027 5.71809L4.14553 5.72183L4.15079 5.72556L4.15605 5.7293L4.16131 5.73251H4.16183L4.16762 5.73625L4.17235 5.73945L4.17288 5.73999L4.17814 5.74373L4.18392 5.74747L4.18603 5.74907L4.18918 5.75121L4.19444 5.75495L4.1997 5.75868L4.20023 5.75922L4.20601 5.76296L4.21127 5.7667L4.2139 5.7683L4.21706 5.77044L4.22232 5.77471L4.22758 5.77845L4.23336 5.78272L4.23862 5.787L4.24178 5.78913L4.24441 5.79127L4.24967 5.79554L4.25493 5.79982H4.25545L4.26071 5.80356L4.26597 5.80783L4.27123 5.8121L4.27649 5.81691L4.28175 5.82118L4.2828 5.82172L4.28753 5.82546L4.29279 5.83027L4.29648 5.83347L4.29805 5.83507L4.30331 5.83988L4.30857 5.84469L4.30962 5.84576L4.31383 5.8495L4.32488 5.85911L4.33014 5.86392L4.3354 5.86873L4.34066 5.87353L4.34591 5.87834L4.36748 5.89864L4.37274 5.90398L4.38326 5.91413L4.38852 5.91948L4.39378 5.92482L4.39904 5.93016L4.40955 5.94084L4.41481 5.94618L4.43638 5.96809L4.44164 5.97343L4.4469 5.9793L4.45216 5.98518V5.98358L4.45794 5.99106L4.45847 5.99159L4.46373 5.99747L4.46951 6.00388L4.47162 6.00601L4.4753 6.01029L4.48108 6.0167L4.48477 6.0215L4.48687 6.02364L4.49265 6.03059L4.49791 6.037L4.49844 6.03753L4.50423 6.04448L4.51001 6.05142L4.51106 6.05302L4.5158 6.05836L4.52158 6.06531L4.52474 6.06905L4.52789 6.07225L4.53368 6.0792L4.53841 6.08454L4.53946 6.08614L4.54525 6.09309L4.55103 6.10003L4.55156 6.10056L4.55682 6.10698L4.56261 6.11445L4.56471 6.11712L4.56839 6.12193L4.57418 6.12941L4.57786 6.13422L4.57996 6.13689L4.58575 6.14437L4.59101 6.15131L4.59153 6.15185L4.59732 6.15933L4.6031 6.1668L4.60416 6.16841L4.61467 6.1823L4.6173 6.18604L4.62046 6.18977L4.63782 6.21328L4.6436 6.22129L4.64413 6.22183L4.64939 6.2293L4.65517 6.23732L4.65728 6.23999L4.66674 6.25334L4.6699 6.25815L4.672 6.26136L4.67779 6.26937L4.68305 6.27685L4.68357 6.27738L4.68936 6.28593L4.69515 6.29448L4.6962 6.29608L4.70619 6.31103L4.70882 6.31477L4.71198 6.31958L4.71776 6.32813L4.72197 6.33454L4.72355 6.33668L4.72933 6.34522L4.73512 6.35377V6.3543L4.74038 6.36285L4.74616 6.3714L4.74774 6.37407L4.75142 6.37995L4.75668 6.38903L4.75984 6.39437L4.76773 6.40719L4.77246 6.4152L4.77299 6.41627L4.77824 6.42535L4.7835 6.43443L4.78456 6.43604L4.78929 6.44351L4.79455 6.45259L4.79665 6.45633L4.79981 6.46168L4.80507 6.47076L4.80875 6.4777L4.81033 6.48037L4.81559 6.48999L4.82085 6.4996L4.81611 6.50227C4.834 6.53059 4.85293 6.55943 4.87134 6.58935C4.97285 6.75014 5.07593 6.92428 5.18165 7.11071C5.28 7.28539 5.39361 7.49586 5.52299 7.74426C5.65553 7.99854 5.78333 8.25121 5.90693 8.50227L6.01738 8.7277L6.02001 8.7261L9.44446 15.5092C10.0393 16.6866 10.5847 17.5974 11.0912 18.3009C11.2516 18.5236 11.4078 18.7261 11.5609 18.9099L11.5656 18.9056C12.3861 19.8404 13.1687 20.357 13.8545 20.5466C14.3211 20.6759 14.7418 20.6529 15.0968 20.5076C15.4508 20.3629 15.7411 20.0958 15.9489 19.7357C16.3849 18.9798 16.2971 18.256 16.2934 17.4339L16.296 17.4344Z" fill="#EBECEC"/>
<path fill-rule="evenodd" clip-rule="evenodd" d="M17.1654 15.6336L17.1611 2.62557C17.1606 1.25164 15.9183 0.158691 14.8422 0.158691H12.9667L12.9951 11.7586C12.9515 12.1384 12.8158 12.3804 12.6685 12.468L13.0104 13.3109C13.1261 13.5759 13.4774 14.429 13.5589 14.6197L14.107 15.9017L14.1306 8.96425L13.7241 8.73081L13.7262 8.16243L13.9723 8.02141H13.9734L14.2206 7.87985L14.4667 8.02141H14.4678L14.7129 8.16243L14.7108 8.73134L14.3221 8.9541L14.2953 16.8569L14.1127 16.437C14.0759 16.3526 14.0181 16.2148 13.9476 16.0465C13.8503 15.8147 13.8103 15.718 13.7704 15.6218C13.5279 15.0374 13.2849 14.4498 13.0198 13.8756L12.4492 12.5182C12.1694 12.4947 11.8086 12.1742 11.4073 11.4498L11.6897 12.0257C12.051 12.7623 12.679 14.2687 13.054 15.0705L13.0677 15.0983L13.0814 15.1256L13.095 15.1533L13.1087 15.1806L13.1224 15.2084L13.1361 15.2356L13.1497 15.2629L13.1634 15.2901L13.1771 15.3173L13.1908 15.3446L13.2044 15.3718L13.2181 15.3991L13.2318 15.4263L13.2455 15.4536L13.2591 15.4808L13.2728 15.508L13.2865 15.5353L13.3002 15.5625L13.3144 15.5898L13.328 15.617L13.3422 15.6443L13.3559 15.6715L13.3701 15.6988L13.3838 15.726L13.398 15.7532L13.4122 15.7805L13.4259 15.8077L13.4401 15.835L13.4411 15.8371L13.4537 15.8622L13.4679 15.8895L13.4821 15.9167L13.4958 15.9434L13.51 15.9707L13.5242 15.9979L13.5384 16.0246L13.5526 16.0513L13.5668 16.078L13.581 16.1047L13.5952 16.1314L13.6236 16.1849L13.6378 16.2116L13.652 16.2383L13.6662 16.265L13.6804 16.2917L13.6946 16.3184L13.7088 16.3451L13.723 16.3718L13.7372 16.3985L13.7514 16.4253L13.7656 16.452L13.7798 16.4787L13.794 16.5054L13.8082 16.5321L13.8224 16.5588L13.8366 16.5855L13.8508 16.6117L13.865 16.6384L13.8792 16.6646C14.8312 18.1528 15.6227 18.2853 16.2954 17.4333L16.2597 3.226C16.2586 2.94448 16.1997 2.67579 16.0977 2.42899C15.9893 2.16564 15.8321 1.92685 15.6443 1.72493C15.5528 1.62611 15.4529 1.53529 15.3471 1.4541C15.2388 1.37076 15.1278 1.29918 15.0163 1.24096L14.898 1.17952L14.5966 1.35848H14.5956L14.3852 1.48401L13.9618 1.23348L13.9597 0.730807L14.169 0.606341H14.1701L14.3805 0.481341L14.5919 0.606341H14.5929L14.8038 0.730807L14.8049 0.96211L14.9553 1.02835C15.1015 1.09299 15.2446 1.17525 15.3813 1.27354C15.5176 1.3713 15.6459 1.48455 15.7621 1.60955C15.9651 1.82856 16.1355 2.08764 16.2528 2.37504C16.3601 2.63786 16.4222 2.92472 16.4232 3.22707C16.4422 7.86809 16.4658 12.5278 16.4874 17.1592L16.499 17.1411L16.51 17.1229L16.5105 17.1224L16.5216 17.1042L16.5221 17.1037L16.5326 17.0855L16.5332 17.085L16.5437 17.0673L16.5442 17.0663L16.5553 17.047L16.5663 17.0278L16.5773 17.0081L16.5884 16.9883L16.5984 16.9707L16.5994 16.9685L16.6094 16.9509L16.611 16.9482L16.6205 16.9306L16.622 16.9279L16.6315 16.9103L16.6331 16.9071L16.6426 16.8895L16.6441 16.8863L16.6552 16.8654L16.6662 16.8441L16.6773 16.8227L16.6883 16.8013L16.6994 16.7794L16.7078 16.7623L16.7104 16.7575L16.7157 16.7468L16.7188 16.7404L16.7215 16.7351L16.7299 16.7185L16.7325 16.7126L16.7404 16.6961L16.7435 16.6902L16.7514 16.6736L16.7546 16.6672L16.7656 16.6443L16.773 16.6282L16.7762 16.6213L16.7835 16.6053L16.7867 16.5983L16.794 16.5823L16.7977 16.5748L16.7993 16.5716L16.8088 16.5513L16.8156 16.5358L16.8193 16.5278L16.8261 16.5123L16.8298 16.5038L16.8366 16.4883L16.8403 16.4792L16.8508 16.4546L16.8577 16.4391L16.8619 16.4301L16.8682 16.4151L17.1643 15.6341L17.1654 15.6336ZM16.895 16.3547L16.9008 16.3403L16.9055 16.3296L16.9113 16.3157L16.9161 16.3045L16.9218 16.2906L16.9266 16.2789L16.9318 16.265L16.9366 16.2527L16.9466 16.2276L16.9471 16.2265L16.9576 16.2004L16.9629 16.187L16.9681 16.1736L16.9734 16.1608L16.9786 16.1469L16.9834 16.1341L16.9886 16.1202L16.9934 16.1079L16.9992 16.0935L17.0097 16.0663L17.0202 16.039L17.0307 16.0118L17.0349 16L17.0407 15.984L17.0449 15.9728L17.0512 15.9562L17.0612 15.9285L17.0649 15.9178L17.0712 15.9007L17.0817 15.8724L17.0854 15.8622L17.0917 15.8441L17.0954 15.8339L17.1022 15.8152L17.1054 15.8056L17.1122 15.7864L17.1222 15.7575L17.1322 15.7287L17.1354 15.7196L17.1422 15.6993L17.1454 15.6907L17.1522 15.6699L17.1554 15.6614L17.1627 15.64L17.1654 15.632L16.895 16.3531V16.3547ZM-3.62713e-05 5.44876L0.0210017 18.7394C0.0241574 20.6133 1.34744 21.5497 2.57764 21.5497H4.23806L4.23701 20.7783H3.08676C2.45983 20.7783 1.80607 20.5177 1.3364 19.9963C1.14127 19.78 0.994007 19.5406 0.887765 19.2848C0.77416 19.0097 0.707365 18.7126 0.67949 18.4017L0.667919 18.2714L0.526438 18.1875V18.187L0.314481 18.062L0.312377 17.5593L0.521705 17.4343H0.522757L0.733662 17.3093L0.945094 17.4343H0.946146L1.15705 17.5593L1.15915 18.0625L0.830437 18.2581L0.846215 18.4188C0.875143 18.7158 0.943516 18.9829 1.04134 19.2196C1.14811 19.4776 1.29012 19.6982 1.45632 19.8825C1.66933 20.1186 1.92283 20.297 2.19475 20.4183C2.48139 20.546 2.78749 20.6101 3.08623 20.6101H4.23701L4.2165 10.7158C4.27382 9.88038 4.28171 7.74897 5.534 8.18914C5.4551 8.03209 5.37937 7.88198 5.30521 7.73882C5.03277 7.2244 4.74981 6.72173 4.45685 6.22814C4.45685 6.23348 4.38375 6.12397 4.26856 6.01339L4.2612 6.00645L4.2591 6.00431L4.25331 5.99897L4.24647 5.99256L4.24595 5.99202L4.23858 5.98508L4.23438 5.98134L4.2307 5.97814L4.22281 5.97119L4.22175 5.97012L4.21544 5.96478L4.20913 5.95944L4.20755 5.95837L4.19966 5.95196L4.19651 5.94929L4.19178 5.94555L4.18389 5.93914L4.18336 5.93861L4.176 5.93273L4.17074 5.92846L4.16863 5.92685L4.16074 5.92098L4.15811 5.91884L4.15286 5.9151L4.14549 5.90923H4.14497L4.13708 5.90335L4.13234 5.89961L4.12919 5.89747L4.1213 5.8916L4.11972 5.89053L4.11394 5.88626L4.1071 5.88145L4.10605 5.88091L4.09816 5.87557L4.09447 5.8729L4.09079 5.87023L4.0829 5.86489L4.08185 5.86435L4.07502 5.86008L4.06923 5.85634L4.06765 5.85527L4.05976 5.85046L4.05661 5.84833L4.05187 5.84512L4.04398 5.84032H4.04346L4.03609 5.83551L4.03084 5.8323L4.02821 5.8307L4.02032 5.82589L4.01821 5.82429L4.01769 5.82376L4.00559 5.81681H4.00506L3.99717 5.81254L3.99244 5.8104L3.98929 5.80826L3.9814 5.80399L3.97982 5.80346L3.97351 5.80025L3.9672 5.79705L3.96614 5.79651L3.95457 5.79064L3.95037 5.7885L3.94248 5.78476L3.94195 5.78423L3.93985 5.78316L3.92933 5.77835L3.92722 5.77728L3.91933 5.77354L3.91618 5.77194L3.90356 5.7666C3.69107 5.67525 3.47701 5.67472 3.27452 5.75538C3.0673 5.83764 2.87059 6.00538 2.69756 6.24844C2.34149 6.75004 2.09219 7.56628 2.06326 8.6197L2.0296 12.5486L2.21263 12.5465L2.36253 12.804L2.51242 13.0615L2.36778 13.3222L2.22315 13.5828L1.92862 13.586L1.63409 13.5892L1.48419 13.3318L1.3343 13.0743L1.47893 12.8136L1.62357 12.5529L1.87918 12.5503L1.91284 8.61542C1.94229 7.52942 2.20316 6.68326 2.57553 6.15869C2.7654 5.89106 2.98525 5.7057 3.2193 5.61222C3.4586 5.51713 3.71106 5.5182 3.96194 5.62557L3.96404 5.62664L3.96614 5.62771L3.97088 5.62985L3.97298 5.63091L3.97508 5.63198H3.97561L3.97719 5.63252L3.97929 5.63358L3.9814 5.63465L3.9835 5.63572L3.9856 5.63679L3.98771 5.63786L3.98876 5.63839L3.99034 5.63893L3.99244 5.64L3.99454 5.64106L3.99665 5.64213L3.99875 5.6432L4.00086 5.64427L4.00191 5.6448L4.00296 5.64534L4.00506 5.6464L4.00717 5.64747L4.00927 5.64854L4.01137 5.64961L4.01348 5.65068L4.01506 5.65121H4.01558L4.01769 5.65228L4.01979 5.65335L4.02663 5.65655L4.02873 5.65762L4.03347 5.65976L4.03557 5.66083L4.03767 5.6619L4.03978 5.66296L4.04188 5.66403H4.04241L4.04451 5.6651L4.04924 5.66724L4.05135 5.66831L4.05345 5.66937L4.05555 5.67044L4.05608 5.67098L4.05766 5.67151L4.05976 5.67258L4.06187 5.67418L4.06397 5.67525L4.06607 5.67685L4.06818 5.67792L4.06923 5.67846L4.07028 5.67899L4.07239 5.68006L4.07449 5.68166L4.07659 5.68273L4.0787 5.68433L4.0808 5.6854L4.08238 5.68647L4.0829 5.687L4.08501 5.68861L4.08974 5.69128L4.09185 5.69288L4.09395 5.69448L4.09605 5.69555L4.09816 5.69662L4.10026 5.69822C3.84938 5.25485 3.58167 4.81681 3.29766 4.38305C3.18669 4.21532 3.0978 4.0823 3.03942 3.9963C3.02575 3.976 3.01155 3.95623 2.99787 3.937C2.9842 3.91777 2.97 3.89908 2.9558 3.88038C2.9416 3.86222 2.92739 3.84405 2.91372 3.82643C2.89952 3.8088 2.88532 3.7917 2.87112 3.77514C2.85692 3.75858 2.84272 3.74256 2.82799 3.72653C2.81379 3.71104 2.79906 3.69555 2.78486 3.68113C2.77066 3.66617 2.75594 3.65228 2.74121 3.63839C2.72648 3.6245 2.71176 3.61115 2.69756 3.59779C2.68283 3.58497 2.6681 3.57215 2.65338 3.55987C2.63865 3.54758 2.62392 3.53636 2.6092 3.52461C2.59447 3.51339 2.57974 3.50271 2.56449 3.49256C2.54976 3.48241 2.53451 3.47226 2.51978 3.46264C2.50506 3.45303 2.48981 3.44448 2.47455 3.4354C2.4593 3.42685 2.44457 3.41884 2.42932 3.41083C2.41407 3.40335 2.39882 3.39587 2.38356 3.38946C2.36831 3.38252 2.35306 3.37611 2.33728 3.37023C2.32203 3.36435 2.30678 3.35901 2.291 3.3542C2.27574 3.3494 2.25997 3.34459 2.24471 3.34032C2.22893 3.33604 2.21368 3.33284 2.19843 3.3291C2.18265 3.32589 2.1674 3.32322 2.15162 3.32055C2.13584 3.31841 2.12006 3.31628 2.10481 3.31467C2.08903 3.31307 2.07325 3.312 2.05748 3.31147C2.0417 3.31094 2.02592 3.31094 2.01014 3.31094C1.99436 3.31094 1.97858 3.31147 1.96228 3.31254C1.9465 3.31361 1.93072 3.31521 1.91442 3.31735C1.89864 3.31948 1.88233 3.32162 1.86656 3.32429C1.85078 3.32696 1.83447 3.33017 1.81869 3.3339C1.80239 3.33764 1.78661 3.34138 1.77031 3.34619C1.754 3.35046 1.73822 3.35527 1.72192 3.36061C1.70614 3.36596 1.68984 3.37183 1.67353 3.37771C1.65723 3.38412 1.64092 3.39053 1.62462 3.39747C1.60832 3.40442 1.59201 3.4119 1.57571 3.41991C1.5594 3.42792 1.5431 3.43593 1.52679 3.44502C1.51049 3.45356 1.49418 3.46318 1.47788 3.47279C1.46158 3.48241 1.44527 3.49256 1.42897 3.50271C1.41266 3.51286 1.39583 3.52408 1.37953 3.53529C1.36322 3.54651 1.34639 3.55826 1.33009 3.57055C1.31378 3.58284 1.29695 3.59512 1.28065 3.60794C1.26434 3.62076 1.24751 3.63412 1.23121 3.64801C1.21491 3.6619 1.19808 3.67579 1.18177 3.69074C1.16547 3.70517 1.14864 3.72066 1.13233 3.73561C1.11603 3.75111 1.0992 3.76713 1.08289 3.78316C1.06659 3.79918 1.04976 3.81628 1.03345 3.83337C1.01662 3.85047 1.00032 3.86809 0.983488 3.88572C0.967184 3.90388 0.950353 3.92205 0.934049 3.94074C0.917744 3.95944 0.900914 3.97867 0.884084 3.99843C0.867779 4.0182 0.850949 4.03797 0.834118 4.05826C0.817814 4.07856 0.800984 4.0994 0.784153 4.12076C0.767323 4.14213 0.751019 4.1635 0.734188 4.1854C0.717884 4.2073 0.701053 4.22974 0.684223 4.25271C0.667919 4.27568 0.651088 4.29865 0.634784 4.32215C0.618479 4.34566 0.601649 4.3697 0.584819 4.39427C0.568514 4.41884 0.551684 4.44341 0.53538 4.46905C0.519075 4.49416 0.502245 4.5198 0.48594 4.54598C0.469636 4.57215 0.452806 4.59833 0.436501 4.62504C0.420197 4.65175 0.403366 4.67899 0.387062 4.70677C0.370758 4.73455 0.353927 4.76232 0.337623 4.79064C0.321318 4.81895 0.304488 4.84779 0.288184 4.87717C0.271879 4.90655 0.255049 4.93594 0.238744 4.96638C0.22244 4.9963 0.20561 5.02675 0.189305 5.05773C0.173001 5.08871 0.156696 5.1197 0.140392 5.15121C0.124088 5.18273 0.107783 5.21478 0.0914788 5.24737C0.0751744 5.27995 0.05887 5.31254 0.0425656 5.34566C0.0262612 5.37878 0.00995676 5.41243 -0.00634766 5.44662L-3.62713e-05 5.44876Z" fill="#EBECEC"/>
</g>
<defs>
<clipPath id="clip0_435_273">
<rect width="105" height="22" fill="white"/>
</clipPath>
</defs>
</svg>
