<svg width="72" height="73" viewBox="0 0 72 73" fill="none" xmlns="http://www.w3.org/2000/svg">
<path fill-rule="evenodd" clip-rule="evenodd" d="M36.8392 29.7296C36.9774 30.761 36.7011 32.5254 37.1511 33.3519C38.5345 35.8915 40.1073 31.5162 43.9613 29.89C47.8577 28.2459 52.6095 28.9566 55.5523 31.9908C59.5044 36.0675 58.9875 38.7386 58.9875 44.1498C58.9875 49.2803 58.9875 54.4086 58.9875 59.6149L51.5045 59.6327C51.5045 54.3774 51.4934 49.1221 51.5067 43.8691C51.5179 39.3067 49.7468 35.1319 44.5138 35.1363C39.1895 35.1408 37.434 39.202 37.4474 43.8691C37.463 49.091 37.4496 54.315 37.4496 59.6149L29.9644 59.6327L30.0691 29.7051L36.837 29.7296H36.8392ZM11.9998 1.02282C10.3424 1.88273 11.6367 4.21073 13.2786 3.41542C14.7912 2.68249 13.7731 0.102759 11.9998 1.02282ZM58.4283 69.8246C56.7709 70.6845 58.0652 73.0125 59.7071 72.2172C61.2175 71.4865 60.2039 68.9023 58.4283 69.8246ZM12.784 18.9785C11.7681 12.8433 20.8774 11.5222 21.7863 17.3723C22.7443 23.532 13.7174 24.6058 12.784 18.9785ZM15.2947 11.1257C5.65298 14.0641 10.231 27.9028 19.4182 25.1917C28.5141 22.5072 24.5421 8.30756 15.2947 11.1257ZM13.615 29.7162L21.0155 29.7073L21.02 59.6416L13.537 59.5369L13.615 29.714V29.7162ZM11.3939 62.1656C12.8107 62.7003 22.3277 62.7092 23.4549 61.9518C24.2792 61.0874 23.7935 35.4014 23.8203 30.7254C23.8292 29.1504 24.3171 27.1966 22.3722 26.9315C21.118 26.76 18.5049 26.9137 17.1058 26.9137C9.68297 26.9137 10.7434 24.1112 10.7434 41.6347C10.7434 45.1768 10.7434 48.7212 10.7434 52.2633C10.7434 54.4197 10.0728 60.7443 11.3939 62.1679V62.1656ZM3.27374 69.1719C2.37373 67.6704 2.84156 27.3949 2.84156 20.099C2.84156 17.4012 2.22002 5.38921 3.41186 3.88993C5.12277 3.17482 7.79162 4.34885 8.33073 2.59784C9.02133 0.356722 5.4703 0.708706 4.27623 0.837916C-0.662692 1.3748 0.0524159 5.13302 0.0479604 8.91573L0.0435049 58.1356C0.0435049 72.8878 -1.27978 72.4044 10.6699 72.3999L53.6832 72.3331C55.4565 71.8296 55.4365 69.5617 52.3778 69.5595C47.0557 69.5551 4.80866 70.092 3.26929 69.1741L3.27374 69.1719ZM68.4176 4.02805C69.3176 5.53178 68.8475 45.805 68.8475 53.1009C68.8475 55.8009 69.4691 67.8063 68.275 69.3078C66.5619 70.0251 63.893 68.8489 63.3539 70.5999C62.6633 72.8432 66.2633 72.4823 67.4552 72.3843C72.2916 71.9811 71.6367 67.8954 71.6389 64.2842L71.6411 15.0643C71.6411 0.305483 72.9622 0.795589 61.0148 0.800044C58.8427 0.800044 19.2133 0.58618 18.0905 0.92257C16.0989 1.51738 16.4152 3.64265 19.3113 3.64488C24.6334 3.64934 66.8737 3.10576 68.4131 4.02805H68.4176ZM39.9314 28.9543C38.9578 27.2635 41.0675 26.9048 35.008 26.9115C33.3573 26.9137 29.1424 26.6241 27.8503 27.1766C26.5671 28.5489 27.1775 41.6213 27.1775 44.4305C27.1775 47.1194 26.7965 60.5349 27.5317 61.9829C28.8327 62.7382 38.6771 62.7315 39.9113 61.9183C40.6108 60.4703 40.2521 50.4232 40.2521 48.0662C40.2521 44.4862 39.1316 37.9032 44.5161 37.9433C49.8181 37.9834 48.7131 44.5352 48.7131 48.0662C48.7131 50.49 48.2988 60.4659 49.0673 61.9829C50.5599 62.8495 55.9333 62.4084 57.9405 62.433C62.8705 62.4909 61.7833 61.6042 61.79 57.0151C61.7967 51.3878 62.1888 44.0674 61.7321 38.6384C61.3378 33.94 58.4573 29.7897 54.2669 27.6801C49.0117 25.0313 44.6854 26.1206 39.9336 28.9543H39.9314Z" fill="#ABC2B3"/>
</svg>
