<svg width="72" height="73" viewBox="0 0 72 73" fill="none" xmlns="http://www.w3.org/2000/svg">
<path fill-rule="evenodd" clip-rule="evenodd" d="M68.4159 3.76252C69.3159 5.26707 68.8472 45.5394 68.8472 52.8357C68.8472 55.5356 69.4695 67.5405 68.2761 69.0431C66.5628 69.7599 63.8944 68.5842 63.3548 70.335C62.6635 72.578 66.2634 72.2176 67.4568 72.1192C72.2915 71.7154 71.6377 67.6311 71.6397 64.0194L71.6436 14.7985C71.6436 0.0405246 72.963 0.528914 61.0152 0.534822C58.8431 0.534822 19.2147 0.320167 18.0902 0.656919C16.0973 1.25165 16.4163 3.3785 19.3112 3.38047C24.6342 3.38441 66.8739 2.84285 68.4139 3.76252H68.4159ZM14.2127 15.1451C15.156 17.1085 17.1036 19.2649 18.3994 21.0432C19.6243 22.725 21.4558 25.1078 22.7024 26.7995L31.3043 38.3416C31.0404 39.1904 22.2435 48.8419 20.5361 50.5001C19.7051 51.3075 19.1399 52.1484 18.4368 52.879C17.6688 53.6766 14.7267 56.6404 14.3387 57.5305C15.0969 57.6132 18.0174 57.7137 18.6397 57.5286C19.4412 57.2922 33.506 41.5555 33.5847 41.4728L42.8149 53.6687C43.5987 54.738 44.8236 56.475 45.8496 57.5994L57.4764 57.5286C56.9092 56.091 50.4204 47.9164 48.9158 45.8978C47.494 43.9896 40.7845 35.3975 40.3178 34.1411C43.1615 31.0217 45.9953 27.7132 48.9335 24.6411C50.4775 23.0263 56.8817 16.2105 57.3267 15.1609C52.0509 14.8812 53.2266 14.8064 50.7295 17.4847C49.2368 19.0857 48.0119 20.348 46.5133 21.9451C44.8157 23.7549 39.5104 30.2596 38.0157 31.1398L29.3803 19.8321C26.316 16.0313 26.9817 15.0998 24.0494 15.0959C20.7882 15.0919 17.466 15.0604 14.2107 15.1372L14.2127 15.1451ZM18.8031 17.4275L20.4199 19.8754C21.1801 20.8856 21.5109 21.3918 22.2061 22.274C23.3759 23.7589 24.5299 25.3048 25.808 27.0614C32.6021 36.3841 40.7511 46.5142 46.9721 55.3308L52.8288 55.3229C52.5275 54.161 32.1865 27.3785 31.5859 26.5966C23.498 16.0628 26.6784 17.268 18.7992 17.4295L18.8031 17.4275ZM12.0011 0.759323C10.3449 1.61991 11.6368 3.94763 13.2792 3.15203C14.7916 2.41945 13.7735 -0.162313 12.0011 0.759323ZM58.4295 69.561C56.7733 70.4216 58.0672 72.7493 59.7096 71.9537C61.22 71.2231 60.2059 68.6394 58.4295 69.561ZM3.27317 68.9052C2.37319 67.4027 2.84189 27.1284 2.84189 19.8321C2.84189 17.1341 2.22155 5.12134 3.41102 3.6227C5.12235 2.90784 7.79076 4.08154 8.33035 2.33083C9.02157 0.0897582 5.46894 0.442264 4.27554 0.572239C-0.663481 1.10986 0.0513777 4.8673 0.047439 8.65034L0.0435004 57.8692C0.0435004 72.6233 -1.27987 72.1388 10.6719 72.1329L53.6855 72.066C55.4578 71.5618 55.4382 69.2952 52.3798 69.2912C47.0588 69.2873 4.80923 69.8249 3.27317 68.9052Z" fill="#D5D5D5"/>
</svg>
