<svg width="72" height="73" viewBox="0 0 72 73" fill="none" xmlns="http://www.w3.org/2000/svg">
<path fill-rule="evenodd" clip-rule="evenodd" d="M68.4159 4.02881C69.3159 5.53336 68.8472 45.8057 68.8472 53.102C68.8472 55.8019 69.4695 67.8068 68.2761 69.3094C66.5628 70.0262 63.8944 68.8505 63.3548 70.6013C62.6635 72.8443 66.2634 72.4839 67.4568 72.3855C72.2915 71.9817 71.6377 67.8974 71.6397 64.2857L71.6436 15.0648C71.6436 0.306821 72.963 0.79521 61.0152 0.801118C58.8431 0.801118 19.2147 0.586464 18.0902 0.923215C16.0973 1.51795 16.4163 3.6448 19.3112 3.64677C24.6342 3.65071 66.8739 3.10915 68.4139 4.02881H68.4159ZM14.2127 15.4114C15.156 17.3748 17.1036 19.5312 18.3994 21.3095C19.6243 22.9913 21.4558 25.3741 22.7024 27.0658L31.3043 38.6079C31.0404 39.4567 22.2435 49.1082 20.5361 50.7664C19.7051 51.5738 19.1399 52.4147 18.4368 53.1453C17.6688 53.9429 14.7267 56.9067 14.3387 57.7968C15.0969 57.8795 18.0174 57.98 18.6397 57.7948C19.4412 57.5585 33.506 41.8218 33.5847 41.7391L42.8149 53.935C43.5987 55.0043 44.8236 56.7413 45.8496 57.8657L57.4764 57.7948C56.9092 56.3573 50.4204 48.1827 48.9158 46.1641C47.494 44.2559 40.7845 35.6638 40.3178 34.4074C43.1615 31.288 45.9953 27.9795 48.9335 24.9074C50.4775 23.2926 56.8817 16.4768 57.3267 15.4272C52.0509 15.1475 53.2266 15.0727 50.7295 17.7509C49.2368 19.352 48.0119 20.6143 46.5133 22.2114C44.8157 24.0212 39.5104 30.5258 38.0157 31.4061L29.3803 20.0984C26.316 16.2976 26.9817 15.3661 24.0494 15.3622C20.7882 15.3582 17.466 15.3267 14.2107 15.4035L14.2127 15.4114ZM18.8031 17.6938L20.4199 20.1417C21.1801 21.1519 21.5109 21.6581 22.2061 22.5403C23.3759 24.0252 24.5299 25.5711 25.808 27.3277C32.6021 36.6504 40.7511 46.7805 46.9721 55.5971L52.8288 55.5892C52.5275 54.4273 32.1865 27.6447 31.5859 26.8629C23.498 16.3291 26.6784 17.5343 18.7992 17.6958L18.8031 17.6938ZM12.0011 1.02562C10.3449 1.88621 11.6368 4.21393 13.2792 3.41833C14.7916 2.68575 13.7735 0.103983 12.0011 1.02562ZM58.4295 69.8273C56.7733 70.6879 58.0672 73.0156 59.7096 72.22C61.22 71.4894 60.2059 68.9057 58.4295 69.8273ZM3.27317 69.1715C2.37319 67.669 2.84189 27.3946 2.84189 20.0984C2.84189 17.4004 2.22155 5.38764 3.41102 3.88899C5.12235 3.17413 7.79076 4.34784 8.33035 2.59713C9.02157 0.356055 5.46894 0.708561 4.27554 0.838535C-0.663481 1.37616 0.0513777 5.13359 0.047439 8.91664L0.0435004 58.1355C0.0435004 72.8896 -1.27987 72.4051 10.6719 72.3992L53.6855 72.3323C55.4578 71.8281 55.4382 69.5615 52.3798 69.5575C47.0588 69.5536 4.80923 70.0912 3.27317 69.1715Z" fill="#ABC2B3"/>
</svg>
