<svg width="67" height="68" viewBox="0 0 67 68" fill="none" xmlns="http://www.w3.org/2000/svg">
<path fill-rule="evenodd" clip-rule="evenodd" d="M36.358 32.2602C37.5321 31.8667 37.1681 29.889 37.1648 28.3606C37.155 24.3397 36.7024 19.43 39.2507 16.3766C43.1371 11.7194 47.3877 12.618 54.4423 12.618V20.0499C51.7825 20.0499 45.902 19.1906 44.9049 21.2502C44.3211 22.4539 44.4031 30.768 44.8426 31.8667C46.161 33.0474 52.1531 32.4406 54.2291 32.4406L53.2879 39.8462C42.7829 40.2102 44.5966 36.8092 44.5966 53.4209C44.5966 55.5495 44.167 65.4181 44.9804 66.425C45.4198 66.9038 45.1804 66.8415 46.0167 66.9793C46.4923 67.058 50.0672 67.1662 50.7034 66.707C51.4447 66.1725 51.3889 65.0049 50.5395 64.5719C49.6933 64.139 48.1977 64.385 47.2073 64.385L47.2106 42.4798L55.0359 42.447C56.1445 41.1515 56.4495 35.5858 56.8365 32.9096C57.0792 31.2107 57.4269 30.4137 56.0363 30.0169L55.423 29.6758L47.3811 29.7184L47.5057 22.6802C49.8343 22.5687 55.0163 22.9786 56.7086 22.3456C57.2826 20.9419 57.276 11.7719 56.7316 10.3222C55.1901 9.74499 48.6831 9.9221 46.5218 10.0205C40.7692 10.2829 36.1678 14.1759 34.8887 19.5809C34.1048 22.8901 34.9838 26.665 34.4426 29.83C32.5896 29.83 28.2505 29.4626 26.8829 30.0956C26.2827 30.5974 26.532 29.9546 26.3188 31.0566C26.2466 31.4305 26.2827 32.3619 26.286 32.785C26.2958 33.9198 26.2926 35.0545 26.2926 36.1893C26.2926 37.3241 26.2958 38.4589 26.286 39.5937C26.2827 39.961 26.2532 40.7711 26.2991 41.0958C26.4664 42.2404 26.3942 41.7943 26.9977 42.2141C28.0341 42.8176 32.9143 42.4798 34.5213 42.4798L34.5509 64.385C30.648 64.385 4.55789 64.7654 3.19353 64.0997C2.19322 63.3191 2.67206 51.1514 2.67206 49.2426C2.67206 42.9029 2.36049 4.05469 2.95411 3.2938C4.38407 2.09015 8.60178 3.75296 7.79497 1.0636C7.29645 -0.602499 2.71142 0.20431 1.79966 0.850414C-0.0796202 2.18198 0.0581277 3.9727 0.0614075 6.6883V59.1637C0.0614075 61.5415 -0.381354 64.1161 1.11092 65.6838C2.79013 67.4483 4.60709 66.9957 7.36861 66.9957H29.8215C31.5794 66.9957 35.7086 67.4745 36.8762 66.4742C37.4796 65.3164 37.46 41.4893 36.8565 40.3677C35.5413 39.3542 30.9497 39.8724 29.0409 39.8724V32.6243H35.4987C36.6761 32.4668 36.1087 32.4504 36.3514 32.2602H36.358ZM54.6129 64.5687C52.9763 65.4148 54.2423 67.5663 55.7509 66.8284C57.1874 66.1265 56.1674 63.7651 54.6129 64.5687ZM11.2747 0.345338C9.63817 1.1915 10.9041 3.343 12.4128 2.60506C13.8493 1.9032 12.8293 -0.458192 11.2747 0.345338ZM63.7633 3.05766C64.7865 4.27771 64.2847 15.6518 64.2847 17.9148C64.2847 24.2577 64.5996 63.0961 63.9994 63.8635C62.5006 65.1164 60.2212 63.6569 59.3258 64.936C57.8499 67.0449 61.2018 67.0383 62.4678 67.0055C66.9347 66.8776 66.8987 63.9882 66.8954 59.9476C66.8921 54.3032 67.2758 4.20556 66.5937 2.54275C65.2949 -0.632016 60.7262 0.161674 57.2334 0.161674L17.0339 0.181352C15.3186 0.44045 14.9021 2.72969 17.7915 2.78872C23.3277 2.90023 62.1759 2.28037 63.76 3.05766H63.7633Z" fill="#D5D5D5"/>
</svg>
