<svg width="72" height="72" viewBox="0 0 72 72" fill="none" xmlns="http://www.w3.org/2000/svg">
<path fill-rule="evenodd" clip-rule="evenodd" d="M68.4159 3.29511C69.3159 4.79966 68.8472 45.072 68.8472 52.3683C68.8472 55.0682 69.4695 67.0731 68.2761 68.5757C66.5628 69.2925 63.8944 68.1168 63.3548 69.8676C62.6635 72.1106 66.2634 71.7502 67.4568 71.6517C72.2915 71.248 71.6377 67.1637 71.6397 63.552L71.6436 14.3311C71.6436 -0.426883 72.963 0.0615067 61.0152 0.0674146C58.8431 0.0674146 19.2147 -0.14724 18.0902 0.189512C16.0973 0.784243 16.4163 2.91109 19.3112 2.91306C24.6342 2.917 66.8739 2.37544 68.4139 3.29511H68.4159ZM14.2127 14.6777C15.156 16.6411 17.1036 18.7975 18.3994 20.5758C19.6243 22.2576 21.4558 24.6404 22.7024 26.3321L31.3043 37.8742C31.0404 38.723 22.2435 48.3745 20.5361 50.0327C19.7051 50.8401 19.1399 51.681 18.4368 52.4116C17.6688 53.2092 14.7267 56.173 14.3387 57.0631C15.0969 57.1458 18.0174 57.2463 18.6397 57.0611C19.4412 56.8248 33.506 41.0881 33.5847 41.0054L42.8149 53.2013C43.5987 54.2706 44.8236 56.0076 45.8496 57.132L57.4764 57.0611C56.9092 55.6236 50.4204 47.449 48.9158 45.4304C47.494 43.5222 40.7845 34.9301 40.3178 33.6736C43.1615 30.5543 45.9953 27.2458 48.9335 24.1737C50.4775 22.5589 56.8817 15.7431 57.3267 14.6935C52.0509 14.4138 53.2266 14.339 50.7295 17.0172C49.2368 18.6183 48.0119 19.8806 46.5133 21.4777C44.8157 23.2875 39.5104 29.7921 38.0157 30.6724L29.3803 19.3647C26.316 15.5639 26.9817 14.6324 24.0494 14.6285C20.7882 14.6245 17.466 14.593 14.2107 14.6698L14.2127 14.6777ZM18.8031 16.9601L20.4199 19.408C21.1801 20.4182 21.5109 20.9244 22.2061 21.8066C23.3759 23.2915 24.5299 24.8374 25.808 26.594C32.6021 35.9167 40.7511 46.0468 46.9721 54.8634L52.8288 54.8555C52.5275 53.6936 32.1865 26.911 31.5859 26.1292C23.498 15.5954 26.6784 16.8006 18.7992 16.9621L18.8031 16.9601ZM12.0011 0.291916C10.3449 1.1525 11.6368 3.48022 13.2792 2.68462C14.7916 1.95204 13.7735 -0.62972 12.0011 0.291916ZM58.4295 69.0936C56.7733 69.9542 58.0672 72.2819 59.7096 71.4863C61.22 70.7557 60.2059 68.172 58.4295 69.0936ZM3.27317 68.4378C2.37319 66.9352 2.84189 26.6609 2.84189 19.3647C2.84189 16.6667 2.22155 4.65393 3.41102 3.15529C5.12235 2.44043 7.79076 3.61414 8.33035 1.86342C9.02157 -0.377649 5.46894 -0.0251429 4.27554 0.104831C-0.663481 0.642452 0.0513777 4.39989 0.047439 8.18293L0.0435004 57.4018C0.0435004 72.1559 -1.27987 71.6714 10.6719 71.6655L53.6855 71.5986C55.4578 71.0944 55.4382 68.8278 52.3798 68.8238C47.0588 68.8199 4.80923 69.3575 3.27317 68.4378Z" fill="#1C2C3C"/>
</svg>
