<svg width="67" height="68" viewBox="0 0 67 68" fill="none" xmlns="http://www.w3.org/2000/svg">
<path fill-rule="evenodd" clip-rule="evenodd" d="M36.358 32.1867C37.5321 31.7932 37.1681 29.8155 37.1648 28.2872C37.155 24.2662 36.7024 19.3565 39.2507 16.3031C43.1371 11.6459 47.3877 12.5445 54.4423 12.5445V19.9764C51.7825 19.9764 45.9019 19.1171 44.9049 21.1767C44.3211 22.3804 44.4031 30.6945 44.8426 31.7932C46.161 32.9739 52.1531 32.3671 54.2291 32.3671L53.2879 39.7727C42.7829 40.1368 44.5966 36.7357 44.5966 53.3474C44.5966 55.476 44.167 65.3446 44.9803 66.3515C45.4198 66.8303 45.1804 66.768 46.0167 66.9058C46.4923 66.9845 50.0672 67.0927 50.7034 66.6336C51.4447 66.099 51.3889 64.9314 50.5395 64.4985C49.6933 64.0655 48.1977 64.3115 47.2073 64.3115L47.2106 42.4063L55.0359 42.3735C56.1445 41.078 56.4495 35.5124 56.8365 32.8361C57.0792 31.1372 57.4269 30.3403 56.0363 29.9434L55.4229 29.6023L47.3811 29.645L47.5057 22.6067C49.8343 22.4952 55.0163 22.9051 56.7086 22.2722C57.2825 20.8684 57.276 11.6984 56.7316 10.2487C55.1901 9.67151 48.6831 9.84861 46.5218 9.947C40.7692 10.2094 36.1678 14.1024 34.8887 19.5074C34.1048 22.8166 34.9838 26.5915 34.4426 29.7565C32.5896 29.7565 28.2505 29.3891 26.8829 30.0221C26.2827 30.5239 26.532 29.8811 26.3188 30.9831C26.2466 31.357 26.2827 32.2884 26.286 32.7115C26.2958 33.8463 26.2925 34.981 26.2925 36.1158C26.2925 37.2506 26.2958 38.3854 26.286 39.5202C26.2827 39.8875 26.2532 40.6976 26.2991 41.0223C26.4664 42.1669 26.3942 41.7209 26.9977 42.1407C28.0341 42.7441 32.9143 42.4063 34.5213 42.4063L34.5509 64.3115C30.648 64.3115 4.55789 64.692 3.19353 64.0262C2.19322 63.2456 2.67206 51.0779 2.67206 49.1691C2.67206 42.8294 2.36049 3.98121 2.95411 3.22031C4.38407 2.01666 8.60178 3.67947 7.79497 0.990109C7.29645 -0.675985 2.71141 0.130824 1.79965 0.776927C-0.0796202 2.10849 0.0581277 3.89921 0.0614075 6.61482V59.0902C0.0614075 61.468 -0.381354 64.0426 1.11092 65.6103C2.79013 67.3748 4.60709 66.9222 7.36861 66.9222H29.8215C31.5794 66.9222 35.7086 67.401 36.8762 66.4007C37.4796 65.243 37.46 41.4158 36.8565 40.2942C35.5413 39.2808 30.9497 39.7989 29.0409 39.7989V32.5508H35.4987C36.6761 32.3934 36.1087 32.377 36.3514 32.1867H36.358ZM54.6129 64.4952C52.9763 65.3413 54.2423 67.4928 55.7509 66.7549C57.1874 66.053 56.1674 63.6917 54.6129 64.4952ZM11.2747 0.271852C9.63817 1.11802 10.9041 3.26951 12.4128 2.53157C13.8493 1.82972 12.8293 -0.531678 11.2747 0.271852ZM63.7633 2.98417C64.7865 4.20423 64.2847 15.5783 64.2847 17.8413C64.2847 24.1842 64.5996 63.0226 63.9994 63.79C62.5006 65.0429 60.2212 63.5834 59.3258 64.8625C57.8499 66.9714 61.2018 66.9648 62.4678 66.932C66.9347 66.8041 66.8987 63.9147 66.8954 59.8741C66.8921 54.2297 67.2758 4.13207 66.5936 2.46926C65.2949 -0.705503 60.7262 0.0881878 57.2333 0.0881878L17.0339 0.107866C15.3186 0.366963 14.9021 2.6562 17.7915 2.71524C23.3277 2.82675 62.1759 2.20688 63.76 2.98417H63.7633Z" fill="#1C2C3C"/>
</svg>
