<svg width="64" height="65" viewBox="0 0 64 65" fill="none" xmlns="http://www.w3.org/2000/svg">
<path fill-rule="evenodd" clip-rule="evenodd" d="M28.3677 2.78264C29.5263 3.97676 31.8714 3.51787 34.7794 3.51787C41.437 3.51787 49.7401 2.70151 54.4303 5.28242C57.1405 6.77317 59.7519 9.55436 60.8623 13.304C61.8891 16.7622 61.4277 36.375 61.4277 41.3721C61.4277 45.8139 61.9246 50.5574 60.1677 54.2994C55.8323 63.5278 47.4279 62.2906 39.5128 62.2906C33.854 62.2906 15.7294 62.9853 11.6881 61.4768C1.83858 57.7981 2.65493 49.0514 2.65493 41.8715C2.65493 37.057 2.65493 32.2425 2.65493 27.4281C2.65493 19.0794 1.07799 10.2262 9.33285 5.46496C15.1868 2.08798 20.0951 4.56494 20.7898 2.78264C21.8115 0.161166 15.093 1.02823 13.8456 1.22852C11.6577 1.58092 9.7892 2.2908 8.13367 3.27448C5.05077 5.10495 2.55099 7.78221 1.06532 11.897C-0.567401 16.4174 0.162758 35.8883 0.162758 42.1225C0.162758 47.2336 -0.265703 51.825 1.9552 56.026C7.13223 65.8197 15.8967 64.7853 24.5673 64.7853C29.7139 64.7853 34.8605 64.7853 40.0072 64.7853C45.1588 64.7853 49.8161 65.2949 54.3086 63.3909C57.7414 61.9357 60.7305 58.9339 62.2872 55.6964C64.4117 51.2799 63.9148 46.8533 63.9148 41.6256C63.9148 36.479 63.9148 31.3324 63.9148 26.1858C63.9148 21.4828 64.4421 15.6847 62.8728 11.542C61.3618 7.54896 58.8671 4.98073 55.6295 3.09194C50.6807 0.206801 41.2469 1.0333 34.2774 1.0333C29.9142 1.0333 28.2562 0.417229 28.3626 2.78771L28.3677 2.78264ZM24.0577 1.20316C22.4909 2.01192 23.7104 4.06296 25.1454 3.36068C26.5093 2.69391 25.5409 0.437511 24.0577 1.20316ZM39.0006 57.4863C37.4338 58.295 38.6533 60.3461 40.0883 59.6438C41.4523 58.977 40.4838 56.7206 39.0006 57.4863ZM46.8854 14.9951C49.9074 13.6336 51.3779 18.2985 48.7463 19.4749C46.7282 20.3749 44.5301 18.3442 45.4707 16.1993C45.9955 15.0001 46.7561 15.0534 46.8854 14.9951ZM46.6952 12.3685C44.3044 12.9364 42.1621 15.2663 42.8745 18.3391C44.345 24.6798 54.0627 22.4893 52.577 16.0979C52.0472 13.8111 49.555 11.6891 46.6927 12.3685H46.6952ZM30.6748 26.9033C38.6787 24.9917 41.2672 37.0165 33.5954 38.9306C25.6803 40.9056 22.3794 28.8833 30.6748 26.9033ZM30.4035 24.3959C18.5993 26.9945 22.9422 43.8541 33.849 41.4202C45.1969 38.8875 41.2469 22.0076 30.4035 24.3959ZM30.1576 21.9037C36.8051 20.6284 42.0278 25.5165 43.0469 30.8507C44.3399 37.6021 39.4595 42.8958 34.0974 43.9175C19.7731 46.6429 15.1716 24.7762 30.1551 21.9037H30.1576ZM30.4644 19.3101C23.4543 20.1645 17.4787 26.4545 18.4396 34.5395C19.2661 41.4912 25.6676 47.4669 33.669 46.5085C40.6258 45.677 46.5989 39.2881 45.6405 31.2791C44.8115 24.3426 38.4226 18.3391 30.4644 19.3101ZM35.7124 59.0658C35.7327 57.8615 35.862 57.3088 33.5422 57.3063C32.4622 57.3063 31.3796 57.3139 30.297 57.3139C25.7361 57.3139 15.4023 57.8285 12.5019 56.4265C10.0427 55.24 7.80408 52.5171 7.64436 48.8562C7.37562 42.6676 7.63422 30.7924 7.63422 23.9421C7.63422 18.3416 6.33869 8.52251 17.0984 8.49969L42.2509 8.50222C49.1975 8.50222 56.4535 7.87601 56.4459 19.2112V44.1152C56.4459 48.7168 56.8819 51.3332 54.2326 54.3476C51.3373 57.646 49.6919 56.926 44.7253 57.3088C42.8543 57.4533 42.2483 59.8086 45.4783 59.8111C47.58 59.8137 49.4434 59.8263 51.3525 59.1951C59.9927 56.3378 58.9355 47.7128 58.9355 41.8741C58.9355 33.7155 59.2144 25.0601 58.9279 16.965C58.7885 13.0252 56.8414 10.2287 54.8461 8.60363C51.7936 6.11653 49.6666 6.01258 44.989 6.01512C36.6048 6.01512 28.2207 6.01512 19.8365 6.01512C15.6609 6.01512 12.365 6.10385 9.64215 8.26898C7.64436 9.8586 5.50965 12.3381 5.19021 16.2272C4.89612 19.8096 5.14204 36.1722 5.14204 41.1287C5.14204 44.6426 4.73132 49.7867 5.94826 52.7757C9.29736 61.0052 17.2353 59.8061 23.822 59.8061L33.2887 59.8111C34.7084 59.8187 34.8149 59.9962 35.7124 59.0683V59.0658Z" fill="#ABC2B3"/>
</svg>
