<svg width="64" height="65" viewBox="0 0 64 65" fill="none" xmlns="http://www.w3.org/2000/svg">
<path fill-rule="evenodd" clip-rule="evenodd" d="M28.3677 2.70629C29.5263 3.9004 31.8714 3.44152 34.7794 3.44152C41.437 3.44152 49.7401 2.62516 54.4303 5.20607C57.1405 6.69681 59.7519 9.47801 60.8623 13.2277C61.8891 16.6858 61.4277 36.2987 61.4277 41.2957C61.4277 45.7375 61.9246 50.481 60.1677 54.2231C55.8323 63.4515 47.4279 62.2143 39.5128 62.2143C33.854 62.2143 15.7294 62.9089 11.6881 61.4005C1.83858 57.7218 2.65493 48.9751 2.65493 41.7952C2.65493 36.9807 2.65493 32.1662 2.65493 27.3517C2.65493 19.003 1.07799 10.1499 9.33285 5.38861C15.1868 2.01162 20.0951 4.48859 20.7898 2.70629C21.8115 0.084811 15.093 0.951875 13.8456 1.15216C11.6577 1.50457 9.7892 2.21444 8.13367 3.19813C5.05077 5.0286 2.55099 7.70585 1.06532 11.8206C-0.567401 16.341 0.162758 35.8119 0.162758 42.0462C0.162758 47.1573 -0.265703 51.7487 1.9552 55.9496C7.13223 65.7434 15.8967 64.709 24.5673 64.709C29.7139 64.709 34.8605 64.709 40.0072 64.709C45.1588 64.709 49.8161 65.2186 54.3086 63.3146C57.7414 61.8593 60.7305 58.8576 62.2872 55.62C64.4117 51.2036 63.9148 46.777 63.9148 41.5492C63.9148 36.4026 63.9148 31.256 63.9148 26.1094C63.9148 21.4065 64.4421 15.6083 62.8728 11.4657C61.3618 7.47261 58.8671 4.90437 55.6295 3.01559C50.6807 0.130446 41.2469 0.956946 34.2774 0.956946C29.9142 0.956946 28.2562 0.340874 28.3626 2.71136L28.3677 2.70629ZM24.0577 1.12681C22.4909 1.93556 23.7104 3.9866 25.1454 3.28433C26.5093 2.61755 25.5409 0.361156 24.0577 1.12681ZM39.0006 57.4099C37.4338 58.2187 38.6533 60.2697 40.0883 59.5675C41.4523 58.9007 40.4838 56.6443 39.0006 57.4099ZM46.8854 14.9187C49.9074 13.5573 51.3779 18.2222 48.7463 19.3985C46.7282 20.2986 44.5301 18.2678 45.4707 16.123C45.9955 14.9238 46.7561 14.977 46.8854 14.9187ZM46.6952 12.2922C44.3044 12.8601 42.1621 15.19 42.8745 18.2627C44.345 24.6035 54.0627 22.413 52.577 16.0216C52.0472 13.7347 49.555 11.6127 46.6927 12.2922H46.6952ZM30.6748 26.8269C38.6787 24.9153 41.2672 36.9401 33.5954 38.8542C25.6803 40.8292 22.3794 28.8069 30.6748 26.8269ZM30.4035 24.3195C18.5993 26.9182 22.9422 43.7778 33.849 41.3439C45.1969 38.8111 41.2469 21.9313 30.4035 24.3195ZM30.1576 21.8273C36.8051 20.5521 42.0278 25.4401 43.0469 30.7743C44.3399 37.5258 39.4595 42.8194 34.0974 43.8411C19.7731 46.5666 15.1716 24.6998 30.1551 21.8273H30.1576ZM30.4644 19.2337C23.4543 20.0881 17.4787 26.3782 18.4396 34.4632C19.2661 41.4149 25.6676 47.3905 33.669 46.4322C40.6258 45.6006 46.5989 39.2117 45.6405 31.2028C44.8115 24.2663 38.4226 18.2627 30.4644 19.2337ZM35.7124 58.9894C35.7327 57.7852 35.862 57.2325 33.5422 57.2299C32.4622 57.2299 31.3796 57.2375 30.297 57.2375C25.7361 57.2375 15.4023 57.7522 12.5019 56.3502C10.0427 55.1637 7.80408 52.4408 7.64436 48.7799C7.37562 42.5912 7.63422 30.716 7.63422 23.8657C7.63422 18.2653 6.33869 8.44615 17.0984 8.42333L42.2509 8.42587C49.1975 8.42587 56.4535 7.79966 56.4459 19.1349V44.0389C56.4459 48.6404 56.8819 51.2568 54.2326 54.2713C51.3373 57.5697 49.6919 56.8496 44.7253 57.2325C42.8543 57.377 42.2483 59.7322 45.4783 59.7348C47.58 59.7373 49.4434 59.75 51.3525 59.1187C59.9927 56.2615 58.9355 47.6364 58.9355 41.7977C58.9355 33.6392 59.2144 24.9838 58.9279 16.8886C58.7885 12.9488 56.8414 10.1524 54.8461 8.52728C51.7936 6.04017 49.6666 5.93623 44.989 5.93876C36.6048 5.93876 28.2207 5.93876 19.8365 5.93876C15.6609 5.93876 12.365 6.0275 9.64215 8.19262C7.64436 9.78224 5.50965 12.2617 5.19021 16.1509C4.89612 19.7332 5.14204 36.0959 5.14204 41.0523C5.14204 44.5662 4.73132 49.7103 5.94826 52.6994C9.29736 60.9289 17.2353 59.7297 23.822 59.7297L33.2887 59.7348C34.7084 59.7424 34.8149 59.9199 35.7124 58.9919V58.9894Z" fill="#D5D5D5"/>
</svg>
