<svg width="72" height="73" viewBox="0 0 72 73" fill="none" xmlns="http://www.w3.org/2000/svg">
<path fill-rule="evenodd" clip-rule="evenodd" d="M36.8392 29.4626C36.9774 30.4941 36.7011 32.2584 37.1511 33.0849C38.5345 35.6246 40.1073 31.2493 43.9613 29.623C47.8577 27.9789 52.6095 28.6896 55.5523 31.7238C59.5044 35.8006 58.9875 38.4716 58.9875 43.8828C58.9875 49.0133 58.9875 54.1416 58.9875 59.3479L51.5045 59.3657C51.5045 54.1104 51.4934 48.8552 51.5067 43.6021C51.5179 39.0397 49.7468 34.8649 44.5138 34.8694C39.1895 34.8738 37.434 38.935 37.4474 43.6021C37.463 48.824 37.4496 54.0481 37.4496 59.3479L29.9644 59.3657L30.0691 29.4381L36.837 29.4626H36.8392ZM11.9998 0.755851C10.3424 1.61576 11.6367 3.94376 13.2786 3.14845C14.7912 2.41552 13.7731 -0.164209 11.9998 0.755851ZM58.4283 69.5577C56.7709 70.4176 58.0652 72.7456 59.7071 71.9503C61.2175 71.2196 60.2039 68.6354 58.4283 69.5577ZM12.784 18.7115C11.7681 12.5763 20.8774 11.2552 21.7863 17.1053C22.7443 23.265 13.7174 24.3388 12.784 18.7115ZM15.2947 10.8587C5.65298 13.7971 10.231 27.6359 19.4182 24.9247C28.5141 22.2403 24.5421 8.04059 15.2947 10.8587ZM13.615 29.4493L21.0155 29.4403L21.02 59.3746L13.537 59.2699L13.615 29.447V29.4493ZM11.3939 61.8987C12.8107 62.4333 22.3277 62.4422 23.4549 61.6848C24.2792 60.8204 23.7935 35.1345 23.8203 30.4584C23.8292 28.8834 24.3171 26.9297 22.3722 26.6646C21.118 26.493 18.5049 26.6468 17.1058 26.6468C9.68297 26.6468 10.7434 23.8442 10.7434 41.3677C10.7434 44.9098 10.7434 48.4542 10.7434 51.9963C10.7434 54.1528 10.0728 60.4774 11.3939 61.9009V61.8987ZM3.27374 68.9049C2.37373 67.4034 2.84156 27.1279 2.84156 19.8321C2.84156 17.1343 2.22002 5.12224 3.41186 3.62296C5.12277 2.90786 7.79162 4.08188 8.33073 2.33087C9.02133 0.0897543 5.4703 0.441739 4.27623 0.570948C-0.662692 1.10784 0.0524159 4.86605 0.0479604 8.64877L0.0435049 57.8687C0.0435049 72.6208 -1.27978 72.1374 10.6699 72.1329L53.6832 72.0661C55.4565 71.5626 55.4365 69.2948 52.3778 69.2925C47.0557 69.2881 4.80866 69.825 3.26929 68.9072L3.27374 68.9049ZM68.4176 3.76108C69.3176 5.26482 68.8475 45.5381 68.8475 52.8339C68.8475 55.534 69.4691 67.5393 68.275 69.0408C66.5619 69.7581 63.893 68.5819 63.3539 70.3329C62.6633 72.5763 66.2633 72.2154 67.4552 72.1173C72.2916 71.7141 71.6367 67.6284 71.6389 64.0172L71.6411 14.7974C71.6411 0.0385155 72.9622 0.528621 61.0148 0.533076C58.8427 0.533076 19.2133 0.319212 18.0905 0.655603C16.0989 1.25041 16.4152 3.37568 19.3113 3.37791C24.6334 3.38237 66.8737 2.8388 68.4131 3.76108H68.4176ZM39.9314 28.6874C38.9578 26.9965 41.0675 26.6378 35.008 26.6445C33.3573 26.6468 29.1424 26.3571 27.8503 26.9096C26.5671 28.2819 27.1775 41.3544 27.1775 44.1635C27.1775 46.8524 26.7965 60.2679 27.5317 61.716C28.8327 62.4712 38.6771 62.4645 39.9113 61.6514C40.6108 60.2033 40.2521 50.1562 40.2521 47.7992C40.2521 44.2192 39.1316 37.6362 44.5161 37.6763C49.8181 37.7164 48.7131 44.2682 48.7131 47.7992C48.7131 50.223 48.2988 60.1989 49.0673 61.716C50.5599 62.5826 55.9333 62.1415 57.9405 62.166C62.8705 62.2239 61.7833 61.3373 61.79 56.7481C61.7967 51.1208 62.1888 43.8004 61.7321 38.3714C61.3378 33.6731 58.4573 29.5228 54.2669 27.4131C49.0117 24.7643 44.6854 25.8537 39.9336 28.6874H39.9314Z" fill="#D5D5D5"/>
</svg>
