<svg width="64" height="64" viewBox="0 0 64 64" fill="none" xmlns="http://www.w3.org/2000/svg">
<path fill-rule="evenodd" clip-rule="evenodd" d="M28.3677 1.859C29.5263 3.05311 31.8714 2.59423 34.7794 2.59423C41.437 2.59423 49.7401 1.77787 54.4303 4.35878C57.1405 5.84952 59.7519 8.63072 60.8623 12.3804C61.8891 15.8385 61.4277 35.4514 61.4277 40.4484C61.4277 44.8902 61.9246 49.6337 60.1677 53.3758C55.8323 62.6042 47.4279 61.367 39.5128 61.367C33.854 61.367 15.7294 62.0617 11.6881 60.5532C1.83858 56.8745 2.65493 48.1278 2.65493 40.9479C2.65493 36.1334 2.65493 31.3189 2.65493 26.5044C2.65493 18.1557 1.07799 9.30257 9.33285 4.54132C15.1868 1.16433 20.0951 3.6413 20.7898 1.859C21.8115 -0.762479 15.093 0.104585 13.8456 0.304872C11.6577 0.657275 9.7892 1.36715 8.13367 2.35084C5.05077 4.18131 2.55099 6.85856 1.06532 10.9733C-0.567401 15.4937 0.162758 34.9646 0.162758 41.1989C0.162758 46.31 -0.265703 50.9014 1.9552 55.1023C7.13223 64.8961 15.8967 63.8617 24.5673 63.8617C29.7139 63.8617 34.8605 63.8617 40.0072 63.8617C45.1588 63.8617 49.8161 64.3713 54.3086 62.4673C57.7414 61.0121 60.7305 58.0103 62.2872 54.7727C64.4117 50.3563 63.9148 45.9297 63.9148 40.702C63.9148 35.5553 63.9148 30.4087 63.9148 25.2621C63.9148 20.5592 64.4421 14.761 62.8728 10.6184C61.3618 6.62532 58.8671 4.05708 55.6295 2.1683C50.6807 -0.716844 41.2469 0.109656 34.2774 0.109656C29.9142 0.109656 28.2562 -0.506416 28.3626 1.86407L28.3677 1.859ZM24.0577 0.279519C22.4909 1.08827 23.7104 3.13931 25.1454 2.43704C26.5093 1.77026 25.5409 -0.486134 24.0577 0.279519ZM39.0006 56.5626C37.4338 57.3714 38.6533 59.4224 40.0883 58.7202C41.4523 58.0534 40.4838 55.797 39.0006 56.5626ZM46.8854 14.0714C49.9074 12.71 51.3779 17.3749 48.7463 18.5513C46.7282 19.4513 44.5301 17.4205 45.4707 15.2757C45.9955 14.0765 46.7561 14.1297 46.8854 14.0714ZM46.6952 11.4449C44.3044 12.0128 42.1621 14.3427 42.8745 17.4154C44.345 23.7562 54.0627 21.5657 52.577 15.1743C52.0472 12.8874 49.555 10.7654 46.6927 11.4449H46.6952ZM30.6748 25.9796C38.6787 24.068 41.2672 36.0928 33.5954 38.007C25.6803 39.9819 22.3794 27.9597 30.6748 25.9796ZM30.4035 23.4722C18.5993 26.0709 22.9422 42.9305 33.849 40.4966C45.1969 37.9639 41.2469 21.084 30.4035 23.4722ZM30.1576 20.98C36.8051 19.7048 42.0278 24.5928 43.0469 29.927C44.3399 36.6785 39.4595 41.9721 34.0974 42.9938C19.7731 45.7193 15.1716 23.8525 30.1551 20.98H30.1576ZM30.4644 18.3865C23.4543 19.2408 17.4787 25.5309 18.4396 33.6159C19.2661 40.5676 25.6676 46.5432 33.669 45.5849C40.6258 44.7533 46.5989 38.3644 45.6405 30.3555C44.8115 23.419 38.4226 17.4154 30.4644 18.3865ZM35.7124 58.1421C35.7327 56.9379 35.862 56.3852 33.5422 56.3826C32.4622 56.3826 31.3796 56.3902 30.297 56.3902C25.7361 56.3902 15.4023 56.9049 12.5019 55.5029C10.0427 54.3164 7.80408 51.5935 7.64436 47.9326C7.37562 41.744 7.63422 29.8687 7.63422 23.0184C7.63422 17.418 6.33869 7.59886 17.0984 7.57604L42.2509 7.57858C49.1975 7.57858 56.4535 6.95237 56.4459 18.2876V43.1916C56.4459 47.7931 56.8819 50.4095 54.2326 53.424C51.3373 56.7224 49.6919 56.0023 44.7253 56.3852C42.8543 56.5297 42.2483 58.885 45.4783 58.8875C47.58 58.89 49.4434 58.9027 51.3525 58.2714C59.9927 55.4142 58.9355 46.7892 58.9355 40.9504C58.9355 32.7919 59.2144 24.1365 58.9279 16.0413C58.7885 12.1015 56.8414 9.3051 54.8461 7.67999C51.7936 5.19288 49.6666 5.08894 44.989 5.09147C36.6048 5.09147 28.2207 5.09147 19.8365 5.09147C15.6609 5.09147 12.365 5.18021 9.64215 7.34533C7.64436 8.93495 5.50965 11.4145 5.19021 15.3036C4.89612 18.8859 5.14204 35.2486 5.14204 40.205C5.14204 43.7189 4.73132 48.863 5.94826 51.8521C9.29736 60.0816 17.2353 58.8824 23.822 58.8824L33.2887 58.8875C34.7084 58.8951 34.8149 59.0726 35.7124 58.1447V58.1421Z" fill="#1C2C3C"/>
</svg>
