<svg width="72" height="72" viewBox="0 0 72 72" fill="none" xmlns="http://www.w3.org/2000/svg">
<path fill-rule="evenodd" clip-rule="evenodd" d="M36.8392 28.9966C36.9774 30.028 36.7011 31.7924 37.1511 32.6189C38.5345 35.1585 40.1073 30.7832 43.9613 29.157C47.8577 27.5129 52.6095 28.2235 55.5523 31.2577C59.5044 35.3345 58.9875 38.0056 58.9875 43.4168C58.9875 48.5473 58.9875 53.6756 58.9875 58.8818L51.5045 58.8996C51.5045 53.6444 51.4934 48.3891 51.5067 43.1361C51.5179 38.5737 49.7468 34.3989 44.5138 34.4033C39.1895 34.4078 37.434 38.4689 37.4474 43.1361C37.463 48.3579 37.4496 53.582 37.4496 58.8818L29.9644 58.8996L30.0691 28.9721L36.837 28.9966H36.8392ZM11.9998 0.289787C10.3424 1.1497 11.6367 3.4777 13.2786 2.68239C14.7912 1.94946 13.7731 -0.630274 11.9998 0.289787ZM58.4283 69.0916C56.7709 69.9515 58.0652 72.2795 59.7071 71.4842C61.2175 70.7535 60.2039 68.1693 58.4283 69.0916ZM12.784 18.2454C11.7681 12.1102 20.8774 10.7892 21.7863 16.6392C22.7443 22.799 13.7174 23.8727 12.784 18.2454ZM15.2947 10.3926C5.65298 13.331 10.231 27.1698 19.4182 24.4586C28.5141 21.7742 24.5421 7.57453 15.2947 10.3926ZM13.615 28.9832L21.0155 28.9743L21.02 58.9086L13.537 58.8038L13.615 28.981V28.9832ZM11.3939 61.4326C12.8107 61.9672 22.3277 61.9762 23.4549 61.2187C24.2792 60.3544 23.7935 34.6684 23.8203 29.9924C23.8292 28.4173 24.3171 26.4636 22.3722 26.1985C21.118 26.027 18.5049 26.1807 17.1058 26.1807C9.68297 26.1807 10.7434 23.3782 10.7434 40.9016C10.7434 44.4438 10.7434 47.9881 10.7434 51.5302C10.7434 53.6867 10.0728 60.0113 11.3939 61.4348V61.4326ZM3.27374 68.4389C2.37373 66.9374 2.84156 26.6619 2.84156 19.366C2.84156 16.6682 2.22002 4.65618 3.41186 3.1569C5.12277 2.44179 7.79162 3.61582 8.33073 1.86481C9.02133 -0.37631 5.4703 -0.0243258 4.27623 0.104884C-0.662692 0.641771 0.0524159 4.39998 0.0479604 8.1827L0.0435049 57.4026C0.0435049 72.1547 -1.27978 71.6713 10.6699 71.6669L53.6832 71.6C55.4565 71.0966 55.4365 68.8287 52.3778 68.8265C47.0557 68.822 4.80866 69.3589 3.26929 68.4411L3.27374 68.4389ZM68.4176 3.29502C69.3176 4.79875 68.8475 45.072 68.8475 52.3679C68.8475 55.0679 69.4691 67.0732 68.275 68.5748C66.5619 69.2921 63.893 68.1158 63.3539 69.8669C62.6633 72.1102 66.2633 71.7493 67.4552 71.6513C72.2916 71.2481 71.6367 67.1624 71.6389 63.5512L71.6411 14.3313C71.6411 -0.427549 72.9622 0.0625564 61.0148 0.0670119C58.8427 0.0670119 19.2133 -0.146852 18.0905 0.189538C16.0989 0.784347 16.4152 2.90962 19.3113 2.91185C24.6334 2.9163 66.8737 2.37273 68.4131 3.29502H68.4176ZM39.9314 28.2213C38.9578 26.5304 41.0675 26.1718 35.008 26.1785C33.3573 26.1807 29.1424 25.8911 27.8503 26.4436C26.5671 27.8159 27.1775 40.8883 27.1775 43.6975C27.1775 46.3864 26.7965 59.8019 27.5317 61.2499C28.8327 62.0051 38.6771 61.9984 39.9113 61.1853C40.6108 59.7373 40.2521 49.6901 40.2521 47.3332C40.2521 43.7532 39.1316 37.1702 44.5161 37.2103C49.8181 37.2504 48.7131 43.8022 48.7131 47.3332C48.7131 49.757 48.2988 59.7328 49.0673 61.2499C50.5599 62.1165 55.9333 61.6754 57.9405 61.6999C62.8705 61.7578 61.7833 60.8712 61.79 56.282C61.7967 50.6547 62.1888 43.3344 61.7321 37.9053C61.3378 33.207 58.4573 29.0567 54.2669 26.947C49.0117 24.2982 44.6854 25.3876 39.9336 28.2213H39.9314Z" fill="#1C2C3C"/>
</svg>
