<svg width="67" height="68" viewBox="0 0 67 68" fill="none" xmlns="http://www.w3.org/2000/svg">
<path fill-rule="evenodd" clip-rule="evenodd" d="M36.358 32.2235C37.5321 31.8299 37.1681 29.8522 37.1648 28.3239C37.155 24.303 36.7024 19.3932 39.2507 16.3398C43.1371 11.6826 47.3877 12.5813 54.4423 12.5813V20.0131C51.7825 20.0131 45.902 19.1538 44.9049 21.2135C44.3211 22.4171 44.4031 30.7312 44.8426 31.8299C46.161 33.0106 52.1531 32.4039 54.2291 32.4039L53.2879 39.8095C42.7829 40.1735 44.5966 36.7724 44.5966 53.3842C44.5966 55.5127 44.167 65.3814 44.9804 66.3882C45.4198 66.8671 45.1804 66.8048 46.0167 66.9425C46.4923 67.0212 50.0672 67.1295 50.7034 66.6703C51.4447 66.1357 51.3889 64.9681 50.5395 64.5352C49.6933 64.1023 48.1977 64.3483 47.2073 64.3483L47.2106 42.4431L55.0359 42.4103C56.1445 41.1148 56.4495 35.5491 56.8365 32.8729C57.0792 31.174 57.4269 30.377 56.0363 29.9802L55.423 29.6391L47.3811 29.6817L47.5057 22.6434C49.8343 22.5319 55.0163 22.9419 56.7086 22.3089C57.2826 20.9052 57.276 11.7351 56.7316 10.2855C55.1901 9.70825 48.6831 9.88535 46.5218 9.98375C40.7692 10.2461 36.1678 14.1391 34.8887 19.5441C34.1048 22.8533 34.9838 26.6283 34.4426 29.7932C32.5896 29.7932 28.2505 29.4259 26.8829 30.0589C26.2827 30.5607 26.532 29.9178 26.3188 31.0198C26.2466 31.3937 26.2827 32.3251 26.286 32.7482C26.2958 33.883 26.2926 35.0178 26.2926 36.1526C26.2926 37.2874 26.2958 38.4221 26.286 39.5569C26.2827 39.9242 26.2532 40.7343 26.2991 41.059C26.4664 42.2036 26.3942 41.7576 26.9977 42.1774C28.0341 42.7809 32.9143 42.4431 34.5213 42.4431L34.5509 64.3483C30.648 64.3483 4.55789 64.7287 3.19353 64.0629C2.19322 63.2824 2.67206 51.1146 2.67206 49.2058C2.67206 42.8661 2.36049 4.01795 2.95411 3.25706C4.38407 2.0534 8.60178 3.71622 7.79497 1.02685C7.29645 -0.639242 2.71142 0.167567 1.79966 0.813671C-0.0796202 2.14523 0.0581277 3.93596 0.0614075 6.65156V59.127C0.0614075 61.5048 -0.381354 64.0793 1.11092 65.647C2.79013 67.4115 4.60709 66.9589 7.36861 66.9589H29.8215C31.5794 66.9589 35.7086 67.4378 36.8762 66.4374C37.4796 65.2797 37.46 41.4526 36.8565 40.3309C35.5413 39.3175 30.9497 39.8357 29.0409 39.8357V32.5875H35.4987C36.6761 32.4301 36.1087 32.4137 36.3514 32.2235H36.358ZM54.6129 64.5319C52.9763 65.3781 54.2423 67.5296 55.7509 66.7916C57.1874 66.0898 56.1674 63.7284 54.6129 64.5319ZM11.2747 0.308595C9.63817 1.15476 10.9041 3.30625 12.4128 2.56832C13.8493 1.86646 12.8293 -0.494935 11.2747 0.308595ZM63.7633 3.02092C64.7865 4.24097 64.2847 15.615 64.2847 17.878C64.2847 24.221 64.5996 63.0593 63.9994 63.8268C62.5006 65.0796 60.2212 63.6202 59.3258 64.8993C57.8499 67.0081 61.2018 67.0016 62.4678 66.9688C66.9347 66.8409 66.8987 63.9514 66.8954 59.9108C66.8921 54.2664 67.2758 4.16882 66.5937 2.506C65.2949 -0.668759 60.7262 0.124931 57.2334 0.124931L17.0339 0.144609C15.3186 0.403707 14.9021 2.69295 17.7915 2.75198C23.3277 2.86349 62.1759 2.24363 63.76 3.02092H63.7633Z" fill="#ABC2B3"/>
</svg>
