<svg width="35" height="43" viewBox="0 0 35 43" fill="none" xmlns="http://www.w3.org/2000/svg">
<path d="M3.96484 0.0311108C9.57571 -0.2851 10.95 1.8505 13.3193 4.55552C13.2175 4.47612 13.1141 4.39756 13.0107 4.32115C11.9498 3.54646 10.7984 2.95933 9.53516 2.56822C8.26592 2.17416 6.87987 1.97448 5.35742 1.97447H4.66016L4.66211 1.61217L4.16406 1.32994H4.16113L3.66211 1.04674L3.16211 1.32994H3.16016L2.66113 1.61217L2.65723 2.74693L3.65527 3.31138L4.65723 2.74693L4.65918 2.35533H5.35547C6.81961 2.35533 8.15831 2.54552 9.38867 2.92467C10.6265 3.3053 11.7489 3.87506 12.7754 4.62584C13.4453 5.11589 14.0783 5.685 14.6777 6.33092C15.2562 7.18963 15.8057 8.13897 16.3242 9.18052L23.1318 22.8534C23.9415 24.2899 24.6723 24.9247 25.2373 24.9725L26.3926 27.6825C26.9306 28.8289 27.4225 30.001 27.9141 31.1669C27.9935 31.3586 28.0753 31.5507 28.2715 32.0135C28.4154 32.3492 28.5325 32.625 28.6074 32.7928L28.9775 33.6307L29.0312 17.8622L29.8203 17.4178L29.8242 16.2821L29.3271 16.0008H29.3242L28.8252 15.7176L28.3242 16.0008H28.3223L27.8232 16.2821L27.8193 17.4169L28.6436 17.8827L28.5957 31.7254L27.4854 29.1678C27.319 28.7857 26.6069 27.0847 26.373 26.5555L25.6807 24.8739C25.9804 24.7 26.2544 24.2156 26.3428 23.4588L26.2861 0.314314H30.0869C32.2673 0.314505 34.7845 2.49484 34.7861 5.23717L34.793 31.1844C34.7971 31.1723 34.8025 31.1604 34.8066 31.1483C34.8231 40.819 31.7439 46.0356 25.7344 40.8758H25.7314C25.3104 40.5192 24.8767 40.1105 24.4287 39.6385C24.1695 39.3703 23.9055 39.0853 23.6357 38.7811L23.6436 38.7587C22.2978 37.1641 20.8311 34.9698 19.2246 31.8602L11.4102 16.7186C11.2008 16.3011 10.9966 15.9068 10.7998 15.535C10.9336 15.7915 11.072 16.0581 11.2129 16.3358C8.67424 15.4577 8.65889 19.7113 8.54199 21.3778L8.58398 41.121H6.25195C5.64668 41.1209 5.02662 40.9928 4.44531 40.7381C3.89531 40.4969 3.38083 40.1404 2.94922 39.6698C2.61358 39.3026 2.32567 38.8605 2.1084 38.3465C1.90912 37.8745 1.77133 37.3423 1.71289 36.7489L1.68164 36.4286L2.34863 36.0389L2.34375 35.035L1.91699 34.786H1.91504L1.48633 34.536L1.05957 34.786H1.05762L0.633789 35.035L0.638672 36.037L1.06738 36.2879V36.2889L1.35449 36.4569L1.37891 36.7157C1.43585 37.3361 1.57097 37.9299 1.80176 38.4784C2.01755 38.9894 2.31532 39.4677 2.71094 39.8993C3.66257 40.9408 4.98795 41.4608 6.25879 41.4608H8.58984L8.59277 42.9999H5.22852C2.73643 42.9997 0.0540329 41.1312 0.0478516 37.3924L0.00585938 10.8719L0 10.8651C0.00339958 10.8581 0.00636604 10.8506 0.00976562 10.8436C0.101781 6.09967 -0.351279 0.275137 3.96484 0.0311108ZM31.7168 41.5087C31.4905 41.654 31.2494 41.7802 30.9932 41.8837C30.4687 42.0949 29.9216 42.195 29.3701 42.204C30.1853 42.3538 30.996 42.1983 31.7168 41.5106V41.5087ZM28.7217 1.20787H28.7197L28.2959 1.45592L28.2998 2.45885L29.1572 2.95787L29.585 2.70787H29.5859L30.1973 2.35045L30.4375 2.47349C30.6623 2.58889 30.8886 2.73195 31.1074 2.8983C31.3216 3.06159 31.5242 3.24309 31.71 3.43931C32.0905 3.84237 32.4077 4.31774 32.6279 4.84361C32.8346 5.33801 32.9545 5.87264 32.9561 6.43443L33.0303 34.7831C33.0291 34.7845 33.0275 34.7856 33.0264 34.787L33.0312 34.786C33.0275 34.7907 33.0233 34.795 33.0195 34.7997C33.0195 34.798 33.0195 34.7964 33.0195 34.7948C31.6579 36.4822 30.0579 36.213 28.1338 33.2499L28.1055 33.1971L28.0771 33.1454L28.0488 33.0926L28.0195 33.0399L27.9912 32.9872L27.9629 32.9354L27.9062 32.8299L27.8779 32.7762L27.8496 32.7235L27.8203 32.6698L27.792 32.6171L27.707 32.4559L27.6787 32.4012L27.6494 32.3475L27.6211 32.2938L27.5645 32.1874L27.5361 32.1337L27.5078 32.079L27.4785 32.0253L27.4219 31.9178L27.3936 31.8631L27.3086 31.702L27.2793 31.6473L27.2529 31.5985L27.251 31.5936L27.1943 31.4862L27.166 31.4315L27.1377 31.3778L27.1084 31.3241L27.0801 31.2704L27.0518 31.2157L26.9385 31.0008L26.9092 30.9461C27.3101 31.7276 27.7181 32.4979 28.1348 33.2528C30.0582 36.2134 31.6582 36.4851 33.0195 34.7997C33.0277 36.436 33.2017 37.8761 32.3213 39.3817C31.9002 40.1009 31.3109 40.6334 30.5947 40.9227C29.8755 41.2134 29.0226 41.2585 28.0771 41.0008C26.688 40.6217 25.1004 39.5921 23.4385 37.7264L23.4297 37.7333C23.1195 37.3661 22.8027 36.9635 22.4775 36.5184C21.451 35.1143 20.347 33.2963 19.1406 30.9481L12.2002 17.4139L12.1943 17.4169L11.9697 16.9667C11.7195 16.4662 11.4611 15.9629 11.1914 15.4549C10.9292 14.9604 10.6983 14.5389 10.499 14.1913C10.2848 13.8197 10.0754 13.4718 9.87012 13.1512C9.83267 13.0913 9.79526 13.0328 9.75781 12.9774L9.7666 12.9715L9.75586 12.954L9.74512 12.9344L9.73535 12.9149L9.72461 12.8963L9.71875 12.8866L9.71387 12.8788L9.70312 12.8612L9.69434 12.8456L9.69336 12.8426L9.68262 12.8251L9.67188 12.8065L9.6709 12.8036L9.66016 12.7889L9.64355 12.7635L9.6377 12.7528L9.62695 12.7352L9.61914 12.7225L9.61621 12.7167L9.60645 12.6991L9.5957 12.6825L9.58398 12.6649L9.57324 12.6463L9.57031 12.6424L9.56055 12.6297L9.54883 12.6131L9.54297 12.6044L9.53809 12.5975L9.51758 12.5672L9.51562 12.5643L9.49219 12.5311L9.49023 12.5292L9.48047 12.5145L9.46777 12.4979L9.46387 12.492L9.45605 12.4813L9.43652 12.4549L9.43262 12.4491L9.41992 12.4325L9.40918 12.4169L9.39746 12.4003L9.36328 12.3544L9.35742 12.3465L9.35156 12.3397L9.33008 12.3124L9.3291 12.3094L9.31641 12.2948L9.30469 12.2792L9.30371 12.2782L9.29297 12.2645L9.28125 12.2489L9.27637 12.243L9.26855 12.2342L9.25684 12.2196L9.24902 12.2108L9.24512 12.204L9.23242 12.1893L9.22266 12.1756V12.1747L9.20996 12.161L9.19824 12.1463L9.19531 12.1434L9.18652 12.1327L9.1748 12.119L9.16797 12.1112L9.15039 12.0907L9.1416 12.0799L9.13867 12.077L9.12598 12.0633L9.11426 12.0497L9.10352 12.0379L9.0918 12.0243L9.08789 12.0204L9.08008 12.0106L9.06836 11.9979L9.05566 11.9852L9.04395 11.9725L9.0332 11.9598L9.03223 11.9588L9.02148 11.9432V11.9461L9.01074 11.9344L9.00098 11.9227L8.99023 11.912L8.94629 11.869L8.93652 11.8583L8.91504 11.8368L8.9043 11.827L8.89453 11.8163L8.88379 11.8055L8.86133 11.785L8.85059 11.7743L8.80762 11.7342L8.78613 11.7128L8.77539 11.704L8.76562 11.6932L8.74316 11.6737L8.7334 11.6669L8.73047 11.6649L8.7207 11.6561L8.70996 11.6473L8.70703 11.6444L8.69922 11.6376L8.68848 11.6288L8.67969 11.621L8.67871 11.62L8.65723 11.6024L8.64648 11.5926L8.63672 11.5838L8.62598 11.576H8.62402L8.61426 11.5672L8.60352 11.5585L8.59863 11.5536L8.59277 11.5497L8.58203 11.5409L8.57227 11.5311L8.56152 11.5243L8.55078 11.5165L8.54492 11.5116L8.54004 11.5086L8.53027 11.5018L8.51953 11.494H8.51758L8.50781 11.4862L8.49512 11.4794L8.48828 11.4745L8.4834 11.4715L8.47266 11.4637L8.46289 11.4569L8.46094 11.4549L8.45215 11.4491L8.44141 11.4413H8.44043L8.42969 11.4344L8.4082 11.4188L8.39844 11.412L8.37695 11.3963L8.36621 11.3895L8.34375 11.3758L8.33398 11.368C7.67458 10.2216 6.95637 9.08848 6.18457 7.97349C5.88994 7.54811 5.58081 7.22552 5.2627 6.99986C5.2743 7.00821 5.28624 7.01654 5.29785 7.02525C5.32778 7.0477 5.35777 7.07162 5.3877 7.09556C5.41766 7.11953 5.44758 7.14529 5.47754 7.17076C5.50598 7.19769 5.53648 7.22338 5.56641 7.25181C5.59619 7.27865 5.6245 7.30698 5.6543 7.33677C5.68277 7.36675 5.71274 7.3971 5.74121 7.42857C5.76957 7.45991 5.79976 7.49242 5.82812 7.52525C5.8566 7.55822 5.88559 7.59332 5.91406 7.62779C5.9424 7.6621 5.97069 7.69794 5.99902 7.73521C6.02738 7.77103 6.05563 7.80873 6.08398 7.84752C6.11246 7.88648 6.13949 7.92619 6.16797 7.96666C6.28636 8.1375 6.46663 8.40397 6.69141 8.73814C7.26686 9.60433 7.80936 10.478 8.31738 11.3622L8.3125 11.3592L8.30859 11.3563L8.30371 11.3534L8.2998 11.3504L8.29492 11.3475L8.28613 11.3417L8.28125 11.3387H8.28027L8.27734 11.3368L8.26758 11.3309L8.26367 11.328L8.25879 11.3251L8.25488 11.3221L8.25293 11.3202L8.25 11.3192L8.24512 11.3153L8.24121 11.3124L8.23633 11.3094L8.23242 11.3065L8.22754 11.3036L8.22461 11.3026L8.22266 11.3006L8.21875 11.2977L8.21387 11.2948L8.20996 11.2919L8.2002 11.287L8.19629 11.286L8.19141 11.2831L8.1875 11.2801L8.17773 11.2743L8.16895 11.2694L8.16504 11.2665L8.15137 11.2586L8.14648 11.2557L8.14258 11.2528H8.14062L8.1377 11.2518L8.13281 11.2499L8.12891 11.2469L8.12402 11.244L8.11914 11.242L8.11523 11.2391L8.11328 11.2381L8.11035 11.2362L8.10645 11.2352L8.10156 11.2333L8.09668 11.2323L8.09277 11.2303L8.08789 11.2284L8.08496 11.2274H8.08398L8.0791 11.2254L8.07422 11.2245L8.07031 11.2225L8.06543 11.2215L8.06152 11.2196L8.05859 11.2186H8.05664L8.05176 11.2167L8.04785 11.2157L8.03906 11.2108L8.03418 11.2098L8.0293 11.2079C7.52146 10.9937 7.00927 10.9923 6.52539 11.1825C6.05032 11.3683 5.60488 11.7388 5.21973 12.2723C4.46455 13.3184 3.93693 15.007 3.87695 17.1737L3.80762 25.0253L3.28906 25.0311L2.99609 25.5516L2.70312 26.0711L3.00781 26.5858L3.31152 27.0995L4.50488 27.0878L4.79883 26.5672L5.09277 26.0477L4.78809 25.5331L4.48438 25.0194L4.11328 25.0243L4.18164 17.1844C4.24009 15.0819 4.74595 13.4541 5.4668 12.453C5.81588 11.9691 6.21626 11.6355 6.63574 11.4706C7.04637 11.3102 7.48102 11.3117 7.91113 11.493L7.93652 11.5028L7.94238 11.5057L7.95898 11.5135L7.96387 11.5155L7.98438 11.5253L7.98926 11.5272L8.04004 11.5526L8.04297 11.5536L8.05664 11.5614L8.06836 11.5672L8.07129 11.5692L8.08789 11.578L8.0957 11.5809L8.10449 11.5858L8.12109 11.5946H8.12305L8.14648 11.6083H8.14844L8.15234 11.6112L8.16895 11.62L8.1748 11.6229L8.18555 11.6288L8.2002 11.6376L8.2168 11.6483L8.22559 11.6542L8.23242 11.659L8.24805 11.6698L8.25195 11.6727L8.26367 11.6795L8.27734 11.6893L8.27832 11.6903L8.29492 11.701L8.30273 11.7069L8.30957 11.7128L8.32617 11.7235L8.32812 11.7245L8.3418 11.7342L8.35352 11.743L8.35645 11.746L8.37109 11.7577L8.37695 11.7626L8.38672 11.7694L8.40137 11.7821L8.41602 11.7938L8.42676 11.8016L8.43164 11.8055L8.44629 11.8182L8.45117 11.8211L8.46094 11.8299L8.47656 11.8417L8.47754 11.8436L8.49316 11.8563L8.50195 11.8641L8.50781 11.87L8.52441 11.8836L8.52734 11.8866L8.53906 11.8973L8.55273 11.9081L8.55566 11.911L8.57031 11.9247L8.57812 11.9305L8.58691 11.9374L8.60254 11.951L8.60352 11.953L8.61719 11.9647L8.62891 11.9754L8.63379 11.9794L8.64844 11.995C8.88013 12.2148 9.02867 12.4301 9.03125 12.4237C9.54528 13.2765 10.0435 14.1435 10.5264 15.0272C10.0955 14.2317 9.70438 13.5492 9.36426 12.9745L9.03613 12.4247C9.37178 12.9641 9.99878 13.9483 10.3105 14.4999C10.7196 15.2206 11.1765 16.0887 11.6875 17.1151H11.6895L18.8584 31.0995C20.0888 33.4972 21.2238 35.3523 22.2803 36.7879C22.592 37.212 22.8961 37.5989 23.1943 37.951L23.1914 37.9481L23.1533 37.9813C24.8706 39.9068 26.5238 40.9732 27.9834 41.3719C29.0158 41.6536 29.9528 41.6017 30.75 41.2811C31.5503 40.9604 32.2053 40.3693 32.6699 39.5751C33.2618 38.565 33.5451 37.2251 33.4268 35.6952L33.4189 34.2362C33.9064 33.4687 34.3622 32.4411 34.791 31.1913L34.7861 31.1903L34.1865 32.7489L34.1738 32.7792L34.166 32.7977L34.1523 32.827L34.1318 32.8749L34.124 32.8934L34.1104 32.9227L34.1025 32.9393L34.0898 32.9715L34.082 32.9872L34.0674 33.0194L34.0488 33.0594L34.0459 33.0672L34.0381 33.0819L34.0234 33.1131L34.0156 33.1288L34.001 33.16L33.9951 33.1737L33.9805 33.2059L33.958 33.2508L33.9512 33.2635L33.9355 33.2967L33.9287 33.3085L33.9131 33.3417L33.9062 33.3514L33.8906 33.3846L33.8838 33.3954L33.8779 33.409L33.8682 33.4296L33.8633 33.4403L33.8467 33.4745L33.8242 33.5184L33.8018 33.5614L33.7793 33.6053L33.7344 33.6893L33.7314 33.6962L33.7119 33.7313L33.709 33.7372L33.6895 33.7713L33.6865 33.7772L33.667 33.8114L33.6641 33.8163L33.6445 33.8524L33.6416 33.8563L33.6201 33.8924L33.5303 34.0487L33.5293 34.0516L33.5078 34.0878L33.5068 34.0887L33.4844 34.1249L33.4824 34.1268L33.46 34.1629V34.1639L33.415 34.2362C33.3716 24.9942 33.3241 15.6979 33.2852 6.43638C33.2837 5.83412 33.1576 5.26155 32.9404 4.73717C32.7036 4.16469 32.3584 3.64742 31.9463 3.20982C31.711 2.95955 31.4506 2.73277 31.1748 2.53795C30.8991 2.34165 30.6082 2.17854 30.3115 2.04967L30.0068 1.91783L30.0059 1.45592L29.5781 1.20787H29.5771L29.1484 0.956892L28.7217 1.20787ZM2.0127 1.59263C1.50316 2.1801 1.21663 2.99866 1.0293 3.89635C0.734134 5.30796 0.681455 6.87548 0.667969 8.41295C1.29729 7.49743 2.06007 6.66264 2.93359 6.24595C4.48618 5.50263 5.80276 6.29695 6.71094 7.60826C7.29684 8.4549 7.85671 9.31843 8.38867 10.201V9.98619L9.5459 11.5497L9.57324 11.5799L9.67969 11.6991L9.75391 11.7889L9.75879 11.7967L9.83789 11.8973L9.85742 11.9227L9.86035 11.9276L9.89258 11.9676L9.97363 12.077L10.0635 12.204L10.125 12.2958L10.2354 12.4696L10.2607 12.5135L10.2627 12.5165L10.3389 12.6454L10.4502 12.8338C10.6659 13.1725 10.874 13.5189 11.0732 13.868C11.316 14.2905 11.5471 14.7203 11.7764 15.1503C12.0386 15.6433 12.2927 16.1415 12.543 16.6405L19.7275 30.6512C20.6927 32.532 21.7634 34.4262 23.0117 36.1346C23.238 36.4433 23.4697 36.7481 23.7109 37.0448L23.9326 37.2928C25.0536 38.5502 26.5963 39.9198 28.2598 40.3739C28.9505 40.5627 29.6919 40.5913 30.3662 40.3202C30.9776 40.0744 31.4467 39.6175 31.7764 39.0526C32.3219 38.1219 32.4097 37.1701 32.4082 36.1796C31.8822 36.4673 31.2854 36.5762 30.623 36.3934C29.3374 36.0383 28.2851 34.6708 27.5928 33.6053L27.5811 33.5858L27.5684 33.5643C26.936 32.4165 26.329 31.2538 25.7461 30.079L25.7393 30.0624C24.8566 28.1426 24.0618 26.1699 23.1191 24.2801L15.7441 9.46763C15.2751 8.5251 14.7539 7.60785 14.168 6.73424C13.624 6.15277 13.033 5.61789 12.3916 5.14732C11.4161 4.43405 10.3522 3.8985 9.19531 3.54185C7.94856 3.15826 6.65375 3.00085 5.35156 3.00084H5.29785V3.12388L3.65039 4.05357L2.00684 3.12291L2.0127 1.59263ZM25.4873 27.9169C25.7722 28.5644 26.0534 29.2002 26.3262 29.7928C26.3681 29.8774 26.411 29.9614 26.4531 30.0458C26.1799 29.4697 25.8425 28.7149 25.4873 27.9169ZM5.11621 6.9022C5.132 6.91123 5.14689 6.92173 5.16211 6.9315C5.14287 6.91919 5.1238 6.90697 5.10449 6.89537C5.10832 6.89778 5.11243 6.89974 5.11621 6.9022ZM4.29199 0.660994L4.28906 0.660017V0.66197L4.29199 0.660994L4.3291 0.684431H4.33105L5.30469 1.23619V1.32896H5.35449C6.8351 1.32897 8.30844 1.51195 9.72461 1.95103C9.81592 1.97948 9.90627 2.00749 9.99609 2.03892C9.84031 1.92208 9.67942 1.81169 9.51465 1.70982C7.95999 0.745274 6.08489 0.584889 4.29199 0.660994Z" fill="#1C2C3C"/>
</svg>
