<svg width="36" height="43" viewBox="0 0 36 43" fill="none" xmlns="http://www.w3.org/2000/svg">
<path d="M4.39746 0.0311108C10.0083 -0.2851 11.3826 1.8505 13.752 4.55552C13.6501 4.47612 13.5467 4.39756 13.4434 4.32115C12.3824 3.54646 11.231 2.95933 9.96777 2.56822C8.69854 2.17416 7.31249 1.97448 5.79004 1.97447H5.09277L5.09473 1.61217L4.59668 1.32994H4.59375L4.09473 1.04674L3.59473 1.32994H3.59277L3.09375 1.61217L3.08984 2.74693L4.08789 3.31138L5.08984 2.74693L5.0918 2.35533H5.78809C7.25223 2.35533 8.59093 2.54552 9.82129 2.92467C11.0591 3.3053 12.1815 3.87506 13.208 4.62584C13.8779 5.11589 14.5109 5.685 15.1104 6.33092C15.6888 7.18963 16.2383 8.13897 16.7568 9.18052L23.5645 22.8534C24.3741 24.2899 25.1049 24.9247 25.6699 24.9725L26.8252 27.6825C27.3632 28.8289 27.8551 30.001 28.3467 31.1669C28.4261 31.3586 28.5079 31.5507 28.7041 32.0135C28.848 32.3492 28.9651 32.625 29.04 32.7928L29.4102 33.6307L29.4639 17.8622L30.2529 17.4178L30.2568 16.2821L29.7598 16.0008H29.7568L29.2578 15.7176L28.7568 16.0008H28.7549L28.2559 16.2821L28.252 17.4169L29.0762 17.8827L29.0283 31.7254L27.918 29.1678C27.7516 28.7857 27.0395 27.0847 26.8057 26.5555L26.1133 24.8739C26.413 24.7 26.687 24.2156 26.7754 23.4588L26.7188 0.314314H30.5195C32.6999 0.314505 35.2172 2.49484 35.2188 5.23717L35.2256 31.1844C35.2297 31.1723 35.2351 31.1604 35.2393 31.1483C35.2557 40.819 32.1765 46.0356 26.167 40.8758H26.1641C25.743 40.5192 25.3094 40.1105 24.8613 39.6385C24.6021 39.3703 24.3381 39.0853 24.0684 38.7811L24.0762 38.7587C22.7304 37.1641 21.2637 34.9698 19.6572 31.8602L11.8428 16.7186C11.6334 16.3011 11.4292 15.9068 11.2324 15.535C11.3662 15.7915 11.5047 16.0581 11.6455 16.3358C9.10686 15.4577 9.0915 19.7113 8.97461 21.3778L9.0166 41.121H6.68457C6.07929 41.1209 5.45924 40.9928 4.87793 40.7381C4.32793 40.4969 3.81344 40.1404 3.38184 39.6698C3.0462 39.3026 2.75829 38.8605 2.54102 38.3465C2.34174 37.8745 2.20395 37.3423 2.14551 36.7489L2.11426 36.4286L2.78125 36.0389L2.77637 35.035L2.34961 34.786H2.34766L1.91895 34.536L1.49219 34.786H1.49023L1.06641 35.035L1.07129 36.037L1.5 36.2879V36.2889L1.78711 36.4569L1.81152 36.7157C1.86847 37.3361 2.00359 37.9299 2.23438 38.4784C2.45017 38.9894 2.74793 39.4677 3.14355 39.8993C4.09519 40.9408 5.42056 41.4608 6.69141 41.4608H9.02246L9.02539 42.9999H5.66113C3.16905 42.9997 0.48665 41.1312 0.480469 37.3924L0.438477 10.8719L0.432617 10.8651C0.436017 10.8581 0.438983 10.8506 0.442383 10.8436C0.534398 6.09967 0.0813377 0.275137 4.39746 0.0311108ZM32.1494 41.5087C31.9231 41.654 31.682 41.7802 31.4258 41.8837C30.9013 42.0949 30.3542 42.195 29.8027 42.204C30.6179 42.3538 31.4286 42.1983 32.1494 41.5106V41.5087ZM29.1543 1.20787H29.1523L28.7285 1.45592L28.7324 2.45885L29.5898 2.95787L30.0176 2.70787H30.0186L30.6299 2.35045L30.8701 2.47349C31.0949 2.58889 31.3212 2.73195 31.54 2.8983C31.7542 3.06159 31.9568 3.24309 32.1426 3.43931C32.5231 3.84237 32.8403 4.31774 33.0605 4.84361C33.2673 5.33801 33.3871 5.87264 33.3887 6.43443L33.4629 34.7831C33.4618 34.7845 33.4601 34.7856 33.459 34.787L33.4639 34.786C33.4601 34.7907 33.4559 34.795 33.4521 34.7997C33.4521 34.798 33.4522 34.7964 33.4521 34.7948C32.0905 36.4822 30.4905 36.213 28.5664 33.2499L28.5381 33.1971L28.5098 33.1454L28.4814 33.0926L28.4521 33.0399L28.4238 32.9872L28.3955 32.9354L28.3389 32.8299L28.3105 32.7762L28.2822 32.7235L28.2529 32.6698L28.2246 32.6171L28.1396 32.4559L28.1113 32.4012L28.082 32.3475L28.0537 32.2938L27.9971 32.1874L27.9688 32.1337L27.9404 32.079L27.9111 32.0253L27.8545 31.9178L27.8262 31.8631L27.7412 31.702L27.7119 31.6473L27.6855 31.5985L27.6836 31.5936L27.627 31.4862L27.5986 31.4315L27.5703 31.3778L27.541 31.3241L27.5127 31.2704L27.4844 31.2157L27.3711 31.0008L27.3418 30.9461C27.7427 31.7276 28.1507 32.4979 28.5674 33.2528C30.4908 36.2134 32.0908 36.4851 33.4521 34.7997C33.4604 36.436 33.6343 37.8761 32.7539 39.3817C32.3328 40.1009 31.7436 40.6334 31.0273 40.9227C30.3081 41.2134 29.4552 41.2585 28.5098 41.0008C27.1206 40.6217 25.533 39.5921 23.8711 37.7264L23.8623 37.7333C23.5521 37.3661 23.2353 36.9635 22.9102 36.5184C21.8836 35.1143 20.7796 33.2963 19.5732 30.9481L12.6328 17.4139L12.627 17.4169L12.4023 16.9667C12.1521 16.4662 11.8937 15.9629 11.624 15.4549C11.3618 14.9604 11.131 14.5389 10.9316 14.1913C10.7174 13.8197 10.508 13.4718 10.3027 13.1512C10.2653 13.0913 10.2279 13.0328 10.1904 12.9774L10.1992 12.9715L10.1885 12.954L10.1777 12.9344L10.168 12.9149L10.1572 12.8963L10.1514 12.8866L10.1465 12.8788L10.1357 12.8612L10.127 12.8456L10.126 12.8426L10.1152 12.8251L10.1045 12.8065L10.1035 12.8036L10.0928 12.7889L10.0762 12.7635L10.0703 12.7528L10.0596 12.7352L10.0518 12.7225L10.0488 12.7167L10.0391 12.6991L10.0283 12.6825L10.0166 12.6649L10.0059 12.6463L10.0029 12.6424L9.99316 12.6297L9.98145 12.6131L9.97559 12.6044L9.9707 12.5975L9.9502 12.5672L9.94824 12.5643L9.9248 12.5311L9.92285 12.5292L9.91309 12.5145L9.90039 12.4979L9.89648 12.492L9.88867 12.4813L9.86914 12.4549L9.86523 12.4491L9.85254 12.4325L9.8418 12.4169L9.83008 12.4003L9.7959 12.3544L9.79004 12.3465L9.78418 12.3397L9.7627 12.3124L9.76172 12.3094L9.74902 12.2948L9.7373 12.2792L9.73633 12.2782L9.72559 12.2645L9.71387 12.2489L9.70898 12.243L9.70117 12.2342L9.68945 12.2196L9.68164 12.2108L9.67773 12.204L9.66504 12.1893L9.65527 12.1756V12.1747L9.64258 12.161L9.63086 12.1463L9.62793 12.1434L9.61914 12.1327L9.60742 12.119L9.60059 12.1112L9.58301 12.0907L9.57422 12.0799L9.57129 12.077L9.55859 12.0633L9.54688 12.0497L9.53613 12.0379L9.52441 12.0243L9.52051 12.0204L9.5127 12.0106L9.50098 11.9979L9.48828 11.9852L9.47656 11.9725L9.46582 11.9598L9.46484 11.9588L9.4541 11.9432V11.9461L9.44336 11.9344L9.43359 11.9227L9.42285 11.912L9.37891 11.869L9.36914 11.8583L9.34766 11.8368L9.33691 11.827L9.32715 11.8163L9.31641 11.8055L9.29395 11.785L9.2832 11.7743L9.24023 11.7342L9.21875 11.7128L9.20801 11.704L9.19824 11.6932L9.17578 11.6737L9.16602 11.6669L9.16309 11.6649L9.15332 11.6561L9.14258 11.6473L9.13965 11.6444L9.13184 11.6376L9.12109 11.6288L9.1123 11.621L9.11133 11.62L9.08984 11.6024L9.0791 11.5926L9.06934 11.5838L9.05859 11.576H9.05664L9.04688 11.5672L9.03613 11.5585L9.03125 11.5536L9.02539 11.5497L9.01465 11.5409L9.00488 11.5311L8.99414 11.5243L8.9834 11.5165L8.97754 11.5116L8.97266 11.5086L8.96289 11.5018L8.95215 11.494H8.9502L8.94043 11.4862L8.92773 11.4794L8.9209 11.4745L8.91602 11.4715L8.90527 11.4637L8.89551 11.4569L8.89355 11.4549L8.88477 11.4491L8.87402 11.4413H8.87305L8.8623 11.4344L8.84082 11.4188L8.83105 11.412L8.80957 11.3963L8.79883 11.3895L8.77637 11.3758L8.7666 11.368C8.1072 10.2216 7.38899 9.08848 6.61719 7.97349C6.32256 7.54811 6.01343 7.22552 5.69531 6.99986C5.70692 7.00821 5.71886 7.01654 5.73047 7.02525C5.76039 7.0477 5.79039 7.07162 5.82031 7.09556C5.85027 7.11953 5.8802 7.14529 5.91016 7.17076C5.93859 7.19769 5.96909 7.22338 5.99902 7.25181C6.02881 7.27865 6.05712 7.30698 6.08691 7.33677C6.11539 7.36675 6.14535 7.3971 6.17383 7.42857C6.20218 7.45991 6.23238 7.49242 6.26074 7.52525C6.28922 7.55822 6.31821 7.59332 6.34668 7.62779C6.37501 7.6621 6.40331 7.69794 6.43164 7.73521C6.45999 7.77103 6.48825 7.80873 6.5166 7.84752C6.54508 7.88648 6.57211 7.92619 6.60059 7.96666C6.71898 8.1375 6.89924 8.40397 7.12402 8.73814C7.69948 9.60433 8.24198 10.478 8.75 11.3622L8.74512 11.3592L8.74121 11.3563L8.73633 11.3534L8.73242 11.3504L8.72754 11.3475L8.71875 11.3417L8.71387 11.3387H8.71289L8.70996 11.3368L8.7002 11.3309L8.69629 11.328L8.69141 11.3251L8.6875 11.3221L8.68555 11.3202L8.68262 11.3192L8.67773 11.3153L8.67383 11.3124L8.66895 11.3094L8.66504 11.3065L8.66016 11.3036L8.65723 11.3026L8.65527 11.3006L8.65137 11.2977L8.64648 11.2948L8.64258 11.2919L8.63281 11.287L8.62891 11.286L8.62402 11.2831L8.62012 11.2801L8.61035 11.2743L8.60156 11.2694L8.59766 11.2665L8.58398 11.2586L8.5791 11.2557L8.5752 11.2528H8.57324L8.57031 11.2518L8.56543 11.2499L8.56152 11.2469L8.55664 11.244L8.55176 11.242L8.54785 11.2391L8.5459 11.2381L8.54297 11.2362L8.53906 11.2352L8.53418 11.2333L8.5293 11.2323L8.52539 11.2303L8.52051 11.2284L8.51758 11.2274H8.5166L8.51172 11.2254L8.50684 11.2245L8.50293 11.2225L8.49805 11.2215L8.49414 11.2196L8.49121 11.2186H8.48926L8.48438 11.2167L8.48047 11.2157L8.47168 11.2108L8.4668 11.2098L8.46191 11.2079C7.95408 10.9937 7.44188 10.9923 6.95801 11.1825C6.48294 11.3683 6.03749 11.7388 5.65234 12.2723C4.89717 13.3184 4.36954 15.007 4.30957 17.1737L4.24023 25.0253L3.72168 25.0311L3.42871 25.5516L3.13574 26.0711L3.44043 26.5858L3.74414 27.0995L4.9375 27.0878L5.23145 26.5672L5.52539 26.0477L5.2207 25.5331L4.91699 25.0194L4.5459 25.0243L4.61426 17.1844C4.67271 15.0819 5.17857 13.4541 5.89941 12.453C6.24849 11.9691 6.64888 11.6355 7.06836 11.4706C7.47899 11.3102 7.91364 11.3117 8.34375 11.493L8.36914 11.5028L8.375 11.5057L8.3916 11.5135L8.39648 11.5155L8.41699 11.5253L8.42188 11.5272L8.47266 11.5526L8.47559 11.5536L8.48926 11.5614L8.50098 11.5672L8.50391 11.5692L8.52051 11.578L8.52832 11.5809L8.53711 11.5858L8.55371 11.5946H8.55566L8.5791 11.6083H8.58105L8.58496 11.6112L8.60156 11.62L8.60742 11.6229L8.61816 11.6288L8.63281 11.6376L8.64941 11.6483L8.6582 11.6542L8.66504 11.659L8.68066 11.6698L8.68457 11.6727L8.69629 11.6795L8.70996 11.6893L8.71094 11.6903L8.72754 11.701L8.73535 11.7069L8.74219 11.7128L8.75879 11.7235L8.76074 11.7245L8.77441 11.7342L8.78613 11.743L8.78906 11.746L8.80371 11.7577L8.80957 11.7626L8.81934 11.7694L8.83398 11.7821L8.84863 11.7938L8.85938 11.8016L8.86426 11.8055L8.87891 11.8182L8.88379 11.8211L8.89355 11.8299L8.90918 11.8417L8.91016 11.8436L8.92578 11.8563L8.93457 11.8641L8.94043 11.87L8.95703 11.8836L8.95996 11.8866L8.97168 11.8973L8.98535 11.9081L8.98828 11.911L9.00293 11.9247L9.01074 11.9305L9.01953 11.9374L9.03516 11.951L9.03613 11.953L9.0498 11.9647L9.06152 11.9754L9.06641 11.9794L9.08105 11.995C9.31275 12.2148 9.46128 12.4301 9.46387 12.4237C9.97789 13.2765 10.4761 14.1435 10.959 15.0272C10.5281 14.2317 10.137 13.5492 9.79688 12.9745L9.46875 12.4247C9.80439 12.9641 10.4314 13.9483 10.7432 14.4999C11.1523 15.2206 11.6091 16.0887 12.1201 17.1151H12.1221L19.291 31.0995C20.5214 33.4972 21.6564 35.3523 22.7129 36.7879C23.0246 37.212 23.3287 37.5989 23.627 37.951L23.624 37.9481L23.5859 37.9813C25.3032 39.9068 26.9565 40.9732 28.416 41.3719C29.4485 41.6536 30.3854 41.6017 31.1826 41.2811C31.9829 40.9604 32.638 40.3693 33.1025 39.5751C33.6944 38.565 33.9778 37.2251 33.8594 35.6952L33.8516 34.2362C34.339 33.4687 34.7948 32.4411 35.2236 31.1913L35.2188 31.1903L34.6191 32.7489L34.6064 32.7792L34.5986 32.7977L34.585 32.827L34.5645 32.8749L34.5566 32.8934L34.543 32.9227L34.5352 32.9393L34.5225 32.9715L34.5146 32.9872L34.5 33.0194L34.4814 33.0594L34.4785 33.0672L34.4707 33.0819L34.4561 33.1131L34.4482 33.1288L34.4336 33.16L34.4277 33.1737L34.4131 33.2059L34.3906 33.2508L34.3838 33.2635L34.3682 33.2967L34.3613 33.3085L34.3457 33.3417L34.3389 33.3514L34.3232 33.3846L34.3164 33.3954L34.3105 33.409L34.3008 33.4296L34.2959 33.4403L34.2793 33.4745L34.2568 33.5184L34.2344 33.5614L34.2119 33.6053L34.167 33.6893L34.1641 33.6962L34.1445 33.7313L34.1416 33.7372L34.1221 33.7713L34.1191 33.7772L34.0996 33.8114L34.0967 33.8163L34.0771 33.8524L34.0742 33.8563L34.0527 33.8924L33.9629 34.0487L33.9619 34.0516L33.9404 34.0878L33.9395 34.0887L33.917 34.1249L33.915 34.1268L33.8926 34.1629V34.1639L33.8477 34.2362C33.8042 24.9942 33.7567 15.6979 33.7178 6.43638C33.7163 5.83412 33.5902 5.26155 33.373 4.73717C33.1363 4.16469 32.791 3.64742 32.3789 3.20982C32.1436 2.95955 31.8832 2.73277 31.6074 2.53795C31.3317 2.34165 31.0408 2.17854 30.7441 2.04967L30.4395 1.91783L30.4385 1.45592L30.0107 1.20787H30.0098L29.5811 0.956892L29.1543 1.20787ZM2.44531 1.59263C1.93578 2.1801 1.64924 2.99866 1.46191 3.89635C1.16675 5.30796 1.11407 6.87548 1.10059 8.41295C1.72991 7.49743 2.49269 6.66264 3.36621 6.24595C4.9188 5.50263 6.23538 6.29695 7.14355 7.60826C7.72945 8.4549 8.28933 9.31843 8.82129 10.201V9.98619L9.97852 11.5497L10.0059 11.5799L10.1123 11.6991L10.1865 11.7889L10.1914 11.7967L10.2705 11.8973L10.29 11.9227L10.293 11.9276L10.3252 11.9676L10.4062 12.077L10.4961 12.204L10.5576 12.2958L10.668 12.4696L10.6934 12.5135L10.6953 12.5165L10.7715 12.6454L10.8828 12.8338C11.0986 13.1725 11.3066 13.5189 11.5059 13.868C11.7486 14.2905 11.9798 14.7203 12.209 15.1503C12.4712 15.6433 12.7253 16.1415 12.9756 16.6405L20.1602 30.6512C21.1253 32.532 22.196 34.4262 23.4443 36.1346C23.6706 36.4433 23.9023 36.7481 24.1436 37.0448L24.3652 37.2928C25.4862 38.5502 27.0289 39.9198 28.6924 40.3739C29.3831 40.5627 30.1246 40.5913 30.7988 40.3202C31.4102 40.0744 31.8793 39.6175 32.209 39.0526C32.7545 38.1219 32.8423 37.1701 32.8408 36.1796C32.3148 36.4673 31.718 36.5762 31.0557 36.3934C29.77 36.0383 28.7178 34.6708 28.0254 33.6053L28.0137 33.5858L28.001 33.5643C27.3686 32.4165 26.7616 31.2538 26.1787 30.079L26.1719 30.0624C25.2892 28.1426 24.4944 26.1699 23.5518 24.2801L16.1768 9.46763C15.7077 8.5251 15.1865 7.60785 14.6006 6.73424C14.0566 6.15277 13.4656 5.61789 12.8242 5.14732C11.8487 4.43405 10.7848 3.8985 9.62793 3.54185C8.38118 3.15826 7.08637 3.00085 5.78418 3.00084H5.73047V3.12388L4.08301 4.05357L2.43945 3.12291L2.44531 1.59263ZM25.9199 27.9169C26.2048 28.5644 26.4861 29.2002 26.7588 29.7928C26.8007 29.8774 26.8436 29.9614 26.8857 30.0458C26.6125 29.4697 26.2751 28.7149 25.9199 27.9169ZM5.54883 6.9022C5.56462 6.91123 5.5795 6.92173 5.59473 6.9315C5.57549 6.91919 5.55642 6.90697 5.53711 6.89537C5.54094 6.89778 5.54504 6.89974 5.54883 6.9022ZM4.72461 0.660994L4.72168 0.660017V0.66197L4.72461 0.660994L4.76172 0.684431H4.76367L5.7373 1.23619V1.32896H5.78711C7.26772 1.32897 8.74106 1.51195 10.1572 1.95103C10.2485 1.97948 10.3389 2.00749 10.4287 2.03892C10.2729 1.92208 10.112 1.81169 9.94727 1.70982C8.39261 0.745274 6.51751 0.584889 4.72461 0.660994Z" fill="#1C2C3C"/>
</svg>
