<svg width="19" height="15" viewBox="0 0 19 15" fill="none" xmlns="http://www.w3.org/2000/svg">
<path d="M18 12.9092C18.5523 12.9092 19 13.3569 19 13.9092C19 14.4615 18.5523 14.9092 18 14.9092H1C0.447715 14.9092 0 14.4615 0 13.9092C0 13.3569 0.447715 12.9092 1 12.9092H18ZM18 6.90918C18.5523 6.90918 19 7.35689 19 7.90918C19 8.46146 18.5523 8.90918 18 8.90918H1C0.447715 8.90918 0 8.46146 0 7.90918C0 7.35689 0.447715 6.90918 1 6.90918H18ZM18 0.90918C18.5523 0.90918 19 1.35689 19 1.90918C19 2.46146 18.5523 2.90918 18 2.90918H1C0.447715 2.90918 0 2.46146 0 1.90918C0 1.35689 0.447715 0.90918 1 0.90918H18Z" fill="#688071"/>
</svg>
