<svg width="37" height="45" viewBox="0 0 37 45" fill="none" xmlns="http://www.w3.org/2000/svg">
<path d="M4.84375 0.525337C10.6023 0.200804 12.0136 2.39267 14.4453 5.16889C14.3407 5.08737 14.2341 5.0071 14.1279 4.92866C13.0391 4.13355 11.858 3.53028 10.5615 3.12885C9.25888 2.72437 7.83597 2.52049 6.27344 2.52045H5.55762L5.55957 2.14838L5.04883 1.85835H5.0459L4.5332 1.56831L4.01953 1.85835H4.01855L3.50586 2.14838L3.50098 3.31245L4.52539 3.89252L5.55469 3.31245L5.55664 2.91108H6.27148C7.77404 2.91108 9.1475 3.10601 10.4102 3.49506C11.6806 3.88573 12.8331 4.47058 13.8867 5.24116C14.5741 5.74399 15.2228 6.32844 15.8379 6.99116C16.4315 7.87238 16.9962 8.84616 17.5283 9.91499L24.5156 23.9482C25.3466 25.4224 26.096 26.0748 26.6758 26.124L27.8613 28.9042C28.4135 30.0809 28.9184 31.2838 29.4229 32.4804C29.5044 32.6773 29.5886 32.8743 29.79 33.3496C29.9377 33.6941 30.0579 33.9771 30.1348 34.1494L30.5146 35.0087L30.5703 18.8251L31.3789 18.3701L31.3838 17.204L30.873 16.915H30.8701L30.3584 16.624L29.8447 16.915H29.8428L29.3311 17.204L29.3262 18.3681L30.1719 18.8466L30.123 33.0537L28.9834 30.4287C28.8127 30.0365 28.0818 28.2912 27.8418 27.748L27.1309 26.0224C27.4384 25.844 27.7198 25.3469 27.8105 24.5703L27.7529 0.816353H31.6533C33.8912 0.816501 36.475 3.0545 36.4766 5.86909L36.4834 32.4999C36.4878 32.4871 36.4937 32.4747 36.498 32.4619C36.515 42.387 33.3542 47.7408 27.1865 42.4453H27.1836C26.7514 42.0792 26.3066 41.6592 25.8467 41.1748C25.5806 40.8995 25.31 40.6071 25.0332 40.2949L25.041 40.2724C23.6598 38.6359 22.1537 36.3838 20.5049 33.1923L12.4854 17.6513C12.2741 17.23 12.0679 16.832 11.8691 16.456C12.0034 16.7135 12.1411 16.9814 12.2822 17.2597C9.67711 16.3589 9.66195 20.7231 9.54199 22.4335L9.58496 42.6962H7.19141C6.5701 42.6962 5.93362 42.5651 5.33691 42.3037C4.77244 42.056 4.24472 41.6899 3.80176 41.207C3.45733 40.8302 3.16145 40.377 2.93848 39.8496C2.73394 39.3651 2.5932 38.8189 2.5332 38.2099L2.5 37.8808L3.18457 37.4804L3.18066 36.4501L2.74219 36.1953H2.74023L2.30078 35.9384L1.8623 36.1953H1.86035L1.42578 36.4501L1.42969 37.4794L1.87012 37.7363V37.7373L2.16504 37.9101L2.18945 38.1757C2.24788 38.8123 2.3863 39.4215 2.62305 39.9843C2.84445 40.5086 3.1508 40.9995 3.55664 41.4423C4.53321 42.5112 5.89312 43.0457 7.19727 43.0458H9.59082L9.59375 44.6249H6.14062C3.58293 44.6247 0.830371 42.7064 0.824219 38.8691L0.78125 11.6513L0.774414 11.6445C0.777991 11.6372 0.78158 11.6293 0.785156 11.622C0.879553 6.75337 0.414348 0.775903 4.84375 0.525337ZM33.3262 43.0947C33.0939 43.2438 32.846 43.3733 32.583 43.4794C32.0449 43.6962 31.4837 43.7993 30.918 43.8085C31.7545 43.9622 32.5865 43.8015 33.3262 43.0956V43.0947ZM30.252 1.73237H30.25L29.8154 1.98823L29.8193 3.01752L30.6992 3.52924L31.1377 3.27241H31.1396L31.7666 2.9062L32.0127 3.03217C32.2433 3.15057 32.4757 3.29706 32.7002 3.46772C32.9201 3.63537 33.1276 3.8219 33.3184 4.02338C33.709 4.43706 34.0356 4.92405 34.2617 5.46381C34.474 5.97138 34.5971 6.52082 34.5986 7.0976L34.6738 36.1914C34.6725 36.1931 34.6703 36.1945 34.6689 36.1962L34.6748 36.1953C34.671 36.1999 34.6669 36.2043 34.6631 36.2089C34.6631 36.2073 34.6631 36.2057 34.6631 36.204C33.2657 37.9357 31.6241 37.6591 29.6494 34.6181L29.5029 34.3496L29.4736 34.2949L29.415 34.1874L29.3271 34.0234L29.2979 33.9697L29.2695 33.914L29.2109 33.8027L29.1816 33.748L29.123 33.6367L29.0645 33.5283L28.9766 33.3613L28.9473 33.3066L28.918 33.2509L28.8896 33.1953L28.8604 33.1406L28.8018 33.0292L28.7725 32.9746L28.7441 32.9238L28.7432 32.9189L28.6846 32.8076L28.6553 32.7529L28.5967 32.6415L28.5674 32.5869L28.5088 32.4755L28.4805 32.4208L28.3926 32.2539L28.3633 32.1992C28.7837 33.0201 29.213 33.8286 29.6504 34.621C31.6244 37.6595 33.266 37.9386 34.6631 36.2089C34.6715 37.8885 34.8502 39.3666 33.9463 40.9121C33.5141 41.6503 32.909 42.1963 32.1738 42.4931C31.4356 42.7914 30.5602 42.8377 29.5898 42.5732C28.1642 42.184 26.5356 41.1274 24.8301 39.2128L24.8203 39.2206C24.5019 38.8438 24.1775 38.4294 23.8438 37.9726C22.7902 36.5315 21.657 34.6658 20.4189 32.2558L13.2959 18.3652L13.29 18.3681L13.0586 17.9072C12.8018 17.3936 12.5375 16.8767 12.2607 16.3554C11.9916 15.8479 11.7544 15.4154 11.5498 15.0585C11.3299 14.6772 11.115 14.3202 10.9043 13.9912C10.8658 13.9296 10.8275 13.8694 10.7891 13.8124L10.7979 13.8066L10.7871 13.788L10.7764 13.7685L10.7734 13.7617L10.7656 13.748L10.7549 13.7294L10.749 13.7187L10.7441 13.7109L10.7334 13.6923L10.7246 13.6777L10.7227 13.6748L10.7012 13.6376L10.6992 13.6347L10.6885 13.6191L10.6719 13.5927L10.666 13.582L10.6553 13.5634L10.6475 13.5517L10.6445 13.5449L10.6338 13.5263L10.623 13.5097L10.6104 13.4912L10.5996 13.4726L10.5967 13.4677L10.5869 13.456L10.5752 13.4394L10.5693 13.4296L10.5645 13.4218L10.543 13.3915L10.5293 13.371L10.5166 13.3544L10.5146 13.3525L10.5039 13.3378L10.4922 13.3203L10.4873 13.3144L10.4795 13.3037L10.4551 13.2695L10.4424 13.2529L10.4316 13.2373L10.4199 13.2206L10.3848 13.1728L10.3779 13.165L10.3721 13.1572L10.3506 13.1298L10.3486 13.1269L10.3369 13.1113L10.3242 13.0956L10.3232 13.0947L10.3125 13.081L10.2998 13.0654L10.2949 13.0595L10.2871 13.0498L10.2754 13.0341L10.2676 13.0253L10.2627 13.0195L10.251 13.0039L10.2402 12.9902V12.9882L10.2275 12.9746L10.2148 12.9589L10.2119 12.956L10.2031 12.9453L10.1904 12.9316L10.1787 12.916L10.166 12.9023L10.1562 12.8915L10.1533 12.8886L10.1416 12.8749L10.1289 12.8603L10.1182 12.8486L10.1055 12.8349L10.0938 12.8203L10.0811 12.8066L10.0693 12.7949L10.0566 12.7802L10.0459 12.7685L10.0439 12.7665L10.0332 12.7519V12.7548L10.0117 12.7294L9.89258 12.6103L9.86914 12.5888L9.8584 12.5781L9.81348 12.5361L9.79199 12.5146L9.78125 12.5058L9.77051 12.4951L9.74805 12.4746L9.73828 12.4667L9.73535 12.4658L9.72461 12.456L9.71387 12.4472L9.71094 12.4443L9.70312 12.4374L9.69238 12.4287L9.68262 12.4208L9.68164 12.4189L9.6709 12.4101L9.66016 12.4003L9.63867 12.3828L9.62793 12.3749H9.62598L9.61523 12.3652L9.60449 12.3564L9.59961 12.3515L9.59375 12.3466L9.58301 12.3378L9.57227 12.3281L9.56152 12.3212L9.55078 12.3134L9.54492 12.3085L9.54004 12.3056L9.51855 12.29H9.5166L9.50586 12.2822L9.49414 12.2744L9.48633 12.2705L9.48145 12.2665L9.4707 12.2597L9.45996 12.2519L9.45801 12.2499L9.44922 12.2441L9.43848 12.2363H9.43652L9.39355 12.205L9.38281 12.1982L9.36133 12.1826L9.33887 12.1689L9.32812 12.1611C8.65137 10.9845 7.91418 9.82103 7.12207 8.6767C6.80747 8.22251 6.47727 7.8818 6.13672 7.64936C6.16171 7.6669 6.18692 7.68433 6.21191 7.70307C6.24267 7.72614 6.27295 7.75171 6.30371 7.77631C6.33445 7.8009 6.36575 7.82636 6.39648 7.85249C6.42569 7.88015 6.45656 7.90629 6.4873 7.93549C6.51807 7.96318 6.54736 7.99262 6.57812 8.02338C6.60729 8.05408 6.63783 8.08491 6.66699 8.11713C6.69622 8.14943 6.72664 8.18388 6.75586 8.21772C6.78507 8.25155 6.81454 8.28685 6.84375 8.32221C6.87294 8.35755 6.90245 8.39416 6.93164 8.43256C6.96086 8.46948 6.99031 8.50781 7.01953 8.5478C7.04875 8.58779 7.07625 8.62834 7.10547 8.66987C7.22698 8.84522 7.41199 9.11906 7.64258 9.46186C8.23311 10.3507 8.78921 11.2479 9.31055 12.1552L9.30664 12.1513L9.29688 12.1455L9.29297 12.1425L9.28809 12.1396L9.27832 12.1328L9.27441 12.1298H9.27246L9.26953 12.1289L9.26465 12.1259L9.26074 12.122L9.24609 12.1132L9.24512 12.1113L9.24219 12.1103L9.23242 12.1044L9.22754 12.1005L9.22363 12.0976L9.21875 12.0947L9.21582 12.0937L9.21387 12.0917L9.20996 12.0888L9.20508 12.0859L9.2002 12.082L9.19141 12.0781L9.18652 12.0761L9.17676 12.0703L9.17285 12.0673L9.16797 12.0644L9.15918 12.0595L9.1543 12.0566L9.14062 12.0488L9.13086 12.0429H9.12988L9.12207 12.039L9.1123 12.0331L9.1084 12.0322L9.10352 12.0283L9.10156 12.0273L9.09863 12.0253L9.09375 12.0244L9.08984 12.0224L9.08496 12.0205L9.08008 12.0195L9.07617 12.0175L9.07227 12.0165H9.07129L9.06641 12.0146L9.06152 12.0136L9.05762 12.0117L9.05273 12.0097L9.04785 12.0087L9.04492 12.0068H9.04297L9.03906 12.0058L9.03418 12.0039L9.02539 11.999L9.02051 11.998L9.01562 11.996C8.49428 11.7762 7.96842 11.7753 7.47168 11.9706C6.98411 12.1614 6.52712 12.5413 6.13184 13.0888C5.3568 14.1624 4.81547 15.8954 4.75391 18.1191L4.68262 26.1777L4.15039 26.1835L3.84961 26.7177L3.5498 27.2509L3.86133 27.7783L4.17383 28.3056L5.39844 28.2939L5.69922 27.7597L6.00098 27.2265L5.68848 26.6992L5.37695 26.1708L4.99707 26.1757L5.06641 18.1298C5.12644 15.9721 5.64597 14.3017 6.38574 13.2744C6.744 12.7778 7.15446 12.4348 7.58496 12.2656C8.00639 12.101 8.4531 12.1029 8.89453 12.289L8.91992 12.2998L8.92676 12.3027L8.94336 12.3105L8.94824 12.3115L8.96973 12.3222L8.97461 12.3242L8.97559 12.3251L8.99219 12.333L9.00195 12.3378L9.02637 12.3505L9.0293 12.3515L9.04297 12.3593L9.05566 12.3652L9.05859 12.3671L9.07617 12.3759L9.08301 12.3789L9.09277 12.3837L9.10938 12.3935H9.11133L9.13574 12.4072H9.1377L9.1416 12.4101L9.15918 12.4189L9.16504 12.4228L9.17578 12.4287L9.19141 12.4374L9.20801 12.4482L9.2168 12.455L9.22363 12.4589L9.24023 12.4697L9.24316 12.4736L9.25586 12.4804L9.26953 12.4902L9.27148 12.4912L9.28809 12.5019L9.2959 12.5087L9.30371 12.5146L9.32031 12.5253L9.32227 12.5273L9.33594 12.5361L9.34766 12.5458L9.35059 12.5488L9.36621 12.5605L9.37207 12.5654L9.38184 12.5732L9.39746 12.5859L9.41211 12.5976L9.42285 12.6054L9.42773 12.6103L9.44336 12.622L9.44824 12.6249L9.45898 12.6347L9.47363 12.6474L9.47559 12.6484L9.49121 12.6621L9.5 12.6699L9.50684 12.6757L9.52344 12.6904L9.52637 12.6933L9.53906 12.704L9.55273 12.7148L9.55566 12.7177L9.57129 12.7314L9.5791 12.7373L9.58789 12.7451L9.60352 12.7587L9.60449 12.7607L9.61816 12.7734L9.63086 12.7841L9.63574 12.788L9.65137 12.8037C9.88633 13.0266 10.0369 13.2454 10.043 13.2441C10.5545 14.0928 11.0517 14.9546 11.5332 15.833C11.1086 15.0521 10.7229 14.3793 10.3857 13.8095L10.0488 13.2451C10.3933 13.7987 11.0365 14.8089 11.3564 15.3749C11.7763 16.1148 12.245 17.0059 12.7695 18.0595H12.7715L20.1299 32.4111C21.3926 34.872 22.5563 36.7765 23.6406 38.2499C23.9605 38.6852 24.273 39.0819 24.5791 39.4433L24.5762 39.4404L24.5381 39.4736C26.3007 41.45 27.997 42.5459 29.4951 42.955C30.5546 43.244 31.5159 43.1903 32.334 42.8613C33.1553 42.5321 33.8279 41.9255 34.3047 41.1103C34.9121 40.0738 35.2025 38.6989 35.0811 37.1289L35.0732 35.6298C35.5733 34.8424 36.0415 33.789 36.4814 32.5068L36.4766 32.5048L35.8613 34.1044L35.8477 34.1357L35.8398 34.1542L35.8262 34.1845L35.8047 34.2333L35.7969 34.2519L35.7832 34.2831L35.7754 34.2998L35.7617 34.332L35.7539 34.3496L35.7383 34.3818L35.7197 34.4228L35.7168 34.4306L35.709 34.4462L35.6934 34.4785L35.6855 34.4941L35.6709 34.5263L35.6641 34.54L35.6494 34.5742L35.626 34.6201L35.6201 34.6318L35.6025 34.666L35.5967 34.6787L35.5801 34.7119L35.5732 34.7226L35.5566 34.7568L35.5508 34.7675L35.5332 34.8027L35.5293 34.8134L35.4893 34.8935L35.4658 34.9384L35.4434 34.9824L35.4199 35.0263L35.3965 35.0693L35.3936 35.0771L35.374 35.1123L35.3711 35.1181L35.3506 35.1533L35.3477 35.1601L35.3271 35.1953L35.3242 35.2001L35.3047 35.2363L35.3018 35.2412L35.2803 35.2783L35.2334 35.3583L35.2109 35.3984L35.1875 35.4384L35.1865 35.4414L35.1641 35.4785L35.1631 35.4794L35.1396 35.5165L35.1387 35.5185L35.1152 35.5546V35.5566L35.0918 35.5937L35.0693 35.6308C35.0247 26.1457 34.9755 16.6047 34.9355 7.09956C34.934 6.48125 34.8051 5.89277 34.582 5.35444C34.339 4.76702 33.9844 4.23707 33.5615 3.78803C33.32 3.53117 33.0525 3.29853 32.7695 3.09858C32.4866 2.89717 32.1882 2.72985 31.8838 2.5976L31.5713 2.46186L31.5703 1.98823L31.1318 1.73237H31.1299L30.6904 1.47553L30.252 1.73237ZM2.83984 2.12788C2.31693 2.7308 2.02331 3.57086 1.83105 4.49213C1.52808 5.94096 1.4738 7.54986 1.45996 9.12788C2.10595 8.18811 2.88944 7.33085 3.78613 6.90327C5.37946 6.14061 6.73009 6.95597 7.66211 8.3017C8.26349 9.17071 8.83875 10.0569 9.38477 10.9628V10.7431L10.5723 12.3466L10.5996 12.3779L10.709 12.5009L10.7861 12.5927L10.79 12.6005L10.8721 12.704L10.8916 12.7294L10.8945 12.7343L10.9277 12.7763L11.0107 12.8886L11.1025 13.0195L11.166 13.1132L11.2793 13.291L11.3057 13.3359L11.3076 13.3388L11.3857 13.4716L11.499 13.665C11.7205 14.0126 11.9351 14.3681 12.1396 14.7265C12.3887 15.1601 12.6251 15.6016 12.8604 16.0429C13.1295 16.5489 13.3916 17.06 13.6484 17.5722L21.0215 31.9511C22.012 33.8814 23.1104 35.8256 24.3916 37.579C24.6238 37.8958 24.8618 38.2082 25.1094 38.5126L25.3379 38.7675C26.4884 40.058 28.0711 41.4646 29.7783 41.9306C30.4872 42.1243 31.2485 42.1533 31.9404 41.8749C32.5678 41.6228 33.0493 41.1538 33.3877 40.5742C33.9476 39.619 34.0367 38.6416 34.0352 37.6249C33.4953 37.9203 32.883 38.0323 32.2031 37.8447C30.8836 37.48 29.8043 36.0758 29.0938 34.9824L29.0811 34.9628L29.0693 34.9414C28.4203 33.7632 27.7966 32.5691 27.1982 31.3632L27.1904 31.3466C26.2846 29.3764 25.4694 27.3524 24.502 25.413L16.9336 10.2109C16.4522 9.24347 15.9168 8.30189 15.3154 7.40522C14.7572 6.80853 14.1514 6.25922 13.4932 5.77631C12.4919 5.04419 11.3993 4.49491 10.2119 4.12885C8.93229 3.73515 7.60312 3.57417 6.2666 3.57417H6.21191V3.70014L4.52148 4.65327L2.83398 3.69819L2.83984 2.12788ZM27.0479 29.4052C27.301 29.9795 27.5507 30.5417 27.7939 31.0703C27.8342 31.1514 27.8746 31.2325 27.915 31.3134C27.666 30.7877 27.3664 30.1194 27.0479 29.4052ZM6.02539 7.5771C6.05319 7.59298 6.07994 7.61069 6.10645 7.62885C6.06949 7.60438 6.03233 7.58143 5.99512 7.55952C6.0051 7.56555 6.01562 7.57075 6.02539 7.5771ZM5.17969 1.17182L5.17676 1.17085V1.1728L5.17969 1.17182L5.21777 1.19624H5.21973L6.21875 1.76167V1.85737H6.26953C7.78915 1.85737 9.3014 2.04538 10.7549 2.49604C10.8486 2.52523 10.941 2.55363 11.0332 2.58588C10.8734 2.46607 10.709 2.35246 10.54 2.24799C8.94448 1.25807 7.01976 1.09372 5.17969 1.17182Z" fill="#1C2C3C"/>
</svg>
