<svg width="72" height="72" viewBox="0 0 72 72" fill="none" xmlns="http://www.w3.org/2000/svg">
<path fill-rule="evenodd" clip-rule="evenodd" d="M3.46771 67.594L7.18078 54.311C8.1268 51.0079 4.92065 49.329 3.48386 41.6801C2.55075 36.7207 2.80905 31.3481 4.09409 26.6244C5.96031 19.7601 9.46028 17.0059 9.04377 14.8168C7.49397 13.8288 6.97737 14.3196 6.07977 15.7435C0.949285 23.8832 -1.13649 32.4394 0.778162 42.4227C1.28185 45.0444 2.0406 47.3788 3.05766 49.6551C4.86899 53.7136 4.91096 51.9281 3.59041 56.6163C2.89945 59.0766 2.20204 61.5563 1.51109 64.0424C0.85888 66.3897 -0.752267 70.4095 0.410084 71.3039C1.39485 72.0626 13.7836 68.2785 16.4796 67.5295C19.718 66.6286 18.6461 66.8579 21.3647 67.988C43.1265 77.0414 66.4413 64.0424 70.4611 41.8157C75.7595 12.5244 44.5278 -10.6677 17.248 5.10153C15.6563 6.02173 14.0322 6.61904 14.6005 8.77908C16.344 9.44743 17.29 8.3206 18.7462 7.44238C29.1202 1.17214 42.4646 1.39169 52.4673 7.5231C61.2914 12.9345 70.445 24.6032 67.778 40.8212C65.6632 53.6717 55.9608 63.7744 44.3986 66.9354C29.753 70.9358 21.0192 63.7873 18.6493 64.0747C16.499 64.3362 7.8911 67.4035 3.94557 67.9234C3.11578 68.0751 3.70987 68.0816 3.46448 67.6005L3.46771 67.594ZM55.2504 56.9553C57.6559 56.9036 57.3621 54.7113 56.2578 54.3239C54.7887 53.8073 53.3358 55.4281 55.2504 56.9553ZM12.5373 10.2611C10.0996 9.52492 9.36987 11.3589 10.642 12.4437C11.8302 13.4575 13.2541 12.2338 12.5373 10.2611ZM44.5052 41.1344C45.929 41.3766 47.072 42.1482 48.2957 42.7456C48.8607 43.0232 49.429 43.2944 50.0005 43.556C50.8432 43.9434 51.1564 43.9111 51.3663 44.7668C52.1799 48.0633 49.1869 49.978 46.5619 50.388C35.8263 52.0702 17.6807 36.0362 19.9763 25.9883C20.8739 22.0686 22.682 21.3099 25.6783 21.4875C27.58 27.7286 30.0242 27.6415 27.4154 30.3568C24.2544 33.6469 27.0376 36.146 29.1976 38.6095C31.1058 40.7857 33.5435 42.7262 36.6302 44.3373C41.9028 47.0947 42.2386 43.4236 44.5019 41.1344H44.5052ZM39.8461 42.4711C36.5075 42.2193 30.3083 36.598 28.7133 33.2821C29.6497 31.7904 31.8969 30.628 31.2996 27.8513C30.9541 26.2369 29.4495 23.3827 28.7521 21.7231C26.4015 16.1374 20.4413 18.6074 18.3523 22.427C13.8934 30.5828 21.3324 40.2691 27.0731 45.222C30.0629 47.8018 33.2626 49.9392 37.6505 51.7021C41.722 53.3391 47.8631 54.298 51.2855 51.4309C52.8386 50.1297 54.0364 48.5186 54.185 45.8807C54.3948 42.1515 53.1356 42.0481 50.5236 40.776C41.27 36.2654 43.9692 38.8581 39.8461 42.4743V42.4711ZM8.17846 63.2837C10.8422 64.3072 17.826 60.4585 20.099 61.1075C22.4786 61.7887 24.2544 63.9488 31.0574 64.9917C37.2792 65.9474 43.9886 64.8464 49.4613 61.9114C50.8916 61.143 54.0042 59.8709 52.1508 58.1435C50.8852 57.2975 49.0738 58.9539 47.7307 59.6319C46.2584 60.3713 44.7731 60.9816 43.1329 61.453C39.3714 62.5346 35.1159 62.8478 31.0929 62.1665C27.1926 61.5046 24.5063 60.3423 21.4938 58.6181C18.9367 57.1555 15.9178 59.4285 11.3717 60.1421C11.7818 58.2694 13.422 53.6878 13.5091 52.2445C13.5705 51.2049 11.0424 47.0075 10.3772 45.4093C4.2297 30.6377 13.2024 12.053 30.7765 8.81137C48.3054 5.57616 63.3191 19.9215 62.6055 36.64C62.4764 39.6556 61.8274 42.5292 60.8782 45.0832C59.2315 49.513 57.3621 50.1685 58.2048 52.3802C60.2712 52.971 60.5811 51.912 61.4303 50.3912C62.1535 49.103 62.6863 48.0698 63.2674 46.6394C69.1696 32.1682 62.6314 15.7564 49.1546 8.86303C43.8207 6.13473 37.2308 4.89166 30.4859 6.02495C9.80575 9.49263 -0.477824 32.8462 9.541 50.1588C10.6549 52.0831 10.7292 51.9314 10.0285 54.3852C9.43122 56.4774 7.60374 61.4529 8.172 63.2869L8.17846 63.2837Z" fill="#1C2C3C"/>
</svg>
