<svg width="80" height="93" viewBox="0 0 80 93" fill="none" xmlns="http://www.w3.org/2000/svg">
<path fill-rule="evenodd" clip-rule="evenodd" d="M53.3068 81.6745C52.6212 80.9153 51.9207 80.0832 51.2039 79.1719C48.7741 76.0825 46.1673 72.089 43.3383 66.9302L26.859 36.8352L26.8572 36.8359C25.6814 34.6281 24.6301 32.7603 23.6915 31.2083C22.9736 30.0221 21.5342 27.9035 20.7639 26.741L21.5198 27.9265C22.8089 29.9658 24.4238 32.6247 26.2233 35.9835L44.1839 68.5713C47.8778 75.263 51.2495 79.9863 54.3421 83.4169L54.3259 83.466C54.9449 84.1212 55.5516 84.7323 56.1482 85.3105C57.1785 86.3273 58.1758 87.2061 59.1427 87.9741L59.1489 87.9755C72.9623 99.0787 80.0406 87.8541 80.0051 67.0396C79.0099 69.771 77.95 72.0137 76.8158 73.6846L76.8314 76.8258C77.1051 80.1192 76.4531 83.0031 75.0934 85.1776C74.0244 86.8865 72.5199 88.1568 70.682 88.8496C68.8499 89.54 66.6956 89.6525 64.3212 89.0465C60.9665 88.19 57.1654 85.8914 53.2195 81.7474L53.3072 81.6745H53.3068ZM75.9195 74.8661C72.7853 78.5255 69.0979 77.9575 64.664 71.5664C63.2392 69.1471 61.8487 66.656 60.5049 64.1195C58.5722 60.1872 56.4559 55.3806 54.4652 51.6368L37.5114 19.7574C36.3186 17.5144 35.0548 15.4737 33.7252 13.6262C32.3459 12.2349 30.8921 11.01 29.3529 9.95562C26.9923 8.33894 24.4122 7.11474 21.5669 6.29522C18.7396 5.48044 15.664 5.06932 12.2951 5.06932H10.6936L10.6904 5.90952L8.3866 7.12559L6.09112 5.90952L6.10052 3.46789L7.24699 2.86291H7.25201L8.40428 2.25454L9.55117 2.86291H9.55619L10.6987 3.46789L10.6958 4.25013H12.2973C15.7994 4.25013 18.985 4.6782 21.9017 5.52552C24.8046 6.36876 27.4512 7.63025 29.8893 9.30014C30.1286 9.46384 30.3661 9.63161 30.6003 9.8031C25.1525 3.98069 21.9937 -0.614139 9.09612 0.0671031C-0.846012 0.591761 0.221917 13.1768 0.00326538 23.3974C4.85161 14.0597 10.0826 11.5981 14.1946 17.1612C15.9695 19.5618 17.6195 21.997 19.136 24.4674L19.1616 24.4817L19.2135 24.5112L19.2391 24.5261L19.2649 24.5413L19.2909 24.5562L19.3166 24.5718L19.3427 24.5874L19.368 24.603L19.3919 24.6176L19.3941 24.6186L19.4198 24.6349L19.4415 24.6484L19.4455 24.6508L19.4712 24.6674L19.4969 24.6837L19.5067 24.6901L19.5226 24.7003L19.5483 24.7172L19.5718 24.7325L19.574 24.7342L19.5993 24.7511L19.625 24.7684L19.637 24.7762L19.6507 24.7857L19.6764 24.8033L19.7018 24.8209L19.7275 24.8389L19.7532 24.8572L19.7669 24.8667L19.7785 24.8752L19.8042 24.8935L19.8296 24.9121L19.8317 24.9135L19.8549 24.9307L19.8806 24.9497L19.906 24.9687L19.9317 24.9877L19.957 25.007L19.961 25.0101L19.9823 25.0267L20.0077 25.0463L20.0254 25.0599L20.033 25.066L20.0584 25.086L20.0841 25.106L20.0899 25.1107L20.109 25.1263L20.1597 25.1673L20.1851 25.1883L20.2104 25.209L20.2354 25.23L20.2607 25.2514L20.361 25.3378L20.386 25.3598L20.4363 25.4046L20.4613 25.4269L20.4866 25.4496L20.5116 25.4727L20.5615 25.5188L20.5866 25.5422L20.6861 25.6367L20.7107 25.6608L20.7357 25.6852L20.7603 25.7096V25.7028L20.7864 25.7354L20.7889 25.7381L20.8139 25.7628L20.8414 25.7906L20.8519 25.8011L20.8689 25.8187L20.8964 25.8469L20.9145 25.8658L20.924 25.8753L20.9511 25.9038L20.9771 25.9313L20.9786 25.933L21.0058 25.9618L21.0333 25.9909L21.0394 25.9977L21.0604 26.0204L21.0876 26.0499L21.1016 26.0651L21.1151 26.08L21.1419 26.1099L21.1636 26.1339L21.1694 26.14L21.1965 26.1709L21.2233 26.2014L21.2254 26.2038L21.2505 26.2322L21.2776 26.2634L21.287 26.2743L21.3044 26.2946L21.3316 26.3258L21.3485 26.3461L21.3584 26.3576L21.3851 26.3895L21.4098 26.419L21.4119 26.4217L21.4387 26.4539L21.4655 26.4864L21.4709 26.4932L21.5191 26.5522L21.5317 26.5681L21.5455 26.585L21.6255 26.6854L21.6519 26.7193L21.6533 26.721L21.6784 26.7535L21.7047 26.7877L21.7134 26.7992L21.7576 26.8572L21.7735 26.8786L21.7841 26.8921L21.8101 26.9274L21.8336 26.9589L21.8365 26.9626L21.8626 26.9982L21.889 27.0341L21.8937 27.0406L21.9412 27.1063L21.9531 27.1233L21.9672 27.1429L21.9933 27.1795L22.0124 27.207L22.019 27.2161L22.045 27.2534L22.0711 27.2907L22.0715 27.2917L22.0968 27.3283L22.1229 27.3659L22.1305 27.3775L22.1482 27.4036L22.1743 27.4419L22.1891 27.4642L22.2257 27.5188L22.2478 27.5523L22.251 27.5574L22.2767 27.5964L22.3021 27.6357L22.3061 27.6415L22.3274 27.675L22.3531 27.7143L22.364 27.732L22.3785 27.7543L22.4038 27.7943L22.4219 27.8231L22.4288 27.8347L22.4541 27.875L22.4794 27.9157L22.4577 27.9272C22.5428 28.0482 22.6286 28.1733 22.7162 28.301C23.189 28.9924 23.6698 29.7384 24.1614 30.5407C24.62 31.2904 25.1493 32.1956 25.7513 33.2609C26.37 34.3539 26.965 35.4381 27.5392 36.5163L28.0547 37.4836L28.067 37.4778L44.0192 66.6055C46.7918 71.6606 49.3327 75.5714 51.6901 78.5926C52.4358 79.5494 53.1652 80.4184 53.8784 81.2081L53.8994 81.1905C57.7211 85.2048 61.3679 87.4227 64.5623 88.2381C66.7354 88.793 68.6953 88.695 70.3504 88.0714C71.9983 87.4501 73.3521 86.3025 74.319 84.7567C76.3488 81.5111 75.9419 78.4028 75.9238 74.8729L75.9195 74.8661Z" fill="url(#paint0_radial_2_175)"/>
<defs>
<radialGradient id="paint0_radial_2_175" cx="0" cy="0" r="1" gradientUnits="userSpaceOnUse" gradientTransform="translate(45.6166 36.0191) rotate(59.9692) scale(96.666 89.7408)">
<stop stop-color="#81ABDB"/>
<stop offset="0.411765" stop-color="#345FA3"/>
<stop offset="0.752941" stop-color="#2C4F80"/>
<stop offset="1" stop-color="#243F5E"/>
</radialGradient>
</defs>
</svg>
