<svg width="80" height="93" viewBox="0 0 80 93" fill="none" xmlns="http://www.w3.org/2000/svg">
<path fill-rule="evenodd" clip-rule="evenodd" d="M79.9707 67.1333L79.9518 11.2732C79.9497 5.37246 74.1612 0.679352 69.1485 0.679352H60.4115L60.5436 50.492V50.491C60.3409 52.1213 59.7089 53.1608 59.0222 53.5373L60.6146 57.1564C61.1532 58.2935 62.7899 61.9569 63.1696 62.7774L65.7222 68.2823L65.8315 38.4917L63.9375 37.4885L63.9465 35.0468L65.0933 34.4415H65.0984L66.2499 33.8335L67.3975 34.4415H67.4026L68.545 35.0472L68.536 37.4912L66.7249 38.4466L66.6011 72.384L65.7514 70.5805C65.5809 70.2182 65.3102 69.6275 64.9811 68.9039C64.5286 67.9084 64.3414 67.4939 64.1561 67.0801C63.0273 64.5704 61.8954 62.0477 60.6602 59.5807L58.0028 53.7508C56.6988 53.6488 55.0169 52.2724 53.1493 49.1638L54.4641 51.6369C56.1467 54.7995 59.0728 61.2696 60.8198 64.7131L60.8832 64.8317L60.9465 64.9496L61.0103 65.0683L61.074 65.1862L61.1381 65.3045L61.2014 65.4224L61.2651 65.5404L61.3292 65.6583L61.3929 65.7763H61.3937L61.4574 65.8942L61.5214 66.0118L61.5858 66.1294L61.65 66.2467L61.7144 66.3643L61.7788 66.4816L61.8433 66.5988L61.9077 66.7161L61.9721 66.833L62.0369 66.95L62.1013 67.0672L62.1665 67.1842L62.2309 67.3008V67.3011L62.2958 67.4177L62.3609 67.5343L62.4257 67.6505L62.4913 67.7671L62.556 67.8837L62.6212 67.9996V68.0003L62.6262 68.0095L62.6863 68.1162L62.7519 68.2325L62.8167 68.3484H62.8174L62.8822 68.464L62.9477 68.5799L63.0136 68.6961L63.0791 68.8117L63.1446 68.9273L63.2105 69.0425V69.0428L63.2761 69.1577L63.342 69.2733L63.4737 69.5041L63.5396 69.619L63.6055 69.7339L63.6714 69.8488L63.738 69.9634L63.8039 70.0779L63.8705 70.1925L63.9364 70.3067L64.0026 70.4212L64.0692 70.5355L64.1358 70.6497L64.2025 70.7639L64.2687 70.8774L64.3357 70.9917L64.4023 71.1052L64.4689 71.2191L64.5355 71.3323L64.6024 71.4458L64.6695 71.559C69.1033 77.9502 72.7907 78.5182 75.9249 74.8588L75.757 13.8483C75.7519 12.6397 75.4774 11.486 75.0039 10.4245C74.4989 9.29317 73.7659 8.26893 72.8927 7.40128C72.4659 6.97796 72.0004 6.58786 71.508 6.23774C71.0041 5.87984 70.4861 5.57277 69.9678 5.32366L69.4168 5.05896L68.0129 5.82764H68.009L67.0279 6.36518L65.0561 5.28977L65.0467 3.1308L66.0229 2.59598H66.0273L67.0087 2.0581L67.9945 2.59598H67.9988L68.9802 3.1308L68.9845 4.12454L69.6854 4.40822C70.3667 4.68478 71.0342 5.03829 71.6692 5.45957C72.3041 5.87984 72.9011 6.3645 73.4434 6.90306C74.3904 7.84324 75.1835 8.95627 75.7294 10.1896C76.2283 11.3176 76.5168 12.5503 76.523 13.848C76.6116 33.7786 76.7213 53.7881 76.822 73.677L76.8752 73.5984L76.927 73.5207L76.9284 73.519V73.5184L76.9791 73.4408L76.9813 73.438L77.0315 73.3601L77.0341 73.357V73.3564L77.0837 73.2794L77.0866 73.2743L77.1394 73.1913L77.1923 73.1076L77.2448 73.0229L77.2969 72.9374L77.3436 72.8608L77.3491 72.851L77.3947 72.7744L77.4015 72.7636L77.4461 72.688L77.4533 72.6758L77.4978 72.6002L77.5055 72.5866L77.5489 72.5117L77.5572 72.4972L77.609 72.4067L77.6607 72.3155L77.7121 72.2233L77.7632 72.1308L77.8142 72.0372L77.854 71.964L77.8656 71.9427L77.8895 71.898L77.9047 71.8702L77.917 71.8471L77.9551 71.7756L77.9677 71.7512H77.9681L78.0053 71.68L78.0188 71.6543L78.0553 71.5834L78.0698 71.5563L78.1205 71.4584L78.1559 71.3885L78.1708 71.3591L78.2056 71.2903L78.2215 71.2594V71.2591L78.2551 71.1906L78.2714 71.1584L78.2787 71.1435L78.3217 71.0567L78.3547 70.9896L78.3721 70.9544L78.4043 70.888L78.4217 70.8513L78.4535 70.7853L78.472 70.7473L78.5216 70.6426L78.5527 70.5772L78.5715 70.5372L78.6012 70.4734L79.9801 67.1205L79.9707 67.1333ZM78.7102 70.2298L78.7381 70.1684L78.7594 70.1213L78.7869 70.0606L78.8087 70.0115L78.8351 69.9522L78.8579 69.9017L78.8839 69.843L78.9068 69.7908L78.9538 69.6841L78.956 69.6793L79.0045 69.5675L79.0291 69.5112L79.0534 69.4546V69.454L79.0765 69.3991L79.1019 69.3401L79.125 69.2859L79.1507 69.2255L79.1732 69.1723L79.1989 69.1103L79.2471 68.9944L79.2952 68.8778L79.3434 68.7605L79.3636 68.7114L79.3919 68.6422L79.411 68.5938L79.4397 68.5229L79.487 68.4033L79.5055 68.3572L79.5348 68.2826L79.5826 68.1616L79.6 68.1182L79.6301 68.0396L79.647 67.9969L79.6779 67.9166L79.6938 67.8752L79.7249 67.7932L79.7723 67.6695L79.8194 67.5448L79.8335 67.5068L79.8664 67.419L79.8806 67.3824L79.9135 67.2926L79.9265 67.257L79.9605 67.1652L79.9728 67.131L78.7124 70.2274L78.7102 70.2298ZM0.00431296 23.3972L0.102026 80.4711C0.116145 88.5175 6.28221 92.5406 12.0113 92.5406H19.7463L19.7408 89.2276H14.3817C11.4622 89.2276 8.41699 88.1078 6.22686 85.8682C5.3175 84.9392 4.63075 83.9102 4.13733 82.8117C3.60735 81.6316 3.29529 80.3542 3.16677 79.0195L3.11247 78.4606L2.45181 78.1006L2.45294 78.0986L1.46718 77.5611L1.45778 75.4021L2.43371 74.8666H2.43845L3.41982 74.3291L4.40523 74.8666H4.4099L5.3917 75.4021L5.4011 77.5634L3.86908 78.4033L3.94297 79.0937C4.07799 80.3694 4.39508 81.5153 4.85229 82.5318C5.35078 83.639 6.01144 84.5877 6.78577 85.3788C7.77731 86.3921 8.95925 87.1601 10.2252 87.6797C11.5613 88.2288 12.9869 88.5033 14.3785 88.5033H19.7391L19.6431 46.0152C19.9107 42.428 19.9468 33.2739 25.7805 35.1638C25.4142 34.489 25.0598 33.844 24.7145 33.2285C23.4464 31.0207 22.1276 28.8601 20.7632 26.7421C20.7635 26.7641 20.4222 26.2957 19.8849 25.8206L19.8494 25.7897L19.8397 25.7813L19.8136 25.7589L19.7814 25.7314L19.7778 25.7284L19.742 25.6982L19.7227 25.6826L19.7061 25.6687L19.6703 25.6396L19.6641 25.6345L19.6341 25.6104L19.6054 25.5877L19.5982 25.582L19.562 25.5538L19.5465 25.5416L19.5262 25.526L19.49 25.4986L19.4878 25.4966L19.4541 25.4715L19.4288 25.4528L19.4179 25.4447L19.3817 25.4183L19.3698 25.4095L19.3455 25.3925L19.3108 25.3674L19.3093 25.3668L19.2735 25.3413L19.2514 25.3264L19.2369 25.3166L19.2007 25.2918L19.1925 25.2864L19.1645 25.2678L19.1334 25.2471L19.1283 25.2441L19.0921 25.2203L19.074 25.2088L19.0559 25.1973L19.0197 25.1746L19.0147 25.1715L18.9832 25.1522L18.9553 25.1353L18.947 25.1302L18.9104 25.1085L18.8959 25.0997L18.8742 25.0871L18.8377 25.0661L18.8366 25.0654L18.8015 25.0454L18.7769 25.0319L18.7649 25.0251L18.7284 25.0055L18.7175 24.9994L18.7146 24.998L18.6581 24.9678L18.6556 24.9665L18.619 24.9478L18.5984 24.9373L18.5828 24.9292L18.5462 24.9112L18.539 24.9075L18.5097 24.8933L18.4793 24.8787L18.4735 24.876L18.4195 24.8509L18.4004 24.8421L18.3638 24.8258L18.3602 24.8241L18.3493 24.8194L18.3005 24.7984L18.2907 24.7943L18.2541 24.7787L18.2407 24.7733L18.181 24.7492C17.1916 24.3581 16.1939 24.3547 15.2513 24.7004C14.2854 25.0543 13.3681 25.7731 12.5644 26.817C10.9057 28.9702 9.74297 32.4754 9.61048 37.0004L9.45373 53.8722L10.3059 53.8637L11.0046 54.9696L11.7036 56.0755L11.0299 57.195L10.3562 58.3148L8.9839 58.3284L7.61153 58.3423L6.91247 57.236L6.21377 56.1304L6.88716 55.0106L7.56083 53.8911L8.75185 53.8793L8.9086 36.9821C9.04507 32.3185 10.2603 28.6845 11.9951 26.4327C12.8798 25.2841 13.9039 24.4869 14.9953 24.0866C16.1092 23.6782 17.2872 23.6819 18.454 24.1432L18.4648 24.1476L18.4753 24.1517L18.4967 24.1602L18.5076 24.1646L18.518 24.169L18.5202 24.17L18.5289 24.1734L18.5394 24.1778L18.5503 24.1822L18.5607 24.1866L18.5716 24.1914L18.5821 24.1958L18.5865 24.1975L18.593 24.2002L18.6034 24.2049L18.6143 24.2097L18.6248 24.2141L18.6357 24.2188L18.6461 24.2235L18.6524 24.2259L18.657 24.228L18.6676 24.2327L18.6784 24.2378L18.6889 24.2425L18.6994 24.2473L18.7103 24.252L18.7182 24.2557L18.7207 24.2568L18.7316 24.2618L18.7421 24.2666L18.7743 24.2815L18.7844 24.2863L18.7848 24.2866L18.8062 24.2968L18.8167 24.3018L18.8276 24.3069L18.838 24.312L18.8486 24.3171L18.8503 24.3181L18.8594 24.3225L18.8597 24.3229L18.8807 24.3327L18.8913 24.3381L18.9017 24.3435L18.9126 24.3486L18.9162 24.3506L18.9231 24.354L18.9336 24.3595L18.9444 24.3649L18.955 24.3703L18.9658 24.3757L18.9763 24.3812L18.9821 24.3842L18.9868 24.3866L18.9977 24.3923L19.0081 24.3978L19.0187 24.4035L19.0291 24.4089L19.04 24.4147L19.0477 24.4188L19.0506 24.4201L19.0614 24.4262L19.0824 24.4374L19.0929 24.4432L19.1037 24.4489L19.1131 24.4544L19.1143 24.4547L19.1247 24.4605L19.1353 24.4666C17.9674 22.5635 16.7199 20.6818 15.3971 18.8204C14.8805 18.1005 14.4658 17.5281 14.1939 17.1603C14.1294 17.0732 14.0653 16.9881 14.0002 16.9051C13.9354 16.8217 13.8702 16.7411 13.8054 16.6621C13.7399 16.5828 13.6744 16.5055 13.6085 16.4306C13.5426 16.355 13.4767 16.2818 13.4101 16.2107C13.3439 16.1395 13.2773 16.0697 13.2103 16.0022C13.1433 15.9348 13.0767 15.8694 13.009 15.806V15.8056C12.9417 15.7423 12.8747 15.6809 12.8067 15.6213C12.7386 15.5613 12.6705 15.5037 12.6025 15.4477C12.5341 15.3915 12.466 15.3383 12.3969 15.2861C12.3284 15.2339 12.2593 15.184 12.1901 15.1356C12.1206 15.0875 12.0518 15.0414 11.982 14.997C11.9125 14.9529 11.843 14.9099 11.7728 14.8699C11.7029 14.8292 11.6326 14.7906 11.5621 14.7539C11.4915 14.7173 11.4213 14.6828 11.3503 14.6496C11.2797 14.617 11.2088 14.5858 11.1378 14.5567C11.0662 14.5272 10.9948 14.5001 10.9235 14.4743C10.8519 14.4493 10.7801 14.4259 10.7081 14.4042C10.6361 14.3825 10.5644 14.3628 10.4924 14.3452V14.3445C10.4196 14.3272 10.3476 14.3113 10.2752 14.2971V14.2967C10.202 14.2828 10.1296 14.2706 10.0565 14.2601C9.98372 14.2496 9.911 14.2415 9.83751 14.2351C9.76366 14.2283 9.6909 14.2235 9.61741 14.2205C9.54392 14.2178 9.47002 14.2167 9.39653 14.2178C9.32268 14.2188 9.24887 14.2215 9.17466 14.2259C9.10081 14.2306 9.02659 14.2374 8.95166 14.2456C8.87781 14.2537 8.80287 14.2639 8.72865 14.2757C8.65372 14.2879 8.57917 14.3018 8.50424 14.3178C8.42931 14.3333 8.35469 14.351 8.27975 14.3699V14.3703C8.20446 14.3896 8.12915 14.4106 8.05385 14.4337V14.434C7.97856 14.4567 7.90326 14.4815 7.8276 14.5086C7.7523 14.5353 7.67701 14.5638 7.60099 14.594C7.52461 14.6245 7.44935 14.6567 7.37332 14.6906C7.2973 14.7245 7.22125 14.7604 7.14523 14.7977C7.06921 14.8353 6.99353 14.8749 6.91679 14.916C6.84077 14.9573 6.76443 15.0003 6.68841 15.0451C6.61167 15.0895 6.53565 15.1366 6.45891 15.1847C6.38216 15.2332 6.30608 15.2833 6.22933 15.3355C6.15258 15.3877 6.0755 15.4409 5.99912 15.4969C5.92237 15.5528 5.84566 15.6101 5.76855 15.6694C5.69144 15.7287 5.61502 15.789 5.53791 15.8524C5.46081 15.9154 5.3841 15.9798 5.30699 16.0459C5.22989 16.1124 5.15313 16.1805 5.07529 16.25V16.2506C4.99819 16.3205 4.92141 16.3916 4.8443 16.4655C4.76683 16.5391 4.69008 16.6143 4.61225 16.6912C4.53514 16.7685 4.45845 16.8472 4.38098 16.9275C4.30387 17.0085 4.22639 17.0905 4.14928 17.1746C4.07181 17.2586 3.99434 17.3444 3.91723 17.4325C3.83976 17.5199 3.76228 17.6087 3.68518 17.6999V17.7002C3.60771 17.7914 3.53096 17.8839 3.45313 17.9788C3.37602 18.0731 3.2989 18.1696 3.22143 18.2676C3.14396 18.3655 3.06691 18.4652 2.9898 18.5665C2.91269 18.6679 2.83557 18.7712 2.7581 18.8766C2.68063 18.9814 2.60387 19.0881 2.52676 19.1966C2.44965 19.3044 2.37217 19.4152 2.29506 19.527C2.21795 19.6386 2.14125 19.7521 2.06414 19.8673C1.98703 19.9826 1.91026 20.0998 1.83315 20.2188C1.7564 20.3371 1.67969 20.4577 1.60258 20.5801C1.5262 20.7018 1.44947 20.8262 1.37272 20.9519C1.29562 21.077 1.21918 21.2047 1.14244 21.3335C1.06606 21.4623 0.989679 21.5935 0.912934 21.7257C0.836912 21.8578 0.760518 21.9924 0.684135 22.128C0.607751 22.2639 0.531781 22.4015 0.45576 22.5404C0.379015 22.6797 0.303335 22.8207 0.227314 22.9631C0.150931 23.1058 0.0760212 23.2498 0 23.3962L0.00431296 23.3972Z" fill="#688071"/>
</svg>
