<svg width="72" height="72" viewBox="0 0 72 72" fill="none" xmlns="http://www.w3.org/2000/svg">
<path fill-rule="evenodd" clip-rule="evenodd" d="M3.46771 67.9979L7.18078 54.7148C8.1268 51.4118 4.92065 49.7329 3.48386 42.0839C2.55075 37.1246 2.80905 31.7519 4.09409 27.0283C5.96031 20.1639 9.46028 17.4098 9.04377 15.2207C7.49397 14.2327 6.97737 14.7235 6.07977 16.1474C0.949285 24.2871 -1.13649 32.8433 0.778162 42.8266C1.28185 45.4483 2.0406 47.7827 3.05766 50.059C4.86899 54.1175 4.91096 52.332 3.59041 57.0202C2.89945 59.4805 2.20204 61.9601 1.51109 64.4463C0.85888 66.7936 -0.752267 70.8134 0.410084 71.7077C1.39485 72.4665 13.7836 68.6824 16.4796 67.9333C19.718 67.0325 18.6461 67.2618 21.3647 68.3918C43.1265 77.4452 66.4413 64.4463 70.4611 42.2195C75.7595 12.9283 44.5278 -10.2638 17.248 5.5054C15.6563 6.42559 14.0322 7.02291 14.6005 9.18295C16.344 9.8513 17.29 8.72447 18.7462 7.84625C29.1202 1.57601 42.4646 1.79556 52.4673 7.92696C61.2914 13.3384 70.445 25.0071 67.778 41.2251C65.6632 54.0755 55.9608 64.1783 44.3986 67.3392C29.753 71.3397 21.0192 64.1912 18.6493 64.4786C16.499 64.7401 7.8911 67.8074 3.94557 68.3272C3.11578 68.479 3.70987 68.4855 3.46448 68.0044L3.46771 67.9979ZM55.2504 57.3592C57.6559 57.3075 57.3621 55.1152 56.2578 54.7277C54.7887 54.2111 53.3358 55.832 55.2504 57.3592ZM12.5373 10.6649C10.0996 9.92879 9.36987 11.7627 10.642 12.8476C11.8302 13.8614 13.2541 12.6377 12.5373 10.6649ZM44.5052 41.5383C45.929 41.7804 47.072 42.5521 48.2957 43.1494C48.8607 43.4271 49.429 43.6983 50.0005 43.9598C50.8432 44.3473 51.1564 44.315 51.3663 45.1706C52.1799 48.4672 49.1869 50.3818 46.5619 50.7919C35.8263 52.4741 17.6807 36.4401 19.9763 26.3922C20.8739 22.4725 22.682 21.7137 25.6783 21.8913C27.58 28.1325 30.0242 28.0453 27.4154 30.7607C24.2544 34.0508 27.0376 36.5499 29.1976 39.0134C31.1058 41.1896 33.5435 43.1301 36.6302 44.7412C41.9028 47.4986 42.2386 43.8275 44.5019 41.5383H44.5052ZM39.8461 42.875C36.5075 42.6231 30.3083 37.0019 28.7133 33.686C29.6497 32.1943 31.8969 31.0319 31.2996 28.2552C30.9541 26.6408 29.4495 23.7866 28.7521 22.127C26.4015 16.5413 20.4413 19.0113 18.3523 22.8309C13.8934 30.9867 21.3324 40.673 27.0731 45.6259C30.0629 48.2057 33.2626 50.3431 37.6505 52.106C41.722 53.743 47.8631 54.7019 51.2855 51.8348C52.8386 50.5336 54.0364 48.9224 54.185 46.2845C54.3948 42.5553 53.1356 42.452 50.5236 41.1799C41.27 36.6693 43.9692 39.262 39.8461 42.8782V42.875ZM8.17846 63.6875C10.8422 64.711 17.826 60.8624 20.099 61.5113C22.4786 62.1926 24.2544 64.3526 31.0574 65.3955C37.2792 66.3512 43.9886 65.2502 49.4613 62.3153C50.8916 61.5469 54.0042 60.2747 52.1508 58.5474C50.8852 57.7014 49.0738 59.3578 47.7307 60.0358C46.2584 60.7752 44.7731 61.3854 43.1329 61.8568C39.3714 62.9385 35.1159 63.2516 31.0929 62.5704C27.1926 61.9085 24.5063 60.7461 21.4938 59.022C18.9367 57.5594 15.9178 59.8324 11.3717 60.5459C11.7818 58.6733 13.422 54.0917 13.5091 52.6484C13.5705 51.6088 11.0424 47.4114 10.3772 45.8131C4.2297 31.0416 13.2024 12.4569 30.7765 9.21524C48.3054 5.98003 63.3191 20.3254 62.6055 37.0439C62.4764 40.0595 61.8274 42.9331 60.8782 45.487C59.2315 49.9169 57.3621 50.5723 58.2048 52.784C60.2712 53.3749 60.5811 52.3159 61.4303 50.7951C62.1535 49.5068 62.6863 48.4736 63.2674 47.0433C69.1696 32.572 62.6314 16.1603 49.1546 9.2669C43.8207 6.5386 37.2308 5.29553 30.4859 6.42882C9.80575 9.8965 -0.477824 33.2501 9.541 50.5626C10.6549 52.487 10.7292 52.3352 10.0285 54.7891C9.43122 56.8813 7.60374 61.8568 8.172 63.6908L8.17846 63.6875Z" fill="#ABC2B3"/>
</svg>
