<svg width="135" height="30" viewBox="0 0 135 30" fill="none" xmlns="http://www.w3.org/2000/svg">
<path d="M127.505 1H7.49545C3.90811 1 1 3.30924 1 6.15783V23.8422C1 26.6908 3.90811 29 7.49545 29H127.505C131.092 29 134 26.6908 134 23.8422V6.15783C134 3.30924 131.092 1 127.505 1Z" fill="#9F9F9F"/>
<path d="M127.505 1H7.49545C3.90811 1 1 3.30924 1 6.15783V23.8422C1 26.6908 3.90811 29 7.49545 29H127.505C131.092 29 134 26.6908 134 23.8422V6.15783C134 3.30924 131.092 1 127.505 1Z" fill="black" fill-opacity="0.2"/>
<path d="M127.505 1H7.49545C3.90811 1 1 3.30924 1 6.15783V23.8422C1 26.6908 3.90811 29 7.49545 29H127.505C131.092 29 134 26.6908 134 23.8422V6.15783C134 3.30924 131.092 1 127.505 1Z" stroke="#F3F3F3" stroke-width="0.999785" stroke-miterlimit="22.9256"/>
</svg>
