<svg width="69" height="86" viewBox="0 0 69 86" fill="none" xmlns="http://www.w3.org/2000/svg">
<path fill-rule="evenodd" clip-rule="evenodd" d="M45.979 75.3616C45.3878 74.6635 44.7847 73.897 44.1668 73.0562C42.0724 70.2102 39.8235 66.5324 37.3844 61.7791L23.1722 34.0586H23.1692C22.1561 32.0236 21.2501 30.3035 20.439 28.8746C19.8211 27.7813 18.5793 25.8295 17.9139 24.76L18.5645 25.8503C19.6755 27.7279 21.0688 30.1788 22.6196 33.2714L38.1093 63.2883C41.294 69.4527 44.2024 73.8019 46.8702 76.9628L46.8553 77.0074C47.3901 77.6105 47.9129 78.1749 48.4269 78.7067C49.3152 79.6425 50.1737 80.4535 51.0085 81.1606H51.0144C62.9273 91.389 69.0323 81.0477 68.9996 61.8771C68.1411 64.3934 67.2261 66.4581 66.2487 67.997L66.2635 70.8905C66.4982 73.9237 65.9368 76.5796 64.7633 78.5819C63.8423 80.1564 62.5441 81.3269 60.9577 81.9627C59.3772 82.5984 57.5205 82.7024 55.4736 82.1439C52.5801 81.3537 49.3033 79.2385 45.8987 75.421L45.973 75.3556L45.979 75.3616ZM62.8739 82.4143C62.4253 82.7024 61.947 82.952 61.439 83.157C60.3992 83.5758 59.3148 83.7749 58.2216 83.7927C59.8377 84.0898 61.4449 83.7808 62.8739 82.4172V82.4143ZM64.2434 71.8501C63.2007 72.4205 62.0183 72.6374 60.7052 72.2749C58.1562 71.5709 56.0707 68.8585 54.6982 66.7463L54.6745 66.7077L54.6507 66.6661C53.397 64.3904 52.1939 62.0851 51.0382 59.756L51.0234 59.7233C49.2736 55.9177 47.699 52.0082 45.8304 48.262L31.2111 18.8987C30.2813 17.03 29.2474 15.2119 28.0859 13.4799C27.0075 12.3273 25.837 11.2667 24.5655 10.3339C22.6315 8.91975 20.5222 7.85918 18.2288 7.15213C15.7571 6.39161 13.1903 6.07967 10.6087 6.07967H10.5017V6.32328L7.23681 8.16517L3.97785 6.32031L3.98973 3.28712C2.97966 4.45168 2.41224 6.07373 2.04089 7.85324C1.45565 10.6517 1.35167 13.7592 1.32493 16.8072C2.57266 14.9921 4.0848 13.3373 5.81677 12.5114C8.89452 11.0379 11.5029 12.6125 13.3032 15.2119C14.4648 16.8904 15.5758 18.6016 16.6305 20.3514V19.9265L18.9239 23.0251L18.9774 23.0845L19.1883 23.3222L19.3369 23.5004L19.3458 23.5153L19.5032 23.7143L19.5418 23.7648L19.5478 23.7737L19.6102 23.8539L19.7706 24.0708L19.9488 24.3233L20.0706 24.5045L20.2905 24.8492L20.341 24.9353L20.344 24.9412L20.4955 25.1967L20.7153 25.5711C21.1431 26.2425 21.556 26.9287 21.9512 27.6209C22.4324 28.4587 22.8899 29.3113 23.3445 30.1639C23.8644 31.1413 24.3694 32.1276 24.8655 33.1169L39.1075 60.8908C41.0207 64.6192 43.1418 68.3743 45.6165 71.761C46.0651 72.373 46.5256 72.976 47.0039 73.5643L47.4436 74.0574C49.6657 76.5499 52.7227 79.2652 56.0202 80.1654C57.3898 80.5397 58.8603 80.5961 60.1972 80.0584C61.4093 79.5712 62.3391 78.6651 62.9927 77.5451C64.0741 75.7002 64.2464 73.8138 64.2434 71.8501ZM8.50237 1.43929L8.58258 1.48682H8.58555L10.5166 2.58008V2.76426H10.6146C13.5498 2.76426 16.47 3.1267 19.2774 3.99714C19.4587 4.05359 19.6369 4.11003 19.8152 4.17242C19.5062 3.9407 19.1883 3.72086 18.8615 3.51885C15.7778 1.60565 12.0584 1.29075 8.50237 1.44226V1.43929ZM65.4792 69.0873C62.7758 72.4591 59.5971 71.9333 55.7737 66.0481C54.5438 63.82 53.3465 61.5266 52.1879 59.1886C50.5213 55.5672 48.6972 51.1377 46.9801 47.6916L32.3608 18.3283C31.3329 16.2636 30.2427 14.383 29.0959 12.6808C27.9076 11.4004 26.6539 10.2715 25.326 9.30001C23.291 7.81165 21.0659 6.68274 18.612 5.92816C16.173 5.17655 13.52 4.79926 10.6176 4.79926H9.23616L9.23319 5.57464L7.24573 6.69463L5.26718 5.57464L5.27609 3.32575L6.26536 2.76724H6.26833L7.26058 2.20576L8.24985 2.76724H8.2558L9.2421 3.32575L9.23913 4.04468H10.6205C13.6389 4.04468 16.3869 4.43979 18.9031 5.22111C21.4075 5.99649 23.6891 7.16104 25.7924 8.69694C25.9974 8.84845 26.2024 9.00293 26.4044 9.16039C21.7076 3.7981 18.9833 -0.435281 7.86068 0.191556C-0.713035 0.675796 0.207912 12.2678 0.020752 21.6823C4.20066 13.0818 8.7133 10.8151 12.2604 15.9368C13.7904 18.147 15.2134 20.393 16.5205 22.6656L16.5413 22.6805L16.5859 22.7072L16.6067 22.7221L16.6275 22.7369L16.6483 22.7518L16.6691 22.7666L16.6899 22.7815L16.7107 22.7963L16.7315 22.8112H16.7344L16.7552 22.826L16.7731 22.8379L16.776 22.8409L16.7968 22.8558L16.8176 22.8706L16.8265 22.8765L16.8414 22.8855L16.8652 22.9003L16.886 22.9152H16.8889L16.9097 22.93L16.9305 22.9449L16.9394 22.9508L16.9513 22.9597L16.9721 22.9746L16.9929 22.9894L17.0137 23.0073L17.0345 23.0251L17.0464 23.034L17.0553 23.0429L17.0761 23.0607L17.0969 23.0786H17.0999L17.1206 23.0934L17.1414 23.1112L17.1622 23.1291L17.183 23.1469L17.2038 23.1647L17.2068 23.1677L17.2246 23.1825L17.2454 23.2004L17.2603 23.2122L17.2662 23.2182L17.287 23.236L17.3078 23.2538L17.3138 23.2568L17.3316 23.2717L17.3761 23.3103L17.3969 23.3311L17.4177 23.3489L17.4385 23.3697L17.4593 23.3905L17.5455 23.4707L17.5663 23.4915L17.6108 23.5331L17.6316 23.5539L17.6524 23.5747L17.6732 23.5955L17.7148 23.6371L17.7356 23.6579L17.8218 23.744L17.8426 23.7648L17.8633 23.7886L17.8841 23.8123V23.8064L17.9049 23.8361L17.9079 23.8391L17.9287 23.8629L17.9525 23.8896L17.9614 23.8985L17.9762 23.9134L18 23.9401L18.0149 23.9579L18.0238 23.9668L18.0475 23.9936L18.0683 24.0173L18.0921 24.0441L18.1159 24.0708L18.1218 24.0767L18.1396 24.0975L18.1634 24.1243L18.1753 24.1391L18.1872 24.154L18.2109 24.1807L18.2288 24.2015L18.2347 24.2075L18.2585 24.2372L18.2822 24.2639V24.2669L18.303 24.2936L18.3268 24.3233L18.3357 24.3352L18.3506 24.353L18.3743 24.3827L18.3892 24.4006L18.3981 24.4124L18.4219 24.4422L18.4427 24.4689L18.4456 24.4719L18.4694 24.5016L18.4932 24.5313L18.4961 24.5372L18.5377 24.5907L18.5496 24.6055L18.5615 24.6204L18.6298 24.7125L18.6536 24.7452L18.6744 24.7749L18.6981 24.8076L18.7071 24.8194L18.7457 24.8729L18.7605 24.8937L18.7694 24.9056L18.7932 24.9383L18.814 24.968L18.817 24.971L18.8407 25.0036L18.8645 25.0363L18.8675 25.0423L18.9091 25.1017L18.918 25.1165L18.9299 25.1343L18.9536 25.167L18.9715 25.1908L18.9774 25.1997L18.9982 25.2354L19.022 25.271L19.0428 25.3037L19.0635 25.3393L19.0695 25.3512L19.0843 25.375L19.1051 25.4106L19.117 25.4314L19.1497 25.4819L19.1705 25.5116L19.1735 25.5176L19.1943 25.5532L19.2151 25.5889L19.218 25.5948L19.2359 25.6245L19.2566 25.6602L19.2656 25.675L19.2774 25.6958L19.2982 25.7315L19.3131 25.7582L19.319 25.7701L19.3398 25.8087L19.3606 25.8444L19.3428 25.8563C19.4171 25.9662 19.4913 26.082 19.5656 26.2009C19.9726 26.8366 20.3885 27.5258 20.8133 28.2626C21.2085 28.9518 21.666 29.7866 22.1859 30.767C22.7206 31.7741 23.2316 32.7723 23.7277 33.7645L24.1733 34.6558L24.1852 34.6498L37.943 61.4791C40.3344 66.1343 42.5239 69.7379 44.5589 72.5215C45.2036 73.4038 45.8304 74.203 46.4454 74.9308L46.4632 74.916C49.7578 78.6146 52.9039 80.6555 55.6578 81.4072C57.5324 81.9181 59.2228 81.829 60.6487 81.2527C62.0688 80.6793 63.2363 79.6247 64.0711 78.1987C65.8209 75.2071 65.4703 72.3462 65.4555 69.0932L65.4792 69.0873Z" fill="#DDEFE8"/>
</svg>
