<svg width="57" height="12" viewBox="0 0 57 12" fill="none" xmlns="http://www.w3.org/2000/svg">
<path d="M8.18768 9.24647C7.39851 9.41255 6.57716 9.47254 5.77243 9.47254H5.06397C3.35675 9.47254 2.72861 9.12615 2.72861 7.33154V6.72825H5.6436C6.52943 6.72825 6.98048 6.45711 6.98048 5.77858V5.03972H2.72832C2.72832 4.39102 2.77644 3.38101 2.88939 2.62724H6.67376C7.68883 2.62724 8.15587 2.26527 8.15587 1.54166V0.848216H2.3905C1.48838 0.848216 0.876273 1.16477 0.699253 2.40117C0.570378 3.23087 0.489685 4.33136 0.489685 5.31154V7.22681C0.489685 9.86535 1.90697 11.2522 4.59704 11.2522H5.77243C7.70445 11.2522 8.15592 10.7998 8.17185 9.97076L8.18768 9.24715V9.24647ZM19.3165 10.649C18.624 10.1514 17.6737 9.32205 16.8038 8.13073L15.3384 6.12598C17.2549 4.09038 18.4629 2.61267 18.4629 1.87415C18.4629 1.27018 18.1725 0.833305 17.4803 0.833305H16.6424C16.4009 1.7379 15.9502 2.47676 14.1148 4.46727L12.7784 2.59741C11.6507 1.02954 11.0386 0.848555 10.5397 0.848555H9.02609C9.21904 1.542 9.81461 2.49201 10.9904 4.02972L12.2955 5.73418L11.2485 6.78926C10.1368 7.90467 9.65388 8.68928 9.41242 9.24681C9.23504 9.63895 9.17061 9.95551 9.17061 10.3778C9.17061 10.7998 9.50835 11.177 10.0731 11.177H11.1517C11.4417 10.1819 11.9573 9.11124 13.5031 7.39221L14.8878 9.29257C15.9828 10.7998 16.7235 11.2977 17.7386 11.2977C18.6247 11.2977 18.9783 11.0258 19.3168 10.649H19.3165ZM28.3832 3.9843C28.3832 1.91889 26.8534 0.772636 24.7114 0.772636H23.4715C22.682 0.772636 21.2166 1.04445 20.6045 1.25527V9.6986C20.6045 10.7991 21.3289 11.1763 21.9411 11.1763H22.8109V7.16513C23.2616 7.39153 23.8897 7.51185 24.6626 7.51185C26.7724 7.51185 28.3829 6.17038 28.3829 3.98396L28.3832 3.9843ZM26.1125 4.16563C26.1125 5.16038 25.5003 5.76333 24.373 5.76333C23.8097 5.76333 23.1976 5.68775 22.8113 5.58268V2.65741C23.0687 2.61233 23.455 2.5215 23.729 2.5215H24.4371C25.5969 2.5215 26.1125 2.98921 26.1125 4.16563ZM37.2886 9.24647C36.4994 9.41255 35.6781 9.47254 34.8733 9.47254H34.1646C32.4577 9.47254 31.8296 9.12615 31.8296 7.33154V6.72825H34.7441C35.6303 6.72825 36.0809 6.45711 36.0809 5.77858V5.03972H31.8292C31.8292 4.39102 31.8773 3.38101 31.9903 2.62724H35.7748C36.7891 2.62724 37.2568 2.26527 37.2568 1.54166V0.848216H31.4911C30.589 0.848216 29.9772 1.16477 29.7999 2.40117C29.6713 3.23087 29.5906 4.33136 29.5906 5.31154V7.22681C29.5906 9.86535 31.0075 11.2522 33.6979 11.2522H34.8733C36.8053 11.2522 37.2567 10.7998 37.2723 9.97076L37.2886 9.24715V9.24647ZM47.0316 10.9198C46.9031 10.7391 46.6291 10.4527 46.3554 9.84976L45.4692 7.91958C45.1952 7.31629 44.696 6.69808 44.1005 6.4727C45.3889 6.29137 46.371 5.12987 46.371 3.72807C46.371 1.99446 44.9378 0.757721 42.7476 0.757721H41.5233C40.7019 0.757721 39.1562 0.969212 38.6892 1.13529V9.78977C38.6892 10.6191 39.204 11.177 40.1869 11.177H40.8956V7.03057C41.1208 7.03057 41.5078 7.0909 41.9907 7.16581C42.5703 7.25664 43.0376 7.33188 43.5368 8.46288L44.3583 10.3321C44.6483 10.9953 45.2604 11.2519 45.9692 11.2519C46.5806 11.2519 46.7735 11.1767 47.0316 10.9201V10.9198ZM42.49 2.53708C43.4566 2.53708 44.133 2.80857 44.133 4.05988C44.133 4.97939 43.3761 5.46236 42.4743 5.46236C41.8784 5.46236 41.3793 5.46236 40.896 5.37153V2.64317C41.1379 2.5825 41.6686 2.53742 41.8786 2.53742H42.49V2.53708ZM56.1796 1.49658V0.848216H48.7711C47.869 0.848216 47.4346 1.48167 47.4346 1.97921V2.65741H50.6071V9.78943C50.6071 10.7093 51.1708 11.1767 51.9437 11.1767H52.8295V2.65741H54.8593C55.5833 2.65741 56.1796 1.99446 56.1796 1.49624V1.49658Z" fill="#688071"/>
</svg>
