<svg width="72" height="73" viewBox="0 0 72 73" fill="none" xmlns="http://www.w3.org/2000/svg">
<path fill-rule="evenodd" clip-rule="evenodd" d="M3.46771 68.4018L7.18078 55.1187C8.1268 51.8157 4.92065 50.1367 3.48386 42.4878C2.55075 37.5284 2.80905 32.1558 4.09409 27.4321C5.96031 20.5678 9.46028 17.8137 9.04377 15.6246C7.49397 14.6366 6.97737 15.1274 6.07977 16.5512C0.949285 24.6909 -1.13649 33.2471 0.778162 43.2304C1.28185 45.8522 2.0406 48.1866 3.05766 50.4628C4.86899 54.5214 4.91096 52.7359 3.59041 57.424C2.89945 59.8843 2.20204 62.364 1.51109 64.8502C0.85888 67.1975 -0.752267 71.2172 0.410084 72.1116C1.39485 72.8704 13.7836 69.0863 16.4796 68.3372C19.718 67.4364 18.6461 67.6656 21.3647 68.7957C43.1265 77.8491 66.4413 64.8502 70.4611 42.6234C75.7595 13.3322 44.5278 -9.85996 17.248 5.90927C15.6563 6.82946 14.0322 7.42678 14.6005 9.58682C16.344 10.2552 17.29 9.12834 18.7462 8.25012C29.1202 1.97988 42.4646 2.19943 52.4673 8.33083C61.2914 13.7422 70.445 25.4109 67.778 41.629C65.6632 54.4794 55.9608 64.5822 44.3986 67.7431C29.753 71.7435 21.0192 64.5951 18.6493 64.8824C16.499 65.144 7.8911 68.2113 3.94557 68.7311C3.11578 68.8829 3.70987 68.8893 3.46448 68.4082L3.46771 68.4018ZM55.2504 57.763C57.6559 57.7114 57.3621 55.5191 56.2578 55.1316C54.7887 54.615 53.3358 56.2358 55.2504 57.763ZM12.5373 11.0688C10.0996 10.3327 9.36987 12.1666 10.642 13.2515C11.8302 14.2653 13.2541 13.0416 12.5373 11.0688ZM44.5052 41.9422C45.929 42.1843 47.072 42.956 48.2957 43.5533C48.8607 43.831 49.429 44.1022 50.0005 44.3637C50.8432 44.7512 51.1564 44.7189 51.3663 45.5745C52.1799 48.8711 49.1869 50.7857 46.5619 51.1958C35.8263 52.8779 17.6807 36.8439 19.9763 26.7961C20.8739 22.8764 22.682 22.1176 25.6783 22.2952C27.58 28.5364 30.0242 28.4492 27.4154 31.1646C24.2544 34.4547 27.0376 36.9537 29.1976 39.4173C31.1058 41.5934 33.5435 43.5339 36.6302 45.1451C41.9028 47.9024 42.2386 44.2313 44.5019 41.9422H44.5052ZM39.8461 43.2789C36.5075 43.027 30.3083 37.4058 28.7133 34.0898C29.6497 32.5981 31.8969 31.4358 31.2996 28.6591C30.9541 27.0447 29.4495 24.1905 28.7521 22.5309C26.4015 16.9451 20.4413 19.4151 18.3523 23.2348C13.8934 31.3906 21.3324 41.0768 27.0731 46.0298C30.0629 48.6095 33.2626 50.747 37.6505 52.5099C41.722 54.1468 47.8631 55.1058 51.2855 52.2386C52.8386 50.9375 54.0364 49.3263 54.185 46.6884C54.3948 42.9592 53.1356 42.8559 50.5236 41.5838C41.27 37.0732 43.9692 39.6659 39.8461 43.2821V43.2789ZM8.17846 64.0914C10.8422 65.1149 17.826 61.2662 20.099 61.9152C22.4786 62.5965 24.2544 64.7565 31.0574 65.7994C37.2792 66.7551 43.9886 65.6541 49.4613 62.7192C50.8916 61.9507 54.0042 60.6786 52.1508 58.9512C50.8852 58.1053 49.0738 59.7616 47.7307 60.4397C46.2584 61.1791 44.7731 61.7893 43.1329 62.2607C39.3714 63.3423 35.1159 63.6555 31.0929 62.9742C27.1926 62.3124 24.5063 61.15 21.4938 59.4258C18.9367 57.9632 15.9178 60.2363 11.3717 60.9498C11.7818 59.0771 13.422 54.4955 13.5091 53.0523C13.5705 52.0126 11.0424 47.8153 10.3772 46.217C4.2297 31.4455 13.2024 12.8608 30.7765 9.61911C48.3054 6.3839 63.3191 20.7292 62.6055 37.4477C62.4764 40.4634 61.8274 43.337 60.8782 45.8909C59.2315 50.3208 57.3621 50.9762 58.2048 53.1879C60.2712 53.7788 60.5811 52.7197 61.4303 51.199C62.1535 49.9107 62.6863 48.8775 63.2674 47.4472C69.1696 32.9759 62.6314 16.5642 49.1546 9.67077C43.8207 6.94247 37.2308 5.6994 30.4859 6.83269C9.80575 10.3004 -0.477824 33.6539 9.541 50.9665C10.6549 52.8909 10.7292 52.7391 10.0285 55.193C9.43122 57.2852 7.60374 62.2607 8.172 64.0946L8.17846 64.0914Z" fill="#D5D5D5"/>
</svg>
