<svg width="14" height="12" viewBox="0 0 14 12" fill="none" xmlns="http://www.w3.org/2000/svg">
<path d="M10.4069 11.1767C9.97217 7.91958 8.31317 3.47184 7.31475 1.79789C7.00922 1.30068 6.41304 0.848213 5.52721 0.848213H4.62544C2.93415 2.61266 0.873169 8.68894 0.873169 10.1816C0.873169 10.8147 1.16312 11.1767 1.88749 11.1767H2.74118C2.90191 10.3022 3.09556 9.41254 3.32109 8.53744H7.71763C7.83021 8.97533 7.92684 9.50304 8.02349 10.1816C8.10386 10.6788 8.5872 11.1767 9.50489 11.1767H10.4069ZM7.21845 6.89432H3.80443C4.1744 5.46236 4.86716 3.8189 5.5108 2.74824C6.09074 3.71316 6.84806 5.44711 7.21803 6.89432H7.21845ZM13.8374 11.1767V1.94938C13.8374 1.28611 13.2252 0.848213 12.6616 0.848213H11.6632V9.80468C11.6632 10.7093 12.3561 11.1767 12.9994 11.1767H13.8374Z" fill="#688071"/>
</svg>
