<svg width="283" height="94" viewBox="0 0 283 94" fill="none" xmlns="http://www.w3.org/2000/svg">
<path fill-rule="evenodd" clip-rule="evenodd" d="M195.288 58.4245L194.394 57.9598L193.487 58.4245H193.483L192.579 58.8864L192.554 60.9251L192.28 61.1952C190.808 62.64 189.737 64.2513 189.017 65.991C188.255 67.8375 187.888 69.8344 187.861 71.9358C187.827 74.6197 188.456 77.1159 189.658 79.3494C190.895 81.6457 192.737 83.6721 195.088 85.3495C197.397 86.9977 200.203 88.3069 203.408 89.1973C206.528 90.0643 210.032 90.5344 213.836 90.5344H217.068C217.954 90.5344 218.817 90.5025 219.658 90.4412C220.52 90.3784 221.356 90.2863 222.165 90.1653L222.535 90.109L224.521 91.14L226.335 90.2113L226.359 88.3462L225.468 87.8836H225.463L224.568 87.4189L223.661 87.8836H223.657L222.755 88.3462L222.741 89.4471L221.853 89.5742C221.066 89.6864 220.279 89.7704 219.494 89.8246C218.694 89.8802 217.888 89.9083 217.076 89.9083H213.844C210.158 89.9083 206.752 89.4572 203.712 88.6231C200.552 87.7585 197.793 86.4774 195.526 84.8607C193.268 83.2505 191.498 81.302 190.308 79.0939C189.14 76.9261 188.529 74.5153 188.561 71.9361C188.587 69.9761 188.928 68.0984 189.638 66.3425C190.315 64.6665 191.326 63.1105 192.714 61.7114L193.286 61.1335L194.344 61.6826L196.16 60.7519L196.183 58.8868L195.293 58.4248H195.288L195.288 58.4245ZM54.4104 28.6752L53.5039 28.1329L52.6242 28.6752H52.6202L51.7449 29.2148L51.8014 31.3917L53.615 32.4759L54.4541 31.9584L55.0236 32.7566C56.5009 34.8281 57.6959 37.1724 58.5299 39.7615C59.3195 42.2143 59.7858 44.8837 59.8589 47.7422C59.9002 49.3501 59.7792 50.8166 59.4893 52.153C59.1939 53.5158 58.7214 54.7403 58.0658 55.8368L57.5511 56.6987L56.5737 56.1147L55.6929 56.658H55.6886L54.8132 57.1972L54.8697 59.3741L56.6834 60.459L58.4413 59.3741L58.3747 56.7763L58.5542 56.4929C58.9329 55.8957 59.258 55.2525 59.5306 54.5631C59.8053 53.8686 60.0236 53.1362 60.1861 52.3621L61.1198 47.9123L59.9143 42.2567C59.5215 40.4156 58.9582 38.6752 58.2465 37.045C57.5087 35.3544 56.6171 33.7889 55.5963 32.357L55.3892 32.0668L55.3161 29.2151L54.4136 28.6755H54.4096L54.4104 28.6752ZM5.37299 52.6942L4.60373 58.1825L4.98207 62.8986C5.13954 64.8607 5.44362 66.736 5.87838 68.5207C6.32655 70.3631 6.91659 72.1174 7.62902 73.7761L8.02362 74.695L7.3192 75.1132L7.23591 77.2874L8.97969 78.3717L10.8071 77.2874L10.8903 75.1105L10.0223 74.5709H10.0186L9.14365 74.0273L8.63578 74.3286L8.19049 73.2718C7.24818 71.0363 6.53289 68.6204 6.08654 66.0384C5.65865 63.5633 5.47837 60.9525 5.58263 58.2245C5.78897 52.8437 6.73238 47.9445 8.29986 43.6093C9.93179 39.0968 12.2381 35.1999 15.0943 32.0096C16.0562 30.9352 17.0803 29.9408 18.1613 29.0307C19.2455 28.117 20.3898 27.2866 21.5858 26.543L22.1201 26.2109L23.4017 27.008H23.406L24.278 27.55L26.1055 26.4661L26.1891 24.2895L25.3199 23.7496H25.3167L24.4442 23.2076L23.5305 23.7496H23.5269L22.6172 24.2892L22.5857 25.1202L22.0401 25.4357C20.6703 26.2305 19.3552 27.1422 18.1041 28.1634C16.8657 29.1772 15.6941 30.298 14.598 31.5218C12.1993 34.2021 10.1805 37.3622 8.61443 40.9515C7.07844 44.4705 5.97507 48.4021 5.37341 52.6949L5.37299 52.6942ZM263.628 53.9232L262.769 53.3165L264.322 17.2547C264.392 15.6282 264.246 14.1095 263.865 12.7629C263.507 11.4957 262.937 10.3695 262.137 9.43605C261.386 8.55857 260.438 7.86038 259.277 7.38554C258.154 6.92664 256.828 6.67753 255.286 6.67753H251.361L250.742 21.0314L249.327 21.9729L249.242 23.958L250.643 24.9474L252.129 23.958L252.215 21.9729L251.292 21.3205L251.894 7.34318H255.259C256.678 7.34318 257.907 7.56517 258.955 7.97358C260.095 8.41791 261.016 9.08153 261.733 9.92037C262.486 10.7992 263.022 11.8817 263.355 13.1124C263.695 14.3691 263.825 15.7689 263.761 17.2551L262.224 52.9386L261.484 53.4307H261.481L260.741 53.9232L260.656 55.9083L262.057 56.8979L263.543 55.9083L263.629 53.9232H263.628ZM65.7708 47.346C65.7875 30.8752 51.6153 20.6603 36.3412 20.6603C15.3398 20.6603 0.324099 35.0884 0.301655 58.0706C0.280297 79.138 18.132 92.6723 36.4064 92.6723C56.5893 92.6723 63.0058 85.9053 63.0145 77.0952L63.0196 71.7324H62.3379C61.0271 72.8729 59.562 73.828 57.9891 74.6245C57.8943 76.2591 57.5757 77.8043 56.9878 79.224C56.2171 81.0841 54.9783 82.7509 53.1676 84.15H53.1629C51.8814 85.1403 50.311 85.9921 48.4122 86.677C46.4806 87.3728 44.2123 87.8978 41.5693 88.2191L40.648 88.331L40.6715 89.2447L38.9125 90.3252L37.1 89.2447L37.046 87.0739L37.9213 86.5367H37.9253L38.8047 85.9958L39.7107 86.5367H39.7147L41.355 87.5135L41.6895 87.4722C44.1641 87.16 46.2935 86.6658 48.1122 86.0154C49.9627 85.3528 51.4944 84.5259 52.7426 83.5609C54.4502 82.2412 55.6231 80.6452 56.3572 78.8478C56.8528 77.6341 57.1438 76.3374 57.2626 74.9786C51.9277 77.4694 45.5024 78.2452 39.8294 78.2452C29.0558 78.2452 20.6066 72.755 19.2509 64.073H19.9582C19.4829 62.9302 19.1304 61.707 18.9157 60.4089L18.8469 59.992H30.4477L30.4267 59.1321L31.3028 58.5946H31.3064L32.1857 58.054L33.0918 58.5946H33.0958L33.9979 59.1321L34.0526 61.3026L32.2944 62.3841L30.4818 61.3026L30.4669 60.7197H19.6114L20.006 62.0984C20.2019 62.782 20.4408 63.4413 20.7188 64.0727H31.2521C55.5271 64.0727 65.7589 59.9873 65.7712 47.3467L65.7708 47.346ZM48.5903 45.3026C48.5882 47.8961 47.4558 49.6134 43.7576 50.6512L43.7587 50.6763L42.0008 51.7608L41.0867 51.2145C37.8884 51.7185 33.4354 51.9422 27.3095 51.9422H19.1274L19.2657 49.6442C19.3342 48.3567 19.5542 47.0996 19.9119 45.8964L19.4359 45.6117L19.3805 43.4351L20.2555 42.8955H20.2587L21.5098 42.1241L21.639 41.9001C22.8231 39.854 24.446 38.1553 26.4103 36.9931C27.7099 36.2234 29.1637 35.6873 30.7464 35.4347L30.7554 35.4331C31.9938 35.1253 33.309 34.9609 34.6912 34.9609C43.1458 34.9609 48.5972 38.4088 48.5903 45.3029V45.3026ZM132.997 60.2418L133.024 34.4505C133.031 26.4064 128.535 22.1929 117.898 22.1929H114.625L114.585 60.8797C114.579 67.7439 112.756 72.2533 109.748 74.8166C110.101 74.7078 110.448 74.5838 110.784 74.4428C112.252 73.8283 113.533 72.9037 114.576 71.6402L114.798 71.3718V71.3569C115.713 70.1693 116.442 68.7051 116.95 66.9407C117.46 65.1623 117.751 63.0837 117.784 60.6814L118.137 34.9403L116.67 34.1817L116.697 32.1641L117.678 31.6642H117.683L118.667 31.1622L119.639 31.6642H119.643L120.61 32.1641L120.583 34.1817L118.897 35.0413L118.544 60.6814C118.51 63.2189 118.192 65.4118 117.63 67.2833C117.086 69.0976 116.315 70.6051 115.355 71.8263L115.183 72.0334C114.06 73.3911 112.708 74.3818 111.177 75.0366C110.277 75.4216 109.309 75.6945 108.283 75.8599C106.408 76.9624 104.194 77.4782 101.749 77.4782C93.4306 77.4782 86.8891 72.3706 86.9025 59.73L86.9279 34.4498C86.9315 31.3276 86.2343 28.7826 84.7678 26.8372C84.5343 26.767 84.2954 26.7013 84.0496 26.6389C82.2968 26.1983 80.2243 25.9753 77.8169 25.9753H74.9462L74.4626 61.1444C74.405 65.3542 75.0968 69.1345 76.4091 72.4547C77.7967 75.9639 79.8774 78.9529 82.5009 81.3864C84.9462 83.6535 87.8691 85.4447 91.1453 86.7323C94.4435 88.028 98.095 88.8119 101.976 89.0566L103.196 89.1336L103.21 88.1178L104.19 87.6182H104.195L105.18 87.1149L106.151 87.6182H106.156L107.122 88.1178L107.095 90.1354L105.124 91.1397L102.472 89.7674L102.207 89.7528C98.1505 89.5254 94.3363 88.7258 90.8991 87.3837C87.5129 86.0602 84.4865 84.209 81.9517 81.8568C79.2729 79.3735 77.1454 76.3333 75.7216 72.7733C74.3605 69.3681 73.6423 65.4819 73.7024 61.1444L73.9496 43.1436L74.1947 25.2992H77.8256C80.1707 25.2992 82.2149 25.5069 83.9728 25.9177C81.5405 23.4557 77.5512 22.1929 71.8026 22.1929H68.3928L68.3537 61.3904C68.3331 81.4362 82.6417 92.6723 100.78 92.6723C122.19 92.6723 132.975 81.6914 132.997 60.2418H132.997ZM181.71 38.9193L181.716 32.7904C181.721 27.5557 177.772 21.5544 166.453 21.5544C147.088 21.5544 139.301 34.7057 139.288 48.4953L139.255 80.1602C139.25 85.4616 142.097 88.937 146.904 90.3808L146.884 89.1312L147.781 88.6052H147.785L148.688 88.0761L149.606 88.6052H149.61L150.525 89.1319L150.548 90.5543L151.402 90.7319C151.96 90.8482 152.54 90.9346 153.14 90.9916C153.769 91.0526 154.389 91.0814 154.999 91.0814H157.656L157.695 51.5602C157.705 41.0904 162.211 36.8765 170.393 36.8765C174.344 36.8765 177.172 37.5764 179.576 38.3966L179.534 35.7635C179.511 34.3593 179.197 32.8881 178.516 31.5056C177.909 30.2695 177.015 29.1148 175.789 28.157C174.67 27.2822 173.27 26.562 171.552 26.0773C170.018 25.6452 168.232 25.3995 166.169 25.3995C160.593 25.3995 156.124 26.767 152.644 29.0714C148.724 31.6666 146.084 35.4351 144.54 39.7673L144.24 40.6105L145.138 41.127L145.172 43.2518L143.368 44.3102L141.53 43.2518L141.496 41.127L142.394 40.6003H142.398L143.712 39.8286L143.839 39.4659C145.4 35.004 148.085 31.1263 152.079 28.4729C155.653 26.098 160.299 24.686 166.157 24.686C168.363 24.686 170.261 24.9562 171.883 25.431C173.624 25.9407 175.057 26.6904 176.216 27.5961C177.545 28.6339 178.506 29.8665 179.152 31.1758C179.879 32.6498 180.217 34.2363 180.242 35.7635L180.289 38.6468C180.539 38.7373 180.784 38.8284 181.027 38.9203H181.71L181.71 38.9193ZM243.6 68.9234L243.615 53.0911C243.639 29.3425 228.918 22.1922 212.553 22.1922C193.188 22.1922 185.814 31.3849 185.807 39.0457L185.801 44.5359H186.483C187.368 43.5022 188.739 42.3078 190.639 41.1653C190.832 39.5239 191.349 37.8506 192.232 36.2519C193.27 34.3749 194.811 32.6003 196.926 31.0978L197.192 30.9158C199.145 29.5761 201.58 28.4603 204.546 27.6967C207.274 26.9945 210.448 26.5939 214.108 26.5939C216.978 26.5939 219.791 26.8548 222.456 27.4425C224.912 27.9835 227.242 28.7999 229.378 29.9418L229.893 30.2177L230.992 29.5727L231.903 30.098H231.907L232.813 30.6186L232.846 32.7213L231.061 33.7686L229.243 32.7213L229.212 30.7735L228.644 30.4756C226.558 29.3805 224.31 28.602 221.959 28.0912C219.438 27.5432 216.8 27.2988 214.119 27.2988C210.577 27.2988 207.501 27.6791 204.857 28.3448C201.923 29.0836 199.519 30.177 197.592 31.4968L196.732 32.0862L196.751 32.115C195.053 33.4358 193.783 34.9447 192.893 36.5268C192.125 37.894 191.641 39.3158 191.41 40.72C195.399 38.5176 201.427 36.62 209.81 36.62C220.721 36.62 225.627 39.5564 225.617 49.2599L225.616 50.1536H219.207C192.204 50.1536 182.649 59.4748 182.636 71.7317C182.624 84.3727 194.616 93.5654 212.072 93.5654H215.754C232.119 93.5654 243.584 83.4786 243.599 68.923L243.6 68.9234ZM225.735 69.0508C225.728 76.0734 221.905 79.6487 213.996 79.6487C205.949 79.6487 201.316 76.4564 201.321 71.0939C201.327 65.4758 205.285 62.4113 219.195 62.4113H225.741L225.736 67.4762H227.947L228.055 74.2544C228.112 77.8165 227.212 80.456 225.464 82.19C223.664 83.9737 220.911 84.8583 217.325 84.8583C216.168 84.8583 215.086 84.7801 214.083 84.6275C213.078 84.474 212.153 84.2476 211.315 83.9514L210.846 83.7863L209.51 84.5706L207.648 83.4986L207.613 81.3461L208.523 80.8122H208.527L209.441 80.2761L210.372 80.8122H210.375L211.302 81.3461L211.332 83.2288L212.105 83.4599C212.844 83.6816 213.663 83.8504 214.557 83.9656C215.436 84.0778 216.355 84.1361 217.312 84.1361C218.998 84.1361 220.469 83.9375 221.726 83.543C223.04 83.1295 224.118 82.5018 224.96 81.6633C225.802 80.8258 226.418 79.7684 226.812 78.494C227.189 77.2756 227.363 75.8615 227.338 74.2547L227.241 68.1984H225.734L225.734 69.0512L225.735 69.0508ZM265.618 11.9777C265.625 5.4662 261.675 0.486694 252.538 0.486694H247.355L247.285 71.6046C247.274 82.0365 251.864 88.8821 260.54 91.6562C257.343 89.8826 254.875 87.301 253.216 83.9527L252.67 82.8499L251.899 83.3023L249.934 82.17L249.898 79.9009L250.857 79.3386H250.861L251.824 78.7733L252.806 79.3386H252.81L253.787 79.9009L253.823 82.173L253.336 82.4584L253.789 83.4034C255.457 86.8736 257.991 89.4827 261.337 91.2268C262.418 91.7911 263.582 92.2622 264.826 92.6428C266.616 92.916 268.535 93.0546 270.583 93.0546C277.061 93.0546 281.065 91.1505 282.384 86.5442C270.832 85.1993 265.212 78.134 265.223 66.9176C265.241 48.5986 265.599 30.2675 265.618 11.9773L265.618 11.9777Z" fill="url(#paint0_radial_2_178)"/>
<defs>
<radialGradient id="paint0_radial_2_178" cx="0" cy="0" r="1" gradientUnits="userSpaceOnUse" gradientTransform="translate(121.599 34.001) rotate(22.7857) scale(227.134 203.128)">
<stop stop-color="#81ABDB"/>
<stop offset="0.301961" stop-color="#345FA3"/>
<stop offset="0.705882" stop-color="#2C4F80"/>
<stop offset="1" stop-color="#243F5E"/>
</radialGradient>
</defs>
</svg>
