<svg width="130" height="61" viewBox="0 0 130 61" fill="none" xmlns="http://www.w3.org/2000/svg">
<path d="M0.426406 12.7932L0.397841 42.1228C0.386981 53.2718 6.61819 59.8209 19.4723 59.8209C26.8442 59.8209 30.6278 56.7235 30.6325 51.8568L30.6369 47.6091H30.1641C28.1781 48.7597 25.0588 49.2905 20.9946 49.2905C15.891 49.2905 12.9634 46.9014 12.9699 40.7075L12.988 22.036H23.1017C28.2997 22.036 30.6659 18.8505 30.668 16.3726L30.6731 11.5056H12.9989L13.0098 0.0508957H10.0801C8.09521 0.0508957 5.82499 1.46591 4.12212 3.32458C1.37848 6.33357 0.431112 8.10413 0.426406 12.7935V12.7932ZM76.2033 43.0078L76.2145 32.035C76.2308 15.5761 66.0281 10.6207 54.6864 10.6207C41.2658 10.6207 36.1554 16.9918 36.1503 22.3014L36.1459 26.1065H36.6187C38.5112 23.8944 43.6181 20.62 52.7859 20.62C60.3471 20.62 63.7473 22.6549 63.7408 29.3799L63.7405 29.9998H59.298C40.5841 29.9998 33.9616 36.4601 33.9532 44.9542C33.9446 53.7145 42.2555 60.0856 54.353 60.0856H56.9044C68.2468 60.0856 76.1928 53.0949 76.2026 43.0074L76.2033 43.0078ZM63.822 43.0962C63.8173 47.9636 61.1685 50.4411 55.6866 50.4411C50.1103 50.4411 46.8993 48.2289 46.9026 44.5123C46.9069 40.619 49.6498 38.495 59.29 38.495H63.8266L63.822 43.0966V43.0962ZM129.316 54.0693C124.874 53.1844 122.608 51.2373 117.133 43.7158L111.565 36.1055C114.593 32.9203 117.242 29.9998 119.324 27.4338C123.393 22.4783 125.287 18.762 125.289 16.6383C125.292 13.9831 123.782 11.594 120.096 11.594H115.275C114.419 16.3726 113.094 18.8501 104.957 27.4338L99.7659 20.5319C94.1023 13.0104 90.9851 11.5056 88.5275 11.5056H80.9666C81.1524 15.1338 84.3615 19.3816 90.0247 27.0799L95.4049 34.336L91.2421 38.4946C84.903 44.8658 81.401 49.5562 81.3955 55.2193C81.393 57.6081 83.6598 59.4664 86.5892 59.4664H92.3546C92.8306 56.5465 93.4941 54.1574 95.1984 51.4142C96.6182 49.1135 98.7006 46.4584 101.918 43.0078L107.486 50.8834C111.922 57.1661 115.605 59.9978 120.992 59.9978C126.568 59.9978 129.312 57.4315 129.316 54.0693H129.316Z" fill="#688071"/>
</svg>
