<svg width="69" height="86" viewBox="0 0 69 86" fill="none" xmlns="http://www.w3.org/2000/svg">
<path fill-rule="evenodd" clip-rule="evenodd" d="M68.9729 61.9662L68.9581 10.512C68.9551 5.07544 63.9642 0.75293 59.6417 0.75293H52.1077L52.2206 46.6339C52.0454 48.1341 51.5017 49.0937 50.9075 49.4383L52.28 52.7715C52.7435 53.8202 54.1546 57.1921 54.4844 57.9496L56.6857 63.0208L56.7808 35.5796L55.1469 34.6556L55.1558 32.4068L56.145 31.8482H56.148L57.1403 31.2868L58.1295 31.8482H58.1355L59.1218 32.4068L59.1129 34.6586L57.5502 35.538L57.4433 66.7967L56.7095 65.136C56.561 64.8033 56.3292 64.2566 56.044 63.5912C55.6549 62.6732 55.4915 62.2929 55.334 61.9127C54.3596 59.6014 53.3852 57.2782 52.3187 55.0056L50.0282 49.6344C48.9052 49.5393 47.4525 48.2738 45.8423 45.4099L46.9772 47.6885C48.4269 50.6029 50.9521 56.5623 52.4583 59.7321L52.5118 59.842L52.5652 59.952L52.6187 60.0619L52.6752 60.1718L52.7316 60.2817L52.7851 60.3916L52.8415 60.5016L52.895 60.6115L52.9514 60.7214L53.0079 60.8313L53.0614 60.9383L53.1178 61.0482L53.1743 61.1551L53.2307 61.2621L53.2871 61.369L53.3436 61.476L53.4 61.5829L53.4565 61.6899L53.5129 61.7968L53.5694 61.9038L53.6258 62.0107L53.6823 62.1177L53.7387 62.2246L53.7951 62.3316L53.8516 62.4385L53.908 62.5455L53.9645 62.6524L54.0209 62.7594L54.0239 62.7683L54.0774 62.8663L54.1338 62.9733L54.1903 63.0802L54.2467 63.1872L54.3032 63.2941L54.3596 63.4011L54.416 63.508L54.4725 63.6149L54.5289 63.7219L54.5854 63.8288L54.6418 63.9358L54.7547 64.1467L54.8112 64.2537L54.8676 64.3606L54.924 64.4676L54.9805 64.5745L55.0369 64.6815L55.0934 64.7884L55.1498 64.8924L55.2063 64.9993L55.2627 65.1033L55.3192 65.2103L55.3756 65.3142L55.4321 65.4182L55.4885 65.5222L55.5449 65.6262L55.6014 65.7302L55.6578 65.8341L55.7143 65.9381L55.7707 66.0421C59.5941 71.9302 62.7729 72.4531 65.4763 69.0812L65.3307 12.8857C65.3278 11.7716 65.0901 10.711 64.6801 9.73067C64.2434 8.68792 63.6136 7.74618 62.859 6.94704C62.4907 6.55786 62.0896 6.1984 61.6648 5.87458C61.231 5.54482 60.7825 5.2626 60.3368 5.03385L59.8615 4.79024L58.6494 5.49729H58.6465L57.7998 5.99341L56.1005 5.00414L56.0916 3.01668L56.9323 2.52352H56.9353L57.782 2.0274L58.6316 2.52352H58.6346L59.4812 3.01668L59.4842 3.93168L60.0873 4.19311C60.6755 4.4486 61.2518 4.77242 61.7985 5.16159C62.3451 5.54779 62.862 5.99638 63.3284 6.49251C64.1454 7.35998 64.8287 8.3849 65.2981 9.51975C65.7288 10.5595 65.9784 11.6944 65.9813 12.8886C66.0586 31.2481 66.1537 49.676 66.2398 67.9969L66.2844 67.9256L66.3289 67.8543V67.8513L66.3735 67.78L66.3765 67.777L66.421 67.7057L66.424 67.7028L66.4656 67.6315L66.4686 67.6255L66.5131 67.5483L66.5577 67.471L66.6022 67.3938L66.6468 67.3166L66.6884 67.2453L66.6943 67.2364L66.733 67.165L66.7389 67.1561L66.7775 67.0878L66.7835 67.0759L66.8221 67.0076L66.828 66.9957L66.8666 66.9274L66.8726 66.9125L66.9172 66.8294L66.9617 66.7462L67.0063 66.66L67.0508 66.5739L67.0954 66.4877L67.1281 66.4194L67.137 66.3986L67.1578 66.357L67.1697 66.3303L67.1815 66.3095L67.2142 66.2441L67.2261 66.2233L67.2588 66.158L67.2707 66.1342L67.3034 66.0688L67.3152 66.0451L67.3598 65.9559L67.3895 65.8906L67.4014 65.8638L67.4311 65.8015L67.446 65.7718L67.4757 65.7094L67.4905 65.6796L67.4965 65.6648L67.5321 65.5846L67.5618 65.5222L67.5767 65.4895L67.6034 65.4271L67.6183 65.3945L67.645 65.335L67.6599 65.2994L67.7014 65.2043L67.7282 65.1449L67.743 65.1093L67.7698 65.0498L68.9581 61.9602L68.9729 61.9662ZM67.8856 64.8181L67.9094 64.7617L67.9272 64.7171L67.951 64.6607L67.9688 64.6161L67.9926 64.5626L68.0134 64.5151L68.0342 64.4616L68.055 64.4141L68.0965 64.3161L68.0995 64.3131L68.1411 64.2091L68.1619 64.1556L68.1827 64.1022L68.2035 64.0517L68.2243 63.9982L68.2451 63.9477L68.2659 63.8912L68.2867 63.8437L68.3075 63.7873L68.3491 63.6803L68.3907 63.5734L68.4323 63.4664L68.4501 63.4218L68.4738 63.3595L68.4917 63.3149L68.5154 63.2495L68.557 63.1396L68.5719 63.098L68.5986 63.0297L68.6402 62.9198L68.6551 62.8782L68.6818 62.8069L68.6967 62.7683L68.7234 62.694L68.7382 62.6554L68.765 62.5811L68.8066 62.4682L68.8482 62.3524L68.86 62.3167L68.8898 62.2365L68.9016 62.2038L68.9314 62.1206L68.9432 62.088L68.9729 62.0048L68.9848 61.9721L67.8975 64.8241L67.8856 64.8181ZM0.0118832 21.6822L0.0950654 74.2534C0.106949 81.6655 5.42467 85.3701 10.3651 85.3701H17.0345L17.0286 82.3191H12.406C9.88681 82.3191 7.26062 81.2882 5.37417 79.2235C4.58988 78.3679 3.99869 77.4202 3.5709 76.4072C3.11339 75.3199 2.84602 74.1434 2.73313 72.9135L2.6856 72.3996L2.11521 72.0669V72.0639L1.26556 71.5678L1.25665 69.5803L2.09738 69.0872H2.10035L2.94703 68.591L3.79668 69.0872H3.79965L4.64632 69.5803L4.65524 71.5707L3.33323 72.3431L3.39562 72.9789C3.51148 74.1553 3.78479 75.21 4.17991 76.1458C4.61067 77.1647 5.18107 78.0411 5.84652 78.769C6.70211 79.7018 7.7211 80.4089 8.81138 80.8872C9.96405 81.3922 11.194 81.6447 12.3942 81.6447H17.0167L16.9335 42.5075C17.1653 39.2039 17.195 30.7728 22.2275 32.5137C21.9126 31.8928 21.6066 31.2986 21.3095 30.7312C20.2163 28.6962 19.0784 26.7088 17.902 24.757C17.902 24.7778 17.6079 24.347 17.1445 23.9073L17.1147 23.8776L17.1058 23.8687L17.0821 23.8479L17.0553 23.8241L17.0524 23.8212L17.0227 23.7944L17.0048 23.7796L16.99 23.7677L16.9603 23.7409L16.9543 23.735L16.9276 23.7142L16.9038 23.6934L16.8979 23.6875L16.8652 23.6607L16.8533 23.6488L16.8355 23.634L16.8058 23.6073L16.8028 23.6043L16.7731 23.5805L16.7523 23.5627L16.7434 23.5568L16.7137 23.533L16.7048 23.5241L16.684 23.5092L16.6543 23.4855L16.6246 23.4617L16.6067 23.4468L16.5949 23.4379L16.5652 23.4142L16.5592 23.4082L16.5354 23.3904L16.5087 23.3726L16.5057 23.3696L16.4731 23.3488L16.4582 23.3369L16.4433 23.325L16.4107 23.3042L16.4077 23.3013L16.381 23.2834L16.3572 23.2686L16.3513 23.2626L16.3186 23.2418L16.3067 23.2329L16.2889 23.2211L16.2562 23.2003L16.2265 23.1824L16.2057 23.1705L16.1938 23.1646L16.1611 23.1468L16.1522 23.1408H16.1492L16.1017 23.1141H16.0987L16.0661 23.0963L16.0482 23.0874L16.0334 23.0814L16.0007 23.0636L15.9948 23.0606L15.971 23.0487L15.9443 23.0339L15.9383 23.0309L15.8908 23.0072L15.873 22.9982L15.8403 22.9834L15.8373 22.9804L15.8284 22.9774L15.7868 22.9567L15.7779 22.9537L15.7452 22.9388L15.7333 22.9329L15.6828 22.9121C14.8302 22.5526 13.9687 22.5497 13.1547 22.8675C12.3229 23.1943 11.5297 23.8568 10.8375 24.8164C9.40851 26.8009 8.40438 30.0271 8.28852 34.1952L8.15483 49.7354L8.88862 49.7265L9.49169 50.7455L10.0948 51.7645L9.51248 52.7953L8.93021 53.8262L7.74783 53.8381L6.56546 53.8499L5.96239 52.831L5.35931 51.812L5.93862 50.7811L6.52089 49.7503L7.54879 49.7384L7.68545 34.1744C7.80428 29.8786 8.85 26.5305 10.3473 24.4569C11.1108 23.3993 11.9931 22.6655 12.9348 22.2971C13.8944 21.9198 14.9104 21.9228 15.9175 22.3476L15.9264 22.3506L15.9353 22.3536L15.9532 22.3625L15.9621 22.3655L15.971 22.3684H15.974L15.9799 22.3714L15.9888 22.3744L15.9977 22.3773L16.0066 22.3803L16.0156 22.3833L16.0245 22.3863H16.0274L16.0334 22.3892L16.0423 22.3922L16.0512 22.3952L16.0601 22.3981L16.069 22.4011L16.0779 22.4041L16.0839 22.4071L16.0869 22.41L16.0958 22.416L16.1047 22.4189L16.1136 22.4249L16.1225 22.4308L16.1314 22.4338L16.1374 22.4368H16.1403L16.1492 22.4427L16.1582 22.4486L16.1849 22.4635L16.1938 22.4694L16.2116 22.4784L16.2205 22.4843L16.2295 22.4902L16.2384 22.4962L16.2473 22.5021L16.2562 22.5051L16.274 22.514L16.2829 22.5199L16.2918 22.5259L16.3008 22.5318L16.3037 22.5348L16.3097 22.5378L16.3186 22.5437L16.3275 22.5497L16.3364 22.5556L16.3453 22.5615L16.3542 22.5675L16.3602 22.5704L16.3631 22.5734L16.372 22.5794L16.381 22.5853L16.3899 22.5912L16.3988 22.5972L16.4077 22.6031L16.4136 22.6061H16.4166L16.4255 22.612L16.4433 22.6239L16.4523 22.6299L16.4612 22.6358L16.4701 22.6417L16.479 22.6477L16.4879 22.6536C15.4808 20.9009 14.4054 19.1689 13.2646 17.4518C12.819 16.7893 12.4625 16.2605 12.2278 15.9218C12.1713 15.8416 12.1179 15.7644 12.0614 15.6871C12.005 15.6099 11.9485 15.5356 11.8921 15.4643C11.8356 15.39 11.7792 15.3187 11.7228 15.2504C11.6663 15.1821 11.6099 15.1138 11.5534 15.0484C11.497 14.983 11.4376 14.9177 11.3811 14.8553C11.3247 14.7929 11.2653 14.7335 11.2088 14.6741C11.1494 14.6147 11.0929 14.5582 11.0335 14.5047C10.9741 14.4483 10.9147 14.3978 10.8583 14.3443C10.7988 14.2938 10.7394 14.2433 10.68 14.1958C10.6206 14.1482 10.5612 14.1007 10.5018 14.0562C10.4423 14.0116 10.3829 13.97 10.3235 13.9284C10.2641 13.8868 10.2047 13.8482 10.1423 13.8125C10.0829 13.7739 10.0205 13.7383 9.96108 13.7056C9.90166 13.6729 9.83927 13.6402 9.77986 13.6105C9.72044 13.5808 9.65805 13.5511 9.59567 13.5244C9.53328 13.4976 9.47386 13.4709 9.41148 13.4501C9.34909 13.4263 9.28671 13.4055 9.22729 13.3848C9.1649 13.364 9.10252 13.3461 9.04013 13.3313C8.97774 13.3164 8.91536 13.3016 8.85297 13.2867C8.79058 13.2748 8.7282 13.2629 8.66581 13.254C8.60342 13.2451 8.54103 13.2362 8.47568 13.2303C8.41329 13.2243 8.34793 13.2184 8.28555 13.2184C8.22316 13.2154 8.1578 13.2154 8.09542 13.2154C8.03303 13.2154 7.96767 13.2184 7.90528 13.2243C7.8429 13.2273 7.77754 13.2362 7.71218 13.2422C7.6498 13.2511 7.58444 13.26 7.51908 13.2689C7.45372 13.2808 7.39134 13.2927 7.32598 13.3075C7.26062 13.3224 7.19824 13.3372 7.13288 13.355C7.06752 13.3729 7.00216 13.3907 6.93681 13.4145C6.87145 13.4353 6.80609 13.459 6.74073 13.4828C6.67538 13.5066 6.61002 13.5333 6.54466 13.56C6.4793 13.5868 6.41395 13.6165 6.34859 13.6492C6.28323 13.6789 6.21787 13.7145 6.15252 13.7472C6.08716 13.7828 6.0218 13.8185 5.95644 13.8571C5.89109 13.8957 5.82573 13.9343 5.76037 13.9759C5.69501 14.0175 5.62966 14.0591 5.56133 14.1037C5.49597 14.1482 5.43061 14.1958 5.36228 14.2433C5.29693 14.2908 5.2286 14.3413 5.16324 14.3918C5.09788 14.4424 5.02956 14.4958 4.9642 14.5493C4.89884 14.6028 4.83051 14.6592 4.76515 14.7186C4.6998 14.7781 4.63147 14.8375 4.56611 14.8969C4.50075 14.9593 4.43243 15.0217 4.36707 15.084C4.30171 15.1494 4.23338 15.2148 4.16803 15.2831C4.10267 15.3514 4.03434 15.4197 3.96898 15.491C3.90362 15.5623 3.8353 15.6336 3.76994 15.7079C3.70458 15.7822 3.63625 15.8594 3.5709 15.9367C3.50554 16.0139 3.43721 16.0941 3.37185 16.1743C3.30352 16.2545 3.23817 16.3377 3.17281 16.4209C3.10448 16.5041 3.03912 16.5902 2.97377 16.6764C2.90841 16.7625 2.84008 16.8517 2.77472 16.9438C2.70936 17.0329 2.64104 17.125 2.57568 17.22C2.51032 17.3151 2.44199 17.4102 2.37664 17.5052C2.31128 17.6033 2.24295 17.7013 2.17759 17.7994C2.11224 17.9004 2.04391 18.0014 1.97855 18.1024C1.91319 18.2064 1.84486 18.3103 1.77951 18.4173C1.71415 18.5242 1.64582 18.6312 1.58046 18.7411C1.51511 18.851 1.44678 18.9609 1.38142 19.0738C1.31606 19.1867 1.24773 19.2996 1.18238 19.4155C1.11702 19.5313 1.04869 19.6472 0.983333 19.766C0.917976 19.8848 0.852618 20.0067 0.78429 20.1285C0.718932 20.2503 0.653575 20.375 0.588217 20.4998C0.52286 20.6246 0.457502 20.7523 0.392145 20.8801C0.326787 21.0078 0.26143 21.1385 0.196072 21.2692C0.130715 21.4 0.0653575 21.5336 0 21.6673L0.0118832 21.6822Z" fill="#1C2C3C"/>
</svg>
