<svg width="37" height="37" viewBox="0 0 37 37" fill="none" xmlns="http://www.w3.org/2000/svg">
<path fill-rule="evenodd" clip-rule="evenodd" d="M2.22916 34.7632L4.1319 27.9564C4.61669 26.2638 2.97371 25.4034 2.23743 21.4837C1.75927 18.9423 1.89163 16.1892 2.55014 13.7685C3.50648 10.2509 5.30002 8.83961 5.08658 7.71782C4.29239 7.21152 4.02767 7.46302 3.5677 8.19268C0.938605 12.3638 -0.13024 16.7484 0.850913 21.8643C1.10902 23.2078 1.49785 24.404 2.01903 25.5705C2.94724 27.6503 2.96875 26.7353 2.29203 29.1377C1.93796 30.3985 1.58057 31.6692 1.2265 32.9432C0.892277 34.1461 0.0666528 36.206 0.662294 36.6643C1.16693 37.0531 7.51547 35.114 8.89703 34.7301C10.5566 34.2685 10.0072 34.386 11.4004 34.9651C22.5521 39.6045 34.4997 32.9432 36.5596 21.5532C39.2747 6.54308 23.2702 -5.34161 9.29082 2.73925C8.47512 3.2108 7.64288 3.5169 7.93408 4.6238C8.82754 4.96629 9.31232 4.38885 10.0585 3.93881C15.3746 0.725657 22.2129 0.838167 27.3387 3.98017C31.8606 6.75321 36.5513 12.7328 35.1847 21.0436C34.1009 27.6288 29.129 32.8059 23.204 34.4257C15.6989 36.4757 11.2233 32.8125 10.0089 32.9598C8.90696 33.0938 4.49591 34.6656 2.47404 34.932C2.04881 35.0098 2.35325 35.0131 2.22751 34.7665L2.22916 34.7632ZM28.765 29.3115C29.9976 29.285 29.847 28.1615 29.2812 27.963C28.5284 27.6983 27.7838 28.5289 28.765 29.3115ZM6.87682 5.38324C5.62762 5.006 5.25369 5.94579 5.90559 6.50172C6.51447 7.02125 7.24413 6.39417 6.87682 5.38324ZM23.2586 21.2041C23.9883 21.3282 24.574 21.7237 25.201 22.0297C25.4906 22.172 25.7818 22.311 26.0747 22.445C26.5065 22.6436 26.667 22.627 26.7745 23.0655C27.1915 24.7548 25.6577 25.736 24.3126 25.9461C18.8111 26.8081 9.51253 18.5916 10.6889 13.4426C11.1489 11.434 12.0754 11.0451 13.6109 11.1361C14.5854 14.3344 15.8379 14.2897 14.501 15.6812C12.8812 17.3672 14.3074 18.6478 15.4143 19.9103C16.3922 21.0254 17.6414 22.0198 19.2231 22.8454C21.925 24.2584 22.0971 22.3772 23.2569 21.2041H23.2586ZM20.8711 21.8891C19.1603 21.7601 15.9835 18.8795 15.1662 17.1802C15.646 16.4158 16.7975 15.8202 16.4915 14.3973C16.3144 13.57 15.5434 12.1074 15.186 11.2569C13.9815 8.39453 10.9272 9.66027 9.85667 11.6176C7.57173 15.797 11.3838 20.7607 14.3256 23.2988C15.8578 24.6208 17.4974 25.7161 19.746 26.6195C21.8324 27.4584 24.9793 27.9498 26.7332 26.4805C27.529 25.8137 28.1429 24.9881 28.219 23.6363C28.3265 21.7253 27.6812 21.6724 26.3427 21.0205C21.6007 18.709 22.9839 20.0377 20.8711 21.8908V21.8891ZM4.64316 32.5544C6.00817 33.0789 9.58698 31.1067 10.7518 31.4392C11.9712 31.7883 12.8812 32.8952 16.3674 33.4297C19.5557 33.9194 22.9939 33.3552 25.7983 31.8512C26.5313 31.4574 28.1263 30.8055 27.1766 29.9203C26.528 29.4868 25.5998 30.3356 24.9115 30.6831C24.157 31.062 23.3959 31.3747 22.5554 31.6163C20.6278 32.1705 18.4471 32.331 16.3856 31.9819C14.3869 31.6427 13.0103 31.0471 11.4666 30.1636C10.1561 29.414 8.60914 30.5789 6.27952 30.9445C6.48965 29.9849 7.33016 27.637 7.37484 26.8975C7.40627 26.3647 6.11075 24.2138 5.76992 23.3948C2.61964 15.8252 7.21765 6.30152 16.2234 4.64034C25.206 2.98247 32.8997 10.3337 32.534 18.901C32.4679 20.4463 32.1353 21.9189 31.6489 23.2276C30.805 25.4977 29.847 25.8336 30.2789 26.9669C31.3378 27.2697 31.4966 26.727 31.9318 25.9477C32.3024 25.2876 32.5754 24.7581 32.8732 24.0251C35.8978 16.6094 32.5473 8.1993 25.6412 4.66681C22.9078 3.26871 19.5309 2.63171 16.0745 3.21246C5.47706 4.98945 0.20729 16.9569 5.34138 25.8286C5.91221 26.8147 5.95026 26.737 5.59122 27.9944C5.28513 29.0666 4.34865 31.6163 4.63985 32.556L4.64316 32.5544Z" fill="#1C2C3C"/>
</svg>
