<svg width="57" height="56" viewBox="0 0 57 56" fill="none" xmlns="http://www.w3.org/2000/svg">
<path fill-rule="evenodd" clip-rule="evenodd" d="M3.26648 52.9089L6.16675 42.5843C6.90568 40.017 4.40137 38.712 3.27909 32.7667C2.55024 28.912 2.752 24.736 3.75574 21.0644C5.21344 15.729 7.94726 13.5883 7.62192 11.8868C6.41138 11.1188 6.00786 11.5003 5.30675 12.607C1.29935 18.9338 -0.329847 25.5842 1.16568 33.3439C1.55911 35.3817 2.15177 37.1962 2.94619 38.9655C4.36102 42.12 4.3938 40.7322 3.36232 44.3762C2.82261 46.2885 2.27787 48.2159 1.73817 50.1483C1.22873 51.9728 -0.0297323 55.0972 0.878177 55.7924C1.64738 56.3821 11.3242 53.4409 13.43 52.8587C15.9596 52.1585 15.1223 52.3367 17.2458 53.215C34.2438 60.252 52.455 50.1483 55.5948 32.8721C59.7334 10.105 35.3384 -7.92155 14.0302 4.33538C12.7869 5.05062 11.5184 5.51489 11.9622 7.19382C13.3241 7.71331 14.063 6.83746 15.2004 6.15484C23.3035 1.28118 33.7268 1.45184 41.5399 6.21758C48.4324 10.4237 55.5822 19.4934 53.4991 32.0992C51.8472 42.0874 44.2687 49.94 35.2375 52.3969C23.7978 55.5063 16.9759 49.95 15.1248 50.1734C13.4451 50.3767 6.72158 52.7608 3.63973 53.1648C2.99159 53.2828 3.45563 53.2878 3.26396 52.9139L3.26648 52.9089ZM43.7138 44.6397C45.5927 44.5995 45.3632 42.8955 44.5007 42.5944C43.3532 42.1928 42.2183 43.4526 43.7138 44.6397ZM10.3507 8.34573C8.44661 7.77354 7.87664 9.199 8.8703 10.0422C9.79838 10.8302 10.9106 9.8791 10.3507 8.34573ZM35.3207 32.3426C36.4329 32.5308 37.3257 33.1306 38.2815 33.5949C38.7228 33.8107 39.1667 34.0215 39.6131 34.2248C40.2713 34.526 40.516 34.5009 40.6799 35.1659C41.3154 37.7282 38.9776 39.2164 36.9272 39.5351C28.5417 40.8427 14.3682 28.3799 16.1613 20.57C16.8624 17.5234 18.2747 16.9336 20.6151 17.0716C22.1005 21.9227 24.0097 21.855 21.9719 23.9655C19.5029 26.5228 21.6769 28.4653 23.3641 30.3801C24.8545 32.0716 26.7586 33.5798 29.1696 34.8321C33.288 36.9753 33.5503 34.1219 35.3182 32.3426H35.3207ZM31.6815 33.3816C29.0738 33.1858 24.2316 28.8166 22.9858 26.2392C23.7171 25.0798 25.4724 24.1763 25.0059 22.0181C24.736 20.7633 23.5608 18.5448 23.016 17.2548C21.18 12.9132 16.5245 14.8331 14.8928 17.8019C11.4099 24.1412 17.2205 31.67 21.7046 35.5198C24.0399 37.525 26.5392 39.1863 29.9666 40.5566C33.1468 41.8289 37.9436 42.5743 40.6168 40.3458C41.8299 39.3344 42.7656 38.0821 42.8816 36.0317C43.0455 33.1331 42.0619 33.0528 40.0217 32.064C32.7937 28.5581 34.9021 30.5733 31.6815 33.3841V33.3816ZM6.94603 49.5585C9.02666 50.3541 14.4817 47.3626 16.2571 47.867C18.1158 48.3966 19.5029 50.0755 24.8167 50.8861C29.6765 51.629 34.9172 50.7732 39.1919 48.4919C40.3092 47.8947 42.7403 46.9059 41.2927 45.5632C40.3041 44.9057 38.8893 46.1931 37.8402 46.7202C36.6901 47.2949 35.53 47.7692 34.2489 48.1356C31.3108 48.9763 27.9868 49.2197 24.8444 48.6902C21.7979 48.1757 19.6996 47.2723 17.3466 45.9321C15.3492 44.7953 12.9912 46.5621 9.44026 47.1167C9.76055 45.6611 11.0417 42.1 11.1098 40.9782C11.1577 40.1701 9.18302 36.9076 8.6635 35.6653C3.86167 24.1839 10.8702 9.73856 24.5973 7.21892C38.2891 4.70429 50.0162 15.8545 49.4589 28.8492C49.358 31.1932 48.8511 33.4268 48.1096 35.4119C46.8234 38.855 45.3632 39.3645 46.0214 41.0836C47.6355 41.5428 47.8776 40.7197 48.5409 39.5377C49.1058 38.5363 49.5219 37.7332 49.9759 36.6215C54.586 25.3734 49.479 12.6171 38.9523 7.25907C34.7861 5.13845 29.6387 4.17225 24.3703 5.05313C8.21711 7.74845 0.184635 25.9004 8.0103 39.357C8.88038 40.8527 8.93839 40.7347 8.39112 42.642C7.92456 44.2683 6.49712 48.1356 6.94099 49.561L6.94603 49.5585Z" fill="#DDEFE8"/>
</svg>
