<svg width="38" height="37" viewBox="0 0 38 37" fill="none" xmlns="http://www.w3.org/2000/svg">
<path fill-rule="evenodd" clip-rule="evenodd" d="M2.72916 34.6382L4.6319 27.8314C5.11669 26.1388 3.47371 25.2784 2.73743 21.3587C2.25927 18.8173 2.39163 16.0642 3.05014 13.6435C4.00648 10.1259 5.80002 8.71461 5.58658 7.59282C4.79239 7.08652 4.52767 7.33802 4.0677 8.06768C1.4386 12.2388 0.36976 16.6234 1.35091 21.7393C1.60902 23.0828 1.99785 24.279 2.51903 25.4455C3.44724 27.5253 3.46875 26.6103 2.79203 29.0127C2.43796 30.2735 2.08057 31.5442 1.7265 32.8182C1.39228 34.0211 0.566653 36.081 1.16229 36.5393C1.66693 36.9281 8.01547 34.989 9.39703 34.6051C11.0566 34.1435 10.5072 34.261 11.9004 34.8401C23.0521 39.4795 34.9997 32.8182 37.0596 21.4282C39.7747 6.41808 23.7702 -5.46661 9.79082 2.61425C8.97512 3.0858 8.14288 3.3919 8.43408 4.4988C9.32754 4.84129 9.81232 4.26385 10.5585 3.81381C15.8746 0.600657 22.7129 0.713167 27.8387 3.85517C32.3606 6.62821 37.0513 12.6078 35.6847 20.9186C34.6009 27.5038 29.629 32.6809 23.704 34.3007C16.1989 36.3507 11.7233 32.6875 10.5089 32.8348C9.40696 32.9688 4.99591 34.5406 2.97404 34.807C2.54881 34.8848 2.85325 34.8881 2.72751 34.6415L2.72916 34.6382ZM29.265 29.1865C30.4976 29.16 30.347 28.0365 29.7812 27.838C29.0284 27.5733 28.2838 28.4039 29.265 29.1865ZM7.37682 5.25824C6.12762 4.881 5.75369 5.82079 6.40559 6.37672C7.01447 6.89625 7.74413 6.26917 7.37682 5.25824ZM23.7586 21.0791C24.4883 21.2032 25.074 21.5987 25.701 21.9047C25.9906 22.047 26.2818 22.186 26.5747 22.32C27.0065 22.5186 27.167 22.502 27.2745 22.9405C27.6915 24.6298 26.1577 25.611 24.8126 25.8211C19.3111 26.6831 10.0125 18.4666 11.1889 13.3176C11.6489 11.309 12.5754 10.9201 14.1109 11.0111C15.0854 14.2094 16.3379 14.1647 15.001 15.5562C13.3812 17.2422 14.8074 18.5228 15.9143 19.7853C16.8922 20.9004 18.1414 21.8948 19.7231 22.7204C22.425 24.1334 22.5971 22.2522 23.7569 21.0791H23.7586ZM21.3711 21.7641C19.6603 21.6351 16.4835 18.7545 15.6662 17.0552C16.146 16.2908 17.2975 15.6952 16.9915 14.2723C16.8144 13.445 16.0434 11.9824 15.686 11.1319C14.4815 8.26953 11.4272 9.53527 10.3567 11.4926C8.07173 15.672 11.8838 20.6357 14.8256 23.1738C16.3578 24.4958 17.9974 25.5911 20.246 26.4945C22.3324 27.3334 25.4793 27.8248 27.2332 26.3555C28.029 25.6887 28.6429 24.8631 28.719 23.5113C28.8265 21.6003 28.1812 21.5474 26.8427 20.8955C22.1007 18.584 23.4839 19.9127 21.3711 21.7658V21.7641ZM5.14316 32.4294C6.50817 32.9539 10.087 30.9817 11.2518 31.3142C12.4712 31.6633 13.3812 32.7702 16.8674 33.3047C20.0557 33.7944 23.4939 33.2302 26.2983 31.7262C27.0313 31.3324 28.6263 30.6805 27.6766 29.7953C27.028 29.3618 26.0998 30.2106 25.4115 30.5581C24.657 30.937 23.8959 31.2497 23.0554 31.4913C21.1278 32.0455 18.9471 32.206 16.8856 31.8569C14.8869 31.5177 13.5103 30.9221 11.9666 30.0386C10.6561 29.289 9.10914 30.4539 6.77952 30.8195C6.98965 29.8599 7.83016 27.512 7.87484 26.7725C7.90627 26.2397 6.61075 24.0888 6.26992 23.2698C3.11964 15.7002 7.71765 6.17652 16.7234 4.51534C25.706 2.85747 33.3997 10.2087 33.034 18.776C32.9679 20.3213 32.6353 21.7939 32.1489 23.1026C31.305 25.3727 30.347 25.7086 30.7789 26.8419C31.8378 27.1447 31.9966 26.602 32.4318 25.8227C32.8024 25.1626 33.0754 24.6331 33.3732 23.9001C36.3978 16.4844 33.0473 8.0743 26.1412 4.54181C23.4078 3.14371 20.0309 2.50671 16.5745 3.08746C5.97706 4.86445 0.70729 16.8319 5.84138 25.7036C6.41221 26.6897 6.45026 26.612 6.09122 27.8694C5.78513 28.9416 4.84865 31.4913 5.13985 32.431L5.14316 32.4294Z" fill="#1C2C3C"/>
</svg>
