<svg width="38" height="37" viewBox="0 0 38 37" fill="none" xmlns="http://www.w3.org/2000/svg">
<path fill-rule="evenodd" clip-rule="evenodd" d="M35.4666 1.81356C35.9278 2.58456 35.6876 23.2219 35.6876 26.9609C35.6876 28.3444 36.0065 34.4963 35.395 35.2663C34.517 35.6336 33.1496 35.0311 32.8731 35.9283C32.5188 37.0777 34.3636 36.893 34.9751 36.8426C37.4526 36.6357 37.1176 34.5427 37.1186 32.6919L37.1206 7.46891C37.1206 -0.0937539 37.7968 0.156519 31.6742 0.159546C30.5611 0.159546 10.2537 0.0495476 9.67748 0.222114C8.65621 0.526881 8.81969 1.61678 10.3032 1.61779C13.0309 1.6198 34.6764 1.34228 35.4656 1.81356H35.4666ZM7.69044 7.64652C8.17383 8.65265 9.17189 9.75769 9.83592 10.669C10.4636 11.5308 11.4021 12.7519 12.0409 13.6187L16.449 19.5334C16.3137 19.9684 11.8058 24.9143 10.9309 25.764C10.505 26.1778 10.2154 26.6087 9.85509 26.9831C9.46152 27.3918 7.95383 28.9106 7.75502 29.3667C8.14355 29.4091 9.64014 29.4606 9.95903 29.3657C10.3698 29.2446 17.5772 21.1804 17.6176 21.138L22.3475 27.3877C22.7492 27.9357 23.3769 28.8258 23.9026 29.402L29.8607 29.3657C29.5701 28.629 26.2449 24.44 25.4739 23.4056C24.7453 22.4277 21.3071 18.0247 21.0679 17.3809C22.5251 15.7824 23.9773 14.087 25.483 12.5127C26.2742 11.6852 29.556 8.19248 29.784 7.65459C27.0805 7.51129 27.6829 7.47294 26.4033 8.8454C25.6384 9.66585 25.0107 10.3127 24.2427 11.1312C23.3728 12.0586 20.6541 15.3918 19.8882 15.8429L15.463 10.0483C13.8927 8.10064 14.2338 7.62331 12.7312 7.62129C11.06 7.61927 9.35757 7.60313 7.68943 7.64248L7.69044 7.64652ZM10.0428 8.81614L10.8713 10.0705C11.2609 10.5882 11.4304 10.8476 11.7866 11.2997C12.3861 12.0606 12.9774 12.8528 13.6324 13.753C17.114 18.5303 21.2899 23.7215 24.4778 28.2395L27.4791 28.2354C27.3247 27.64 16.9011 13.9154 16.5933 13.5148C12.4486 8.11679 14.0784 8.7344 10.0408 8.81715L10.0428 8.81614ZM6.55715 0.274591C5.70844 0.715595 6.37045 1.90842 7.2121 1.50072C7.98713 1.12531 7.46539 -0.197697 6.55715 0.274591ZM30.3492 35.5317C29.5004 35.9727 30.1635 37.1655 31.0051 36.7578C31.7791 36.3834 31.2594 35.0594 30.3492 35.5317ZM2.08454 35.1956C1.62336 34.4256 1.86354 13.7873 1.86354 10.0483C1.86354 8.66577 1.54565 2.50988 2.15519 1.74191C3.03215 1.37559 4.39956 1.97705 4.67607 1.0799C5.03029 -0.0685244 3.20976 0.112116 2.59821 0.17872C0.067229 0.454222 0.433555 2.3797 0.431536 4.3183L0.429518 29.5403C0.429518 37.1009 -0.248639 36.8527 5.87597 36.8496L27.9181 36.8153C28.8263 36.557 28.8162 35.3954 27.249 35.3934C24.5222 35.3914 2.87169 35.6669 2.08454 35.1956Z" fill="#1C2C3C"/>
</svg>
