<svg width="38" height="37" viewBox="0 0 38 37" fill="none" xmlns="http://www.w3.org/2000/svg">
<path fill-rule="evenodd" clip-rule="evenodd" d="M35.9666 1.68856C36.4278 2.45956 36.1876 23.0969 36.1876 26.8359C36.1876 28.2194 36.5065 34.3713 35.895 35.1413C35.017 35.5086 33.6496 34.9061 33.3731 35.8033C33.0188 36.9527 34.8636 36.768 35.4751 36.7176C37.9526 36.5107 37.6176 34.4177 37.6186 32.5669L37.6206 7.34391C37.6206 -0.218754 38.2968 0.0315188 32.1742 0.0345463C31.0611 0.0345463 10.7537 -0.0754524 10.1775 0.0971143C9.15621 0.401881 9.31969 1.49178 10.8032 1.49279C13.5309 1.4948 35.1764 1.21728 35.9656 1.68856H35.9666ZM8.19044 7.52152C8.67383 8.52765 9.67189 9.63269 10.3359 10.544C10.9636 11.4058 11.9021 12.6269 12.5409 13.4937L16.949 19.4084C16.8137 19.8434 12.3058 24.7893 11.4309 25.639C11.005 26.0528 10.7154 26.4837 10.3551 26.8581C9.96152 27.2668 8.45383 28.7856 8.25502 29.2417C8.64355 29.2841 10.1401 29.3356 10.459 29.2407C10.8698 29.1196 18.0772 21.0554 18.1176 21.013L22.8475 27.2627C23.2492 27.8107 23.8769 28.7008 24.4026 29.277L30.3607 29.2407C30.0701 28.504 26.7449 24.315 25.9739 23.2806C25.2453 22.3027 21.8071 17.8997 21.5679 17.2559C23.0251 15.6574 24.4773 13.962 25.983 12.3877C26.7742 11.5602 30.056 8.06748 30.284 7.52959C27.5805 7.38629 28.1829 7.34794 26.9033 8.7204C26.1384 9.54085 25.5107 10.1877 24.7427 11.0062C23.8728 11.9336 21.1541 15.2668 20.3882 15.7179L15.963 9.92332C14.3927 7.97564 14.7338 7.49831 13.2312 7.49629C11.56 7.49427 9.85757 7.47813 8.18943 7.51748L8.19044 7.52152ZM10.5428 8.69114L11.3713 9.94553C11.7609 10.4632 11.9304 10.7226 12.2866 11.1747C12.8861 11.9356 13.4774 12.7278 14.1324 13.628C17.614 18.4053 21.7899 23.5965 24.9778 28.1145L27.9791 28.1104C27.8247 27.515 17.4011 13.7904 17.0933 13.3898C12.9486 7.99179 14.5784 8.6094 10.5408 8.69215L10.5428 8.69114ZM7.05715 0.149591C6.20844 0.590595 6.87045 1.78342 7.7121 1.37572C8.48713 1.00031 7.96539 -0.322697 7.05715 0.149591ZM30.8492 35.4067C30.0004 35.8477 30.6635 37.0405 31.5051 36.6328C32.2791 36.2584 31.7594 34.9344 30.8492 35.4067ZM2.58454 35.0706C2.12336 34.3006 2.36354 13.6623 2.36354 9.92332C2.36354 8.54077 2.04565 2.38488 2.65519 1.61691C3.53215 1.25059 4.89956 1.85205 5.17607 0.954902C5.53029 -0.193524 3.70976 -0.0128843 3.09821 0.0537204C0.567229 0.329222 0.933555 2.2547 0.931536 4.1933L0.929518 29.4153C0.929518 36.9759 0.251361 36.7277 6.37597 36.7246L28.4181 36.6903C29.3263 36.432 29.3162 35.2704 27.749 35.2684C25.0222 35.2664 3.37169 35.5419 2.58454 35.0706Z" fill="#1C2C3C"/>
</svg>
