<svg width="57" height="56" viewBox="0 0 57 56" fill="none" xmlns="http://www.w3.org/2000/svg">
<path fill-rule="evenodd" clip-rule="evenodd" d="M53.9101 2.91953C54.6068 4.08359 54.244 35.2421 54.244 40.8872C54.244 42.9761 54.7257 52.2642 53.8018 53.4268C52.4754 53.9814 50.4095 53.0718 49.9917 54.4263C49.4566 56.1617 52.2436 55.8829 53.1676 55.8067C56.9106 55.4943 56.4044 52.3343 56.4059 49.5399L56.4089 11.458C56.4089 0.0398403 57.4305 0.417705 48.1805 0.422275C46.4988 0.422275 15.8184 0.256198 14.9479 0.516741C13.4049 0.976882 13.6519 2.62242 15.8931 2.62394C20.0142 2.62699 52.7163 2.20798 53.9085 2.91953H53.9101ZM11.9459 11.7262C12.6762 13.2453 14.184 14.9136 15.1872 16.2895C16.1356 17.5907 17.5535 19.4343 18.5186 20.7431L25.1782 29.6732C24.9739 30.3299 18.1633 37.7972 16.8415 39.0801C16.1981 39.7048 15.7605 40.3554 15.2162 40.9207C14.6216 41.5378 12.3438 43.8309 12.0434 44.5195C12.6304 44.5835 14.8915 44.6612 15.3732 44.518C15.9938 44.3352 26.8828 32.1598 26.9437 32.0958L34.0897 41.5317C34.6965 42.359 35.6449 43.7029 36.4392 44.5729L45.4407 44.518C45.0016 43.4058 39.9779 37.0811 38.8131 35.5194C37.7123 34.043 32.5178 27.3953 32.1565 26.4232C34.3581 24.0098 36.552 21.4501 38.8268 19.0732C40.0221 17.8238 44.9802 12.5505 45.3248 11.7384C41.2403 11.522 42.1505 11.4641 40.2173 13.5363C39.0616 14.775 38.1133 15.7516 36.953 16.9873C35.6388 18.3875 31.5314 23.4201 30.3742 24.1012L23.6886 15.3525C21.3163 12.4118 21.8316 11.6911 19.5614 11.6881C17.0366 11.685 14.4646 11.6607 11.9443 11.7201L11.9459 11.7262ZM15.4998 13.4921L16.7515 15.386C17.34 16.1676 17.5962 16.5592 18.1344 17.2418C19.04 18.3906 19.9334 19.5867 20.9229 20.9457C26.1829 28.1587 32.4919 35.9963 37.3083 42.8176L41.8425 42.8115C41.6093 41.9126 25.8612 21.191 25.3962 20.5862C19.1345 12.4362 21.5968 13.3687 15.4967 13.4936L15.4998 13.4921ZM10.2337 0.595971C8.95146 1.2618 9.95162 3.06275 11.2232 2.4472C12.3941 1.8804 11.6059 -0.117094 10.2337 0.595971ZM46.1786 53.8275C44.8964 54.4933 45.8981 56.2943 47.1696 55.6787C48.339 55.1134 47.5538 53.1144 46.1786 53.8275ZM3.47647 53.3201C2.77971 52.1576 3.14258 20.9975 3.14258 15.3525C3.14258 13.2651 2.66231 3.97084 3.5832 2.81135C4.90811 2.25827 6.974 3.16636 7.39175 1.81184C7.9269 0.0779321 5.17645 0.350664 4.25251 0.451225C0.428715 0.867179 0.982159 3.77429 0.97911 6.70121L0.976061 44.7816C0.976061 56.1967 -0.0484976 55.8219 9.20455 55.8174L42.5057 55.7656C43.8779 55.3755 43.8627 53.6218 41.4949 53.6187C37.3753 53.6157 4.66569 54.0316 3.47647 53.3201Z" fill="#DDEFE8"/>
</svg>
